SplineFontDB: 3.0
FontName: KleiMed
FullName: Klei Medium
FamilyName: Klei
Weight: Medium
Copyright: Copyright (c) 2015, Joseph Steck, Rocketroom, LLC. All rights reserved.
UComments: "For my beloved Alisa +ACIA-Clay+ACIA Steck+AAoA-2015-02-14: Created with FontForge (http://fontforge.org)"
Version: 001.000
ItalicAngle: 0
UnderlinePosition: -100
UnderlineWidth: 50
Ascent: 768
Descent: 232
InvalidEm: 0
LayerCount: 2
Layer: 0 0 "Back" 1
Layer: 1 0 "Fore" 0
PreferredKerning: 4
XUID: [1021 610 -1734517455 9502657]
FSType: 0
OS2Version: 3
OS2_WeightWidthSlopeOnly: 0
OS2_UseTypoMetrics: 1
CreationTime: 1424325067
ModificationTime: 1536697568
PfmFamily: 17
TTFWeight: 400
TTFWidth: 5
LineGap: 90
VLineGap: 0
Panose: 2 0 5 3 0 0 0 0 0 0
OS2TypoAscent: 0
OS2TypoAOffset: 1
OS2TypoDescent: 0
OS2TypoDOffset: 1
OS2TypoLinegap: 90
OS2WinAscent: 0
OS2WinAOffset: 1
OS2WinDescent: 0
OS2WinDOffset: 1
HheadAscent: 0
HheadAOffset: 1
HheadDescent: 0
HheadDOffset: 1
OS2Vendor: 'PfEd'
OS2CodePages: 20000001.00000000
OS2UnicodeRanges: 00000005.00000000.00000000.00000000
Lookup: 4 0 1 "'liga' Standard Ligatures in Latin lookup 0" { "'liga' ffi"  "'liga' ffl"  "'liga' fi"  "'liga' ff"  "'liga' fl"  } ['liga' ('DFLT' <'dflt' > 'latn' <'dflt' > ) ]

StartChar: s
Encoding: 115 115 0
GlifName: s
Width: 449
VWidth: 0
Flags: W
HStem: -10 40.4434<163.412 277.479> 469.515 36.2139<203.346 290.14>
VStem: 49.0039 64.873<81.1551 129.661> 82.6777 96.4834<351.28 443.401> 304.924 93.791<65.2885 160.847>
LayerCount: 2
Fore
SplineSet
113.876953125 136.182617188 m 4xe8
 119.624023438 102.026367188 146.008789062 30.443359375 225.234375 30.443359375 c 0
 276.083984375 30.443359375 304.923828125 73.7119140625 304.923828125 112.604492188 c 0
 304.923828125 149.173828125 266.74609375 186.133789062 213.701171875 217.471679688 c 0
 167.2578125 245.05859375 82.677734375 301.298828125 82.677734375 370.005859375 c 0
 82.677734375 449.794921875 140.826171875 505.728515625 246.946045221 505.728515625 c 0
 307.383789062 505.728515625 372.122070312 487.63671875 372.122070312 464 c 0
 372.122070312 453.447265625 367.079101562 392.336914062 341 392.336914062 c 0
 309.2421875 392.336914062 309.823242188 469.514648438 249.384765625 469.514648438 c 0
 194.303710938 469.514648438 179.161132812 422.017578125 179.161132812 399.092773438 c 0xd8
 179.161132812 352.291992188 239.629882812 318.19921875 282.734375 291.750976562 c 0
 335.958007812 255.188476562 398.71484375 214.923828125 398.71484375 143.517578125 c 0
 398.71484375 48.83203125 324.262695312 -10 224.517586893 -10 c 0
 104.216796875 -10 49.00390625 49.1689453125 49.00390625 83 c 0
 49.00390625 101.434570312 74.2587890625 147.54296875 100 147.54296875 c 0
 105.674804688 147.54296875 113.147664688 140.516957435 113.876953125 136.182617188 c 4xe8
EndSplineSet
Validated: 1
EndChar

StartChar: W
Encoding: 87 87 1
GlifName: W_
Width: 1071
VWidth: 0
Flags: W
HStem: -7.8291 21G<395.83 404.127 702.723 711.094> 701 29<60 66.9062 239.047 280.98 356 393.373 509.087 550 605 644.972 730.022 769 863 904.02 1029.09 1036>
LayerCount: 2
Fore
SplineSet
1036 701 m 1
 1029.09375 700.486328125 l 2
 998.228515625 698.481445312 991.428710938 683.634765625 979 656 c 2
 979 656 758.282226562 79.9091796875 735.326171875 25.2705078125 c 1
 730.583007812 14.5498046875 727.118164062 7.0390625 727.08203125 6.9599609375 c 0
 723.247070312 -1.486328125 715.215820312 -7.8291015625 706.97265625 -7.8291015625 c 0
 698.473632812 -7.8291015625 691.587890625 -0.28515625 688.559570312 6.734375 c 0
 685.620117188 13.5458984375 630.369140625 164.615234375 561.975585938 331.579101562 c 1
 428.33203125 25.564453125 l 0
 423.650390625 14.7744140625 420.131835938 7 420.114257812 6.9609375 c 0
 416.280273438 -1.486328125 408.249023438 -7.8291015625 400.004882812 -7.8291015625 c 0
 391.654296875 -7.8291015625 384.509765625 -0.4833984375 381.530273438 6.880859375 c 0
 376.506835938 19.0654296875 188.9921875 475.73046875 118.155273438 646.700195312 c 0
 111.2578125 662.9453125 l 0
 100.12890625 689.716796875 95 698 66.90625 700.486328125 c 2
 60 701 l 5
 60 701 55.3916015625 707.552734375 55.3916015625 716.3046875 c 4
 55.3916015625 724.3046875 60 730 60 730 c 5
 280.98046875 730 l 5
 280.98046875 730 284.391601562 725.056640625 284.391601562 716.3046875 c 4
 284.391601562 708.3046875 281 701 281 701 c 5
 274.947265625 700.91796875 l 2
 252.991591749 700.620408794 228.865234375 686.48046875 228.865234375 665 c 0
 228.865234375 660.379882812 230.08203125 658.720703125 232.34375 651.508789062 c 1
 424.078125 170.791992188 l 1
 521.100585938 394.892578125 l 1
 407 665 l 2
 396.806640625 688.91796875 380.986305287 700.730467491 363.604492188 700.91796875 c 2
 356 701 l 1
 356 701 352.391601562 707.552734375 352.391601562 716.3046875 c 0
 352.391601562 724.3046875 356 730 356 730 c 1
 550 730 l 1
 550 730 553.391601562 725.056640625 553.391601562 716.3046875 c 0
 553.391601562 708.3046875 550 701 550 701 c 1
 542.803710938 701.052734375 l 2
 522 701 500.602539062 686.186523438 500.602539062 668 c 0
 500.602539062 662.760742188 501.96875 658.474609375 505.576171875 649.311523438 c 1
 572.7890625 488.91015625 l 1
 600.377929688 543.239257812 622.044921875 591.559570312 645.296875 645.11328125 c 1
 651.517578125 658.959960938 652.875 662.303710938 652.875 669 c 0
 652.875 687.280273438 631.007921998 700.70967901 612.348632812 700.91796875 c 2
 605 701 l 1
 605 701 600.391601562 707.552734375 600.391601562 716.3046875 c 0
 600.391601562 724.3046875 605 730 605 730 c 1
 769 730 l 1
 769 730 773.391601562 725.056640625 773.391601562 716.3046875 c 0
 773.391601562 708.3046875 770 701 770 701 c 1
 762.39453125 700.91796875 l 2
 733.993402967 700.611639169 728.709960938 687.356445312 716.766601562 662.130859375 c 2
 608.168945312 431.826171875 l 1
 711.75390625 173.828125 l 1
 780.862304688 343.48828125 834.099609375 474.438476562 905.3984375 644.553710938 c 1
 909 652 913 661.157226562 913 668 c 0
 913 686.315429688 889.984731391 700.686354305 870.057617188 700.91796875 c 2
 863 701 l 1
 863 701 859.391601562 707.552734375 859.391601562 716.3046875 c 0
 859.391601562 724.3046875 863 730 863 730 c 1
 1036 730 l 1
 1036 730 1039.39160156 724.056640625 1039.39160156 715.3046875 c 0
 1039.39160156 707.3046875 1036 701 1036 701 c 1
EndSplineSet
Validated: 1
EndChar

StartChar: A
Encoding: 65 65 2
GlifName: A_
Width: 791
VWidth: 0
Flags: WO
HStem: 0 30<40 78.8396 166.258 203 527 567.586 701.801 738> 295 53<279.264 456.952> 715.309 20G<395.423 411.738>
LayerCount: 2
Fore
SplineSet
741 15 m 1052,0,-1
738 0 m 5,1,-1
 527 0 l 5,2,-1
 527 0 523 6.248046875 523 15 c 4,5,-1
 523 23 527 30 527 30 c 5,8,-1
 534 30 l 6,9,-1
 556 30 577.481445312 46.97265625 577.481445312 68.3544921875 c 4,12,-1
 577.481445312 73.466796875 577.161132812 79.0751953125 574.525390625 85.3125 c 4,15,-1
 479.860351562 295 l 5,16,-1
 259.412109375 295 l 4,17,-1
 258.286132812 295 258.26171875 294.868164062 258.26171875 294.868164062 c 5,20,-1
 258.069335938 294.694335938 257.337890625 293.592773438 256.287109375 291.204101562 c 4,23,-1
 169.447265625 90.07421875 l 5,24,-1
 163.5625 76.875 161.4765625 67.7001953125 161.4765625 61.5302734375 c 4,27,-1
 161.4765625 43.1162109375 176 30 196 30 c 6,30,-1
 203 30 l 5,31,-1
 203 30 207 23.751953125 207 15 c 4,34,-1
 207 7 203 0 203 0 c 5,37,-1
 40 0 l 5,38,-1
 40 0 36 6.248046875 36 15 c 4,41,-1
 36 23 40 30 40 30 c 5,44,-1
 47 30 l 6,45,-1
 78.5341796875 30 83.841796875 52.5791015625 96.5888671875 79.1318359375 c 5,48,-1
 370.123046875 708.659179688 l 5,49,-1
 371.51953125 709.752929688 l 4,50,-1
 385.3671875 720.599609375 384.040039062 718.686523438 395.422851562 728.493164062 c 4,53,-1
 403.178710938 735.30859375 l 5,54,-1
 692.399414062 59.5390625 l 5,55,-1
 699.770507812 44.6083984375 712 30 731 30 c 6,58,-1
 738 30 l 5,59,-1
 738 30 741 23.751953125 741 15 c 4,62,-1
 741 7 738 0 738 0 c 5,1,-1
371 561 m 5,65,-1
 279.263671875 348 l 5,66,-1
 456.952148438 348 l 5,67,-1
 371 561 l 5,65,-1
EndSplineSet
EndChar

StartChar: O
Encoding: 79 79 3
GlifName: O_
Width: 828
VWidth: 0
Flags: W
HStem: -10 50.667<327.845 516.337> 684.77 49.0391<306.142 510.066>
VStem: 55 123.326<221.591 497.246> 652.246 121.326<234.597 499.484>
LayerCount: 2
Fore
SplineSet
411.301356174 733.80859375 m 0
 609.639825735 733.80859375 773.572265625 607.613096448 773.572265625 360.783203125 c 0
 773.572265625 123.736328125 577.114903275 -10 413.244931659 -10 c 0
 294.432311197 -10 55 53.6591796875 55 351.94921875 c 0
 55 599.623046875 217.101748266 733.80859375 411.301356174 733.80859375 c 0
403.975585938 684.76953125 m 4
 196.1484375 684.76953125 178.326171875 452.103515625 178.326171875 384.29296875 c 4
 178.326171875 67.96484375 357.994140625 40.6669921875 421.186523438 40.6669921875 c 4
 539.84375 40.6669921875 652.24609375 114.952148438 652.24609375 376.696289062 c 4
 652.24609375 529.615234375 593.345703125 684.76953125 403.975585938 684.76953125 c 4
EndSplineSet
Validated: 1
EndChar

StartChar: V
Encoding: 86 86 4
GlifName: V_
Width: 709
VWidth: 0
Flags: W
HStem: -8 21G<392.191 402.559> 701 29<50 89.4715 228.943 271 573 614.686 710.279 749>
LayerCount: 2
Fore
SplineSet
750 701 m 1
 742 701 l 2
 713 701 708.611328125 685.818359375 694.309570312 658.627929688 c 1
 423.109375 24.9521484375 l 1
 417.922851562 13.1201171875 414.834960938 6.26953125 414.82421875 6.2451171875 c 0
 414.739257812 6.0546875 l 1
 414.643554688 5.869140625 l 0
 413.177734375 3.025390625 408.1796875 -8 396.9375 -8 c 0
 387.444335938 -8 380.720703125 -0.759765625 377.908203125 6.5146484375 c 0
 283.951171875 228.434570312 191.31640625 439.224609375 100 665.551757812 c 0
 90.251953125 689.711914062 83 701 57 701 c 2
 50 701 l 1
 50 701 45.3916015625 707.552734375 45.3916015625 716.3046875 c 0
 45.3916015625 724.3046875 50 730 50 730 c 1
 271.5 730 l 1
 271.5 730 274.391601562 725.056640625 274.391601562 716.3046875 c 0
 274.391601562 708.3046875 271 701 271 701 c 1
 264.28125 701 l 2
 242 701 219.228515625 683.776367188 219.228515625 669.515625 c 0
 219.228515625 665.904296875 219.848632812 659.177734375 222.659179688 652.181640625 c 1
 415.529296875 193.461914062 l 1
 615.53125 645.7109375 l 1
 621.44921875 659.484375 623.591796875 663.051757812 623.591796875 669.165039062 c 0
 623.591796875 685.606445312 601 701 579.90625 701 c 2
 573 701 l 1
 573 701 568.391601562 707.552734375 568.391601562 716.3046875 c 0
 568.391601562 724.3046875 573 730 573 730 c 1
 749 730 l 1
 749 730 753.391601562 725.056640625 753.391601562 716.3046875 c 0
 753.391601562 708.3046875 750 701 750 701 c 1
EndSplineSet
EndChar

StartChar: H
Encoding: 72 72 5
GlifName: H_
Width: 817
VWidth: 0
Flags: W
HStem: 0.304688 29<54 99.0109 248.474 275.006 539.392 566.922 733.998 761.397> 373.211 52.3809<222.739 591.748> 701.305 29<54 98.5681 247.526 275.006 539.392 566.924 734.359 761.397>
VStem: 109.115 113.334<33.5867 373.371 425.433 696.806> 591.749 116.566<32.6813 373.293 427.427 697.563>
LayerCount: 2
Fore
SplineSet
275.005859375 730.3046875 m 1
 275.005859375 730.3046875 279 724.751953125 279 716 c 0
 279 708 275.005859375 701 275.005859375 701 c 1
 264.200195312 700.2109375 256.721679688 699.915039062 247.075195312 698.004882812 c 0
 230.77734375 694.77734375 222.815429688 676.241210938 222.815429688 666.263671875 c 0
 222.815429688 611.204101562 222.659179688 567.138671875 222.659179688 512.098632812 c 0
 222.659179688 484.515625 222.696289062 452.692382812 222.811523438 427.390625 c 0
 222.825195312 426.17578125 226.256835938 425.77734375 228.540039062 425.591796875 c 0
 277.720703125 425.038085938 334.282226562 424.358398438 398.822265625 424.358398438 c 0
 466.629882812 424.358398438 533.234375 425.104492188 587.215820312 425.674804688 c 1
 590 425.674804688 591.749023438 427.426757812 591.749023438 427.426757812 c 1
 591.749023438 666.553710938 l 1
 591.63671875 676.53125 583.654296875 695.646484375 567.374023438 698.8671875 c 0
 557.724609375 700.776367188 551.247070312 701.072265625 539.391601562 701.3046875 c 1
 539.391601562 701.3046875 535.391601562 707.552734375 535.391601562 716.3046875 c 0
 535.391601562 724.3046875 539.391601562 730.3046875 539.391601562 730.3046875 c 1
 761.397460938 730.609375 l 1
 761.397460938 730.609375 765.391601562 725.056640625 765.391601562 716.3046875 c 0
 765.391601562 708.3046875 761.397460938 701.3046875 761.397460938 701.3046875 c 1
 751.028320312 700.96484375 743.555664062 700.669921875 733.908203125 698.750976562 c 0
 717.732421875 695.536132812 708.728515625 677.510742188 708.314453125 667.084960938 c 1
 706.284179688 575.07421875 705.447265625 492.666992188 705.447265625 400.322265625 c 0
 705.447265625 284.805664062 706.655273438 179.88671875 708.315429688 64.3232421875 c 1
 708.733398438 54.853515625 717.748046875 34.78515625 733.546875 31.6494140625 c 0
 743.197265625 29.734375 750.66796875 29.4345703125 761.397460938 29.609375 c 1
 761.397460938 29.609375 765.391601562 24.056640625 765.391601562 15.3046875 c 0
 765.391601562 7.3046875 761.397460938 0.3046875 761.397460938 0.3046875 c 1
 539.391601562 0.3046875 l 1
 539.391601562 0.3046875 535.391601562 6.552734375 535.391601562 15.3046875 c 0
 535.391601562 23.3046875 539.391601562 29.3046875 539.391601562 29.3046875 c 1
 550.248046875 29.447265625 557.727330436 29.7451895728 567.373046875 31.6630859375 c 0
 583.286132812 34.8271484375 591.506835938 53.7685546875 591.749023438 62.853515625 c 1
 591.749023438 371.379882812 l 2
 591.749023438 372.588867188 589.405273438 372.875 586.532226562 373.12890625 c 0
 532.712890625 373.696289062 465.694335938 374.446289062 398.822265625 374.446289062 c 0
 334.983398438 374.446289062 278.958007812 373.770507812 229.189453125 373.2109375 c 0
 226.693359375 373.046875 222.848632812 372.740234375 222.810546875 371.341796875 c 0
 222.5390625 336.002929688 222.44921875 295.5546875 222.44921875 260.05078125 c 0
 222.44921875 189.86328125 222.803710938 133.08984375 222.806640625 63.0869140625 c 1
 223.594726562 53.2919921875 232.659179688 34.7138671875 248.024414062 31.6630859375 c 0
 257.673850225 29.7471816172 264.15234375 29.751953125 275.005859375 29.3046875 c 1
 275.005859375 29.3046875 279 23.751953125 279 15 c 0
 279 7 275.005859375 0 275.005859375 0 c 1
 54 0 l 1
 54 0 50 6.248046875 50 15 c 0
 50 23 54 29 54 29 c 1
 64.8544921875 29.4345703125 72.3349609375 29.73046875 81.98046875 31.6494140625 c 0
 98.2177734375 34.876953125 106.240234375 54.724609375 106.240234375 64.5224609375 c 1
 107.908203125 181.28125 109.115234375 287.7734375 109.115234375 404.247070312 c 0
 109.115234375 494.900390625 108.270507812 575.295898438 106.2578125 665.846679688 c 1
 106.247070312 675.356445312 98.15234375 695.541015625 81.984375 698.750976562 c 0
 72.333984375 700.66796875 64.861328125 700.96484375 54 701 c 1
 54 701 50 707.248046875 50 716 c 0
 50 724 54 730 54 730 c 1
 275.005859375 730.3046875 l 1
EndSplineSet
EndChar

StartChar: m
Encoding: 109 109 6
GlifName: m
Width: 899
VWidth: 0
Flags: W
HStem: 0 28.7012<57 88.6033 201.307 233.077 373.32 404.918 514.014 545.441 700.186 731.791 833.881 865.309> 461.892 26.0195<59.4092 89.2626> 467.936 43.3193<230.266 363.513 559.613 692.947>
VStem: 93.2275 103.683<29.8901 443.55> 409.545 99.7266<29.901 393.973> 736.413 92.7275<29.9199 421.567>
LayerCount: 2
Fore
SplineSet
196.91015625 53.365234375 m 1xbc
 199.3046875 41.7275390625 210.771484375 28.8984375 226.169921875 28.701171875 c 2
 233.077148438 28.6123046875 l 1
 233.077148438 0 l 1
 57 0 l 1
 57 28.6015625 l 1
 63.9072265625 28.6904296875 l 2
 79.541015625 28.890625 91.0322265625 42.3447265625 93.2275390625 53.658203125 c 1
 93.2275390625 431.466796875 l 2
 93.2275390625 452.3203125 81.2158203125 461.891601562 64.4091796875 461.891601562 c 2
 59.4091796875 461.891601562 l 1
 59.4091796875 487.911132812 l 1xdc
 179.33203125 512.456054688 l 0
 181 513 183.4140625 513 184.380859375 513 c 0
 197.231445312 513 196.967773438 498.931640625 197.001953125 489.821289062 c 0
 197.001953125 482.668945312 196.999023438 473.956054688 196.997070312 467.791992188 c 1
 235.392578125 495.193359375 260.3046875 511.254882812 320.564453125 511.254882812 c 0
 383.514648438 511.254882812 443.709960938 487.41796875 477.08203125 431.501953125 c 1
 518.541015625 492.947265625 583.271484375 508.254882812 651.413085938 508.254882812 c 0
 739.147460938 508.254882812 829.208007812 455.98828125 829.208007812 346.090820312 c 0
 829.140625 53.470703125 l 1
 831.530273438 41.80859375 842.984375 28.96484375 858.401367188 28.767578125 c 2
 865.30859375 28.6787109375 l 1
 865.30859375 0 l 1
 700.185546875 0 l 1
 700.185546875 28.611328125 l 1
 707.092773438 28.69921875 l 2
 722.729492188 28.8994140625 734.220703125 42.3564453125 736.413085938 53.67578125 c 1
 736.413085938 341.447265625 l 0
 736.413085938 418.107421875 695.946289062 466.935546875 633.634765625 466.935546875 c 4
 594.698242188 466.935546875 548.65625 455.3125 507.830078125 394.26171875 c 1
 509.09375 388.043945312 509.33984375 385.352539062 509.33984375 379.859375 c 0
 509.271484375 53.380859375 l 1
 511.661132812 41.7294921875 523.125 28.896484375 538.534179688 28.69921875 c 2
 545.44140625 28.611328125 l 1
 545.44140625 0 l 1
 373.3203125 0 l 1
 373.3203125 28.6123046875 l 1
 380.227539062 28.701171875 l 2
 395.864257812 28.9013671875 407.340820312 42.3583984375 409.544921875 53.66796875 c 1
 409.544921875 348.264648438 l 0
 409.544921875 414.315429688 365.391601562 467.935546875 298.224609375 467.935546875 c 0
 256.184570312 467.935546875 234.319335938 455.344726562 196.989257812 429.392578125 c 1
 196.91015625 53.365234375 l 1xbc
EndSplineSet
Validated: 1
EndChar

StartChar: w
Encoding: 119 119 7
GlifName: w
Width: 828
VWidth: 0
Flags: W
HStem: -11 21.6299G<258.311 266.432 554.879 562.375> 483 23.3516<48 69.7672 179.662 203.002 332.252 357.717 459.936 487.563 673.526 700.256 768.523 791.332>
LayerCount: 2
Fore
SplineSet
673.526367188 483.651367188 m 1
 673.526367188 506.12109375 l 1
 791.33203125 506.12109375 l 1
 791.33203125 483.696289062 l 1
 776 483.696289062 763.369140625 468.015625 759 456 c 0
 758.240234375 453.897460938 732.279296875 393.696289062 694.212890625 300.396484375 c 0
 641.237304688 170.556640625 579.958007812 11.8759765625 575.03515625 2.4052734375 c 0
 571.15234375 -5.2734375 565.9296875 -10.3701171875 558.8203125 -10.3701171875 c 0
 550.9375 -10.3701171875 543.573242188 -3.4072265625 540.635742188 4.369140625 c 0
 521.180664062 55.865234375 501.8984375 126.907226562 440.826171875 290.048828125 c 0
 434.888671875 305.907226562 426.73046875 325.206054688 421.151367188 339.887695312 c 1
 416.643554688 329.14453125 413.458984375 321.500976562 409.400390625 311.694335938 c 0
 353.875976562 177.48828125 285.087890625 11.62890625 281.749023438 3.0244140625 c 0
 278.276367188 -5.9267578125 270.165039062 -11 262.698242188 -11 c 0
 253.922851562 -11 248.442382812 -4.166015625 245.197265625 2.943359375 c 0
 223.397460938 49.41015625 203.49609375 125.672851562 144.879882812 282.265625 c 0
 109.141601562 377.740234375 77.2314453125 454.4296875 77 455 c 0
 72.2373046875 466.18359375 69.2861328125 483.6328125 48 483.6328125 c 1
 48 506.3515625 l 1
 203.001953125 506.3515625 l 1
 203.001953125 483 l 1
 195.904296875 483 l 2
 180.7578125 483 177.736328125 468.548828125 177.736328125 460.467773438 c 0
 177.736328125 456.794921875 180.50390625 449.375 182 445 c 0
 182.0234375 444.926757812 199.907226562 400.51171875 229.528320312 319.5234375 c 0
 253.032226562 255.260742188 274.208007812 201.01171875 287 168 c 1
 303.25390625 204.48828125 325.970703125 252.416015625 353.455078125 319.674804688 c 0
 366.11328125 350.653320312 379.499023438 385.6875 388.186523438 408.70703125 c 5
 372.369140625 449.451171875 362.20703125 461.489257812 362 462 c 0
 356.288085938 475.333007812 353.826171875 483.29296875 332.251953125 483.29296875 c 1
 332.251953125 506.3515625 l 1
 487.563476562 506.3515625 l 1
 487.563476562 483 l 1
 481.46484375 483 l 2
 467.127929688 483 459.372070312 476.724609375 459.372070312 467.099609375 c 0
 459.372070312 463.21484375 461.309570312 456.784179688 463 452 c 0
 463.022460938 451.935546875 484.465820312 400.5234375 514.091796875 319.5234375 c 0
 537.545898438 255.397460938 563.435546875 196.41796875 576 164 c 1
 591.208007812 199.8046875 615.225089741 251.124099694 643.93359375 317.674804688 c 0
 676.291992188 392.686523438 696.962890625 446.875 697 447 c 0
 698.548828125 452.161132812 701.293945312 459.858398438 701.293945312 465.098632812 c 0
 701.293945312 476.619140625 692.8671875 483.349609375 676.618164062 483.559570312 c 2
 673.526367188 483.651367188 l 1
EndSplineSet
Validated: 1
EndChar

StartChar: x
Encoding: 120 120 8
GlifName: x
Width: 600
VWidth: 0
Flags: W
HStem: 0.00195312 28.7432<59.0352 89.9287 163.143 193.201 356.796 386.871 503.823 532.893> 477.03 29.4844<80.1406 110.441 217.556 240.512 377.396 408.165 481.892 510>
LayerCount: 2
Fore
SplineSet
500.965820312 46.201171875 m 4
 505.821289062 41.0439453125 514.838867188 28.876953125 524.986328125 28.7451171875 c 6
 532.892578125 28.6552734375 l 5
 532.892578125 0.001953125 l 5
 356.795898438 -0.0439453125 l 5
 356.686523438 29.4248046875 l 5
 363.625 29.517578125 l 6
 376.626953125 29.69140625 386.938476562 35.802734375 386.938476562 43.9443359375 c 7
 386.938476562 51.1220703125 380.698242188 60.95703125 380 62 c 5
 380 62 342.401367188 131.7109375 288.208984375 209.208007812 c 5
 240.309570312 149.728515625 183.17578125 79.4677734375 172 65 c 5
 170.379882812 62.7578125 162.875976562 54.3759765625 162.875976562 45 c 4
 162.875976562 35.4541015625 178.010742188 29.6298828125 186.298828125 29.51953125 c 6
 193.20703125 29.427734375 l 5
 193.201171875 -0.0400390625 l 5
 59.03515625 -0.0400390625 l 5
 59 28.642578125 l 5
 65.9140625 28.732421875 l 6
 76.9033203125 28.875 88.1767578125 40.9091796875 92.39453125 45.4853515625 c 4
 96.9970703125 51.16796875 182.887695312 170.052734375 256.748046875 254.928710938 c 5
 200.181640625 333.1328125 115.951171875 455.1171875 113.674804688 458.282226562 c 4
 107.888671875 465.538085938 99.337890625 477.663085938 87.0126953125 477.826171875 c 6
 80.140625 477.916992188 l 5
 80 506.514648438 l 5
 240.51171875 506.514648438 l 5
 240.51171875 477.12109375 l 5
 233.083984375 477.030273438 l 6
 220.4296875 476.875976562 217.440429688 466.287109375 217.440429688 460.509765625 c 4
 217.440429688 456.518554688 221.568359375 449.146484375 226 443 c 6
 226 443 256.571289062 403.412109375 306.013671875 334.157226562 c 5
 371.541015625 414.870117188 401.395507812 443.106445312 402 444 c 4
 405.55859375 448.849609375 408.271484375 456.908203125 408.271484375 461.201171875 c 4
 408.271484375 468.374023438 399.1484375 476.920898438 384.28125 477.119140625 c 6
 377.396484375 477.2109375 l 5
 377.301757812 506.512695312 l 5
 510 506.514648438 l 5
 510 477.991210938 l 5
 504.079101562 477.915039062 l 6
 490.9375 477.771484375 482.666992188 463.189453125 478 457 c 4
 476.532226562 455.053710938 407.634765625 362.973632812 339.21484375 279.743164062 c 5
 399.5 195.868164062 461.721679688 87.8974609375 500.965820312 46.201171875 c 4
EndSplineSet
Validated: 1
EndChar

StartChar: X
Encoding: 88 88 9
GlifName: X_
Width: 789
VWidth: 0
Flags: W
HStem: 0 29<36 66.2157 184.028 212.98 491 535.561 691.808 724.98> 701 29<70 101.894 274.242 304.98 521 561.27 665.031 696.98>
LayerCount: 2
Fore
SplineSet
725 0 m 1
 491 0 l 1
 491 0 486.391601562 6.552734375 486.391601562 15.3046875 c 0
 486.391601562 23.3046875 491 29 491 29 c 1
 497.220703125 28.947265625 l 0
 505.126953125 29.0517578125 510.692382812 30.0869140625 517.7734375 32.2421875 c 0
 528.721679688 35.57421875 538.744140625 43.1279296875 538.744140625 52 c 0
 538.744140625 59.8818359375 528.290039062 75.4423828125 519.37109375 89.494140625 c 1
 359.186523438 330.346679688 l 1
 295.029296875 245.837890625 250.352539062 170.528320312 188.34375 87.2841796875 c 1
 173.067382812 66.7177734375 168.522460938 58.484375 168.522460938 53 c 0
 168.522460938 47.728515625 172.875 37.2705078125 183.727539062 33.2392578125 c 0
 190.12109375 30.8642578125 197.77734375 29.060546875 206.290039062 28.947265625 c 0
 212.98046875 29 l 1
 212.98046875 29 216.391601562 24.056640625 216.391601562 15.3046875 c 0
 216.391601562 7.3046875 213 0 213 0 c 1
 36 0 l 1
 36 0 31.3916015625 6.552734375 31.3916015625 15.3046875 c 0
 31.3916015625 23.3046875 36 29 36 29 c 1
 42.908203125 29.3837890625 l 0
 51.0537109375 29.4892578125 59.1953125 30.7568359375 66.5615234375 33.6201171875 c 0
 78.404296875 38.2236328125 89.220703125 55.73046875 101.001953125 71.78125 c 0
 325.53515625 377.979492188 l 1
 232.354492188 507.497070312 167.021484375 615.157226562 124.958984375 671.244140625 c 0
 116.551757812 682.453125 110.393554688 693.495117188 102.231445312 697.227539062 c 0
 95.08203125 700.497070312 84.748046875 700.368164062 76.65625 700.47265625 c 0
 70 701 l 1
 70 701 65.3916015625 707.552734375 65.3916015625 716.3046875 c 0
 65.3916015625 724.3046875 70 730 70 730 c 1
 304.98046875 730 l 1
 304.98046875 730 308.391601562 725.056640625 308.391601562 716.3046875 c 0
 308.391601562 708.3046875 305 701 305 701 c 1
 298.338867188 700.907226562 l 0
 290.420898438 700.80078125 280.61328125 700.180664062 273.926757812 697.61328125 c 0
 262.227539062 693.12109375 256.517578125 679.780273438 256.517578125 673 c 0
 256.517578125 667.786132812 259.166015625 658.740234375 268.38671875 645.025390625 c 0
 391.690429688 459.553710938 l 1
 542.420898438 651.278320312 l 1
 553.858398438 666.904296875 561.75390625 676.27734375 561.75390625 683.16796875 c 0
 561.75390625 694.96875 548 700 527.952148438 700.831054688 c 2
 521 701 l 1
 521 701 516.391601562 707.552734375 516.391601562 716.3046875 c 0
 516.391601562 724.3046875 521 730 521 730 c 1
 696.98046875 730 l 1
 696.98046875 730 700.391601562 725.056640625 700.391601562 716.3046875 c 0
 700.391601562 708.3046875 697 701 697 701 c 1
 689.336914062 701.397460938 l 0
 681.189453125 701.291015625 672.046875 700.02734375 664.684570312 697.163085938 c 0
 652.850585938 692.559570312 640.08984375 674.010742188 628.212890625 657.963867188 c 0
 438.836914062 405.666992188 l 1
 449.922851562 390.3671875 l 1
 546.953125 254.180664062 623.478515625 120.629882812 667.741210938 61.6103515625 c 0
 676.146484375 50.4033203125 683.3046875 37.3662109375 691.469726562 34.6298828125 c 0
 698.598632812 32.240234375 710.817382812 29.48828125 718.900390625 29.3837890625 c 0
 724.98046875 29 l 1
 724.98046875 29 728.391601562 24.056640625 728.391601562 15.3046875 c 0
 728.391601562 7.3046875 725 0 725 0 c 1
EndSplineSet
Validated: 1
EndChar

StartChar: d
Encoding: 100 100 10
GlifName: d
Width: 573
VWidth: 0
Flags: W
HStem: -10 43.8711<216.277 360.942> 482 31.166<219.12 333.837> 695.496 25.9609<347.559 379.409> 727.668 20G<473.227 475.621>
VStem: 37.001 100.022<130.885 389.115> 383.408 103.781<55.9295 67.2774 67.2822 441.281 490 694.912>
LayerCount: 2
Fore
SplineSet
523.931640625 57.9853515625 m 1
 528.404296875 21.4716796875 l 1
 498.944200757 8.19862846297 447.71875 -7.3994140625 418.309570312 -7.3994140625 c 0
 396.249023438 -7.3994140625 387.638671875 10.9306640625 384.728515625 24.4404296875 c 1
 350.119140625 2.3955078125 321.841796875 -10 270.903320312 -10 c 0
 139.6171875 -10 37.0009765625 64.349609375 37.0009765625 264.028320312 c 0
 37.0009765625 427.935546875 118.709960938 513.166015625 267.837890625 513.166015625 c 4
 321.849609375 513.166015625 342.999023438 505.953125 383.408203125 490 c 5
 383.408203125 664.149414062 l 2
 383.408203125 685.74609375 372.612304688 695.49609375 354.978515625 695.49609375 c 2
 347.55859375 695.49609375 l 1
 347.55859375 721.45703125 l 1
 469.541992188 747.041015625 l 0
 470.979492188 747.42578125 472.453125 747.66796875 474 747.66796875 c 0
 477.2421875 747.66796875 480.897460938 746.26171875 483.208984375 743.40234375 c 0
 487.469726562 738.134765625 487.25390625 731.629882812 487.28515625 723.424804688 c 0
 487.189453125 67.2822265625 l 1
 487.189453125 67.2822265625 487.467773438 60.7001953125 487.467773438 59.1064453125 c 0
 487.467773438 49.6728515625 l 1
 498.046875 51.91796875 513.627929688 54.923828125 523.931640625 57.9853515625 c 1
383.408203125 69.140625 m 1
 383.408203125 388.743164062 l 1
 369.79296875 449.66015625 337.598632812 482 268.897460938 482 c 0
 187.216796875 482 137.0234375 385.881835938 137.0234375 274.883789062 c 0
 137.0234375 132.408203125 178.676757812 33.87109375 289.037109375 33.87109375 c 0
 320.590820312 33.87109375 347.0703125 44.75390625 383.408203125 69.140625 c 1
EndSplineSet
Validated: 1
EndChar

StartChar: f
Encoding: 102 102 11
GlifName: f
Width: 496
VWidth: 0
Flags: W
HStem: 0 28.7627<70.8809 102.486 215.223 247.004> 452.57 52.084<60.3311 107.104 211.303 340.095> 731.104 35.085<259.523 359.912>
VStem: 107.093 98.124<32.3612 456.249 504.654 665.533>
LayerCount: 2
Fore
SplineSet
334.24609375 766.188476562 m 0
 377.682617188 766.188476562 430.9453125 754.11328125 472.90234375 706.51953125 c 0
 476.373046875 702.583007812 478.67578125 692.002929688 478.67578125 687 c 0
 478.67578125 666.46875 448.478515625 655.073242188 433.040039062 655.073242188 c 0
 369.068359375 655.073242188 387.370117188 731.103515625 315.694335938 731.103515625 c 0
 251.6015625 731.103515625 205.216796875 676.162109375 205.216796875 585.43359375 c 1
 205.71875 504.654296875 l 1
 304.596679688 504.654296875 l 0
 327.313476562 504.654296875 341.928710938 499.587890625 341.928710938 485.530273438 c 0
 341.928710938 478.766053853 336.12890625 457.9140625 333.444335938 452.5703125 c 1
 327.682617188 452.5703125 l 0
 321.415039062 452.5703125 258.076171875 455.99609375 211.302734375 456.385742188 c 1
 210.833007812 53.48046875 l 5
 213.221679688 41.798828125 224.670898438 28.962890625 240.095703125 28.7626953125 c 6
 247.00390625 28.673828125 l 5
 247.00390625 0 l 1
 70.880859375 0 l 1
 70.880859375 28.66796875 l 5
 77.7880859375 28.7568359375 l 6
 93.43359375 28.95703125 104.913085938 42.423828125 107.107421875 53.7568359375 c 5
 107.107421875 456.249023438 l 1
 70.7880859375 455.396484375 67.0341796875 453.260742188 52 451.1015625 c 1
 60.3310546875 500.703125 l 1
 107.104492188 500.703125 l 1
 107.099609375 512.75390625 107.092773438 543.11328125 107.092773438 556 c 0
 107.092773438 704.11328125 189.974265744 766.188476562 334.24609375 766.188476562 c 0
EndSplineSet
Validated: 1
EndChar

StartChar: j
Encoding: 106 106 12
GlifName: j
Width: 262
VWidth: 0
Flags: W
HStem: -153.523 59.9092<-53.2251 71.6092> 453.783 26.2842<68.7646 98.8049> 485.725 20G<191.15 198.845> 601.294 123.452<88.2447 181.591>
VStem: 73.1924 123.451<616.346 709.693> 102.586 103.697<-33.4166 453.398>
LayerCount: 2
Fore
SplineSet
134.91796875 601.293945312 m 4xf8
 100.829101562 601.293945312 73.1923828125 628.930664062 73.1923828125 663.01953125 c 4
 73.1923828125 697.108398438 100.828125 724.74609375 134.91796875 724.74609375 c 4
 169.006835938 724.74609375 196.643554688 697.108398438 196.643554688 663.01953125 c 4
 196.643554688 628.930664062 169.006835938 601.293945312 134.91796875 601.293945312 c 4xf8
192 505.724609375 m 0
 205.689453125 505.724609375 206.344726562 493.1015625 206.3828125 483.030273438 c 2
 206.283203125 93.279296875 l 0
 206.236328125 78.7939453125 206.161132812 64.3193359375 206.161132812 49.869140625 c 0
 206.161132812 -3.158203125 182.400390625 -49.4658203125 139.596679688 -91.70703125 c 0
 111.59765625 -119.99609375 37.771484375 -153.5234375 -42 -153.5234375 c 0
 -64.4501953125 -153.5234375 -87.2626953125 -149.948242188 -111.975585938 -141.634765625 c 0
 -122.600585938 -138.060546875 -128.956054688 -123.887695312 -128.956054688 -115 c 0
 -128.956054688 -86.0107421875 -90.59765625 -69.2392578125 -62 -69.2392578125 c 0
 -26.8046875 -69.2392578125 -3.9033203125 -93.6142578125 23 -93.6142578125 c 0
 31.0927734375 -93.6142578125 39.6826171875 -91.82421875 49.5888671875 -86.7080078125 c 0
 101.294921875 -60.6201171875 102.5859375 -34.2802734375 102.5859375 32.640625 c 0
 102.5859375 422.813476562 l 2xf4
 102.5859375 442.999023438 92.3681640625 453.783203125 75.7646484375 453.783203125 c 2
 68.7646484375 453.783203125 l 1
 68.7646484375 480.067382812 l 1
 187.543945312 505.04296875 l 0
 188.859375 505.4140625 190.30078125 505.724609375 192 505.724609375 c 0
EndSplineSet
Validated: 1
EndChar

StartChar: g
Encoding: 103 103 13
GlifName: g
Width: 524
VWidth: 0
Flags: W
HStem: -242.607 35.6562<165.898 334.483> 417.588 77.4121<403.066 466.931> 458.089 41.9785<189.745 288.794>
VStem: 20.126 100.816<-172.069 -77.2544> 50.7754 98.2656<203.503 411.327> 338.938 94.3916<186.783 401.94> 414.449 75.7051<-144.799 -61.5614>
LayerCount: 2
Fore
SplineSet
245.616210938 -206.951171875 m 4x92
 343.702148438 -206.951171875 414.44921875 -152.543945312 414.44921875 -101.783203125 c 0
 414.44921875 -50.6142578125 344.3671875 -35.09375 263.0546875 -26 c 1
 258.998046875 -25.8583984375 232.913085938 -24.3349609375 229.458007812 -24.091796875 c 1
 133.525390625 -55.7763671875 120.942382812 -82.1953125 120.942382812 -123.130859375 c 0
 120.942382812 -178.01953125 179.715820312 -206.951171875 245.616210938 -206.951171875 c 4x92
149.041015625 318.27734375 m 0xac
 149.041015625 210.25390625 188.436523438 142.907226562 254.3125 142.907226562 c 0
 316.978515625 142.907226562 338.9375 222.668945312 338.9375 296 c 0
 338.9375 392.140625 300.4140625 458.088867188 230.643554688 458.088867188 c 3
 180.854492188 458.088867188 149.041015625 384.315429688 149.041015625 318.27734375 c 0xac
433.329101562 288.172851562 m 0
 433.329101562 106.466796875 306.333984375 102.1328125 185.603515625 66.8349609375 c 0
 181.431640625 65.615234375 174.943359375 60.537109375 174.943359375 56.1103515625 c 0
 174.943359375 49.6767578125 185.943359375 45.69140625 190.627929688 44.9931640625 c 0
 204 43 217.854492188 40.9267578125 228.180664062 39.9267578125 c 1
 318.354492188 30.5283203125 l 2
 417.309570312 21.3359375 490.154296875 13.8310546875 490.154296875 -72.9111328125 c 0
 490.154296875 -186.103515625 360.875976562 -242.607421875 235.28125 -242.607421875 c 0
 129.596679688 -242.607421875 20.1259765625 -224.12890625 20.1259765625 -135.368164062 c 0xd2
 20.1259765625 -59.6240234375 102.888671875 -30.6728515625 172.305664062 -10.9765625 c 1
 148.075195312 -8.6064453125 129.796875 -5.912109375 114.759765625 -2.8603515625 c 0
 86.017578125 2.8134765625 59.78125 15.3935546875 59.78125 41.1318359375 c 0
 59.78125 79.8955078125 137.16796875 101.176757812 182.682617188 113.345703125 c 1
 109.35546875 128.987304688 50.775390625 184.803710938 50.775390625 312.190429688 c 0
 50.775390625 429.479492188 112.877929688 485.88671875 199.621383754 497.923828125 c 0
 213.176458737 499.8203125 227.25759182 500.067382812 240.607223996 500.067382812 c 0xa8
 282.2467459 500.067382812 322.791015625 489.750976562 357.404296875 466.489257812 c 1
 388.926757812 485.61328125 415.327148438 495 454.151367188 495 c 0
 467.814453125 495 478 480.526367188 478 467.69140625 c 0
 478 436.50390625 445.521484375 417.587890625 413.205078125 417.587890625 c 0xc8
 410.495117188 417.587890625 404.329101562 417.884765625 403 418 c 1
 426 380 433.329101562 344.01171875 433.329101562 288.172851562 c 0
EndSplineSet
Validated: 1
EndChar

StartChar: q
Encoding: 113 113 14
GlifName: q
Width: 592
VWidth: 0
Flags: W
HStem: -232 29.4697<373.92 405.668 518.129 549.941> -13.1143 46.126<242.988 383.513> 480.217 31.5898<244.49 350.683>
VStem: 63.9961 100.548<135.474 390.071> 410.046 103.727<-201.235 20.7559 55.0792 412.296>
LayerCount: 2
Fore
SplineSet
164.543945312 274.395507812 m 0
 164.543945312 153.192382812 202.258789062 33.01171875 312.158203125 33.01171875 c 0
 339.51953125 33.01171875 378.02734375 46.3505859375 410.045898438 68.0859375 c 1
 410.1953125 409.908203125 l 0
 410.1953125 411.364257812 409.952148438 412.279296875 409.946289062 412.297851562 c 1
 378.58203125 445.724609375 345.83984375 480.216796875 294.676757812 480.216796875 c 0
 234.645507812 480.216796875 164.543945312 421.654296875 164.543945312 274.395507812 c 0
411.099609375 480 m 1
 493.751953125 508.21875 l 2
 496.831054688 509.123046875 498.984375 509.770507812 501 509.770507812 c 0
 513.668945312 509.770507812 513.869140625 494.7265625 513.869140625 485.615234375 c 0
 513.772460938 -177.32421875 l 1
 516.15234375 -189.255859375 527.452148438 -202.228515625 543.03515625 -202.438476562 c 2
 549.94140625 -202.530273438 l 1
 549.94140625 -232 l 1
 373.919921875 -232 l 1
 373.919921875 -202.530273438 l 1
 381.234375 -202.438476562 l 2
 397.55859375 -202.23046875 407.828125 -188.802734375 410.044921875 -177.016601562 c 1
 410.044921875 20.755859375 l 1
 372.60546875 4.0546875 346.174804688 -13.1142578125 299.327148438 -13.1142578125 c 0
 159.94140625 -13.1142578125 63.99609375 76.931640625 63.99609375 249.760742188 c 0
 63.99609375 438.352243741 139.598632812 511.806640625 293.149414062 511.806640625 c 0
 331.9609375 511.806640625 367.936523438 499.319335938 411.099609375 480 c 1
EndSplineSet
Validated: 1
EndChar

StartChar: p
Encoding: 112 112 15
GlifName: p
Width: 569
VWidth: 0
Flags: W
HStem: -232 28.4697<43 74.2851 187.928 219.111> -9.79688 30.7861<242.393 352.642> 461.2 25.9619<45.4092 75.8198> 468.146 43.917<207.531 364.615>
VStem: 79.2266 103.728<-201.867 15 70.505 444.873> 428.152 101.021<111.501 374.492>
LayerCount: 2
Fore
SplineSet
182.954101562 -178.317382812 m 1xdc
 185.370117188 -190.44140625 197.661132812 -203.233398438 213.77734375 -203.438476562 c 2
 219.111328125 -203.530273438 l 1
 219.111328125 -232 l 1
 43 -232 l 1
 43 -203.530273438 l 1
 49.90625 -203.438476562 l 2
 65.72265625 -203.224609375 77.0322265625 -189.611328125 79.2265625 -178.021484375 c 1
 79.2265625 430.516601562 l 2
 79.2265625 451.505859375 69.2646484375 461.200195312 52.4091796875 461.200195312 c 2
 45.4091796875 461.200195312 l 1
 45.4091796875 487.162109375 l 1xec
 165.307617188 512.74609375 l 0
 167.010742188 513.200195312 169.620117188 513.366210938 171 513.366210938 c 0
 182.767578125 513.366210938 183.01171875 493.946289062 183.048828125 484.129882812 c 0
 183.048828125 484.748046875 183.047851562 485.4140625 183.046875 486 c 1
 216.876953125 499.77734375 243.912109375 512.063476562 293.046875 512.063476562 c 0
 428.123046875 512.063476562 529.172851562 432.14453125 529.172851562 249.924804688 c 0
 529.172851562 64.689453125 454.995117188 -9.796875 295.932617188 -9.796875 c 0
 258.321289062 -9.796875 224.883789062 -4.6015625 182.982421875 15 c 1
 182.954101562 -178.317382812 l 1xdc
284.818359375 468.146484375 m 0xdc
 255.872070312 468.146484375 220.967773438 455.6640625 183.041015625 433.397460938 c 1
 182.997070312 113.895507812 l 1
 196.631835938 64.6025390625 236.729492188 20.9892578125 304.139648438 20.9892578125 c 0
 382.453125 20.9892578125 428.15234375 109.162109375 428.15234375 225.716796875 c 0
 428.15234375 380.362304688 403.609375 468.146484375 284.818359375 468.146484375 c 0xdc
EndSplineSet
Validated: 1
EndChar

StartChar: o
Encoding: 111 111 16
GlifName: o
Width: 547
VWidth: 0
Flags: W
HStem: -10.3389 45.7676<215.43 336.924> 481.658 30.7676<221.729 322.481>
VStem: 34.9424 110.295<131.306 385.022> 402.789 110.292<122.845 372.572>
LayerCount: 2
Fore
SplineSet
278 -10.3388671875 m 0
 137.30859375 -10.3388671875 34.9423828125 62.8125 34.9423828125 253.924804688 c 0
 34.9423828125 439.155273438 127.747070312 512.42578125 268 512.42578125 c 0
 397.145507812 512.42578125 513.081054688 438.779296875 513.081054688 253.849609375 c 0
 513.081054688 57.7431640625 421.943359375 -10.3388671875 278 -10.3388671875 c 0
145.237304688 275.40234375 m 0
 145.237304688 129.356445312 190.274414062 35.4287109375 282.291992188 35.4287109375 c 0
 370.56640625 35.4287109375 402.7890625 158.397460938 402.7890625 235.68359375 c 0
 402.7890625 381.959960938 365.736328125 481.658203125 267.734375 481.658203125 c 0
 192.556640625 481.658203125 145.237304688 386.979492188 145.237304688 275.40234375 c 0
EndSplineSet
Validated: 1
EndChar

StartChar: I
Encoding: 73 73 17
GlifName: I_
Width: 325
VWidth: 0
Flags: W
HStem: 0 29.3838<54 57.8564 232.638 275.006> 700.021 29.5889<54.3916 96.9705 234.705 274.397>
VStem: 107.987 111.928<37.9191 690.375>
LayerCount: 2
Fore
SplineSet
274.397460938 729.609375 m 5
 274.397460938 729.609375 278.391601562 724.056640625 278.391601562 715.3046875 c 4
 278.391601562 707.3046875 274.397460938 700.3046875 274.397460938 700.3046875 c 5
 266.08984375 700.020507812 l 2
 255.296779903 699.651308144 223.412109375 684.2578125 222.772460938 666.740234375 c 0
 220.743164062 572.51953125 219.915039062 487.962890625 219.915039062 393.458007812 c 0
 219.915039062 280.80078125 221.0859375 177.833007812 222.77734375 65.12109375 c 0
 223.463867188 46.5126953125 243 30 267.09375 29.3837890625 c 2
 275.005859375 29.3046875 l 1
 275.005859375 29.3046875 279 23.751953125 279 15 c 0
 279 7 275.005859375 0 275.005859375 0 c 1
 54 0 l 1
 54 0 50 6.248046875 50 15 c 0
 50 23 54 29 54 29 c 1
 57.8564453125 29.3837890625 l 2
 82 31 105.950195312 46.16015625 105.950195312 64.984375 c 0
 107.202148438 178.008789062 107.987304688 280.73828125 107.987304688 393.458007812 c 0
 107.987304688 487.686523438 107.454101562 571.719726562 106.194335938 665.885742188 c 0
 106.194335938 684.045898438 84.9293332816 699.142752363 61.8603515625 700.020507812 c 2
 54.3916015625 700.3046875 l 5
 54.3916015625 700.3046875 50.3916015625 706.552734375 50.3916015625 715.3046875 c 4
 50.3916015625 723.3046875 54.3916015625 729.3046875 54.3916015625 729.3046875 c 5
 274.397460938 729.609375 l 5
EndSplineSet
EndChar

StartChar: y
Encoding: 121 121 18
GlifName: y
Width: 574
VWidth: 0
Flags: W
HStem: 478.334 28.1807<46 72.1738 173.411 203.244 401.229 434.337 524.643 534.852>
LayerCount: 2
Fore
SplineSet
327.26953125 59.275390625 m 0
 311.59375 19.5439453125 289.009016974 -31.015625 276.756325921 -50.484375 c 0
 253.960059757 -87.6337890625 172.93359375 -230.118164062 108 -230.118164062 c 0
 91.2421875 -230.118164062 88.431640625 -200.823242188 88.431640625 -191 c 0
 88.431640625 -182.70703125 89.681640625 -173.9375 92.443359375 -166.548828125 c 0
 113.427734375 -110.404296875 164 -135 202.79296875 -80.1494140625 c 0
 216.224609375 -61.158203125 243.712890625 -5.7900390625 251.224609375 13.826171875 c 1
 248.390625 21.6318359375 242.333007812 43.490234375 241.443359375 45.73046875 c 0
 241.443359375 45.73046875 196.482421875 154.24609375 152.879882812 271.165039062 c 0
 117.034179688 367.283203125 75.97265625 456.586914062 75.2568359375 458.302734375 c 0
 72.259765625 465.041992188 65.5751953125 479.557617188 46 479.557617188 c 1
 46 506.514648438 l 1
 203.244140625 506.514648438 l 1
 203.244140625 478.42578125 l 1
 197.337890625 478.333984375 l 2
 185.924804688 478.15625 173.083984375 469.70703125 173.083984375 462.431640625 c 0
 173.083984375 459.600585938 174.670898438 452.982421875 176.173828125 448.717773438 c 0
 176.173828125 448.717773438 206.080078125 375.416015625 237.083007812 294.42578125 c 0
 261.698242188 230.12109375 290.856445312 164.6875 304.413085938 130.408203125 c 1
 320.74609375 168.169921875 351.334960938 225.991210938 379.6015625 293.577148438 c 0
 411.822265625 370.619140625 434.973632812 431.926757812 435 432 c 0
 436.934570312 437.091796875 439.03125 448.213867188 439.03125 451.51953125 c 0
 439.03125 460.127929688 428.591796875 478.201171875 409.135742188 478.461914062 c 2
 401.228515625 478.553710938 l 1
 401.228515625 506.85546875 l 1
 534.8515625 506.85546875 l 1
 534.8515625 478.928710938 l 1
 524.642578125 478.240234375 l 2
 512.325195312 477.409179688 503.322265625 461.216796875 500 452 c 0
 499.165039062 449.681640625 465.531542444 382.899283215 426.733398438 289.6953125 c 0
 393.369086019 209.544921875 351.185546875 119.895507812 327.26953125 59.275390625 c 0
EndSplineSet
Validated: 1
EndChar

StartChar: v
Encoding: 118 118 19
GlifName: v
Width: 564
VWidth: 0
Flags: W
HStem: -9 21G<267.122 277.843> 482.199 24.6562<49 71.2251 183.802 210.057 403.694 430.332 498.261 522.851>
LayerCount: 2
Fore
SplineSet
403.694335938 506.627929688 m 1
 522.850585938 506.627929688 l 1
 522.850585938 482 l 1
 515.966796875 482 l 2
 500.915039062 481.418945312 495.737304688 465.209960938 491 455 c 0
 489.8671875 452.0546875 465.74609375 404.94140625 425.7265625 310.036132812 c 0
 369.216796875 176.024414062 302.063476562 13.75390625 296.637695312 3.8037109375 c 0
 292.529296875 -3.7333984375 283.487304688 -9 272.19921875 -9 c 0
 262.044921875 -9 252.602539062 -4.6298828125 248.561523438 4.240234375 c 0
 243.393554688 15.599609375 237.40234375 29.994140625 233.512695312 40.294921875 c 1
 233.5 40.3291015625 186.625 171.684570312 142.879882812 291.984375 c 0
 107.171875 390.182617188 80.1142578125 450.709960938 80 451 c 0
 73.962890625 465.643554688 69.798828125 482.19921875 49 482.19921875 c 1
 49 506.85546875 l 1
 210.056640625 506.85546875 l 1
 210.056640625 482 l 1
 202.72265625 482 l 2
 186.685546875 482 181.541992188 467.692382812 181.541992188 460.1015625 c 0
 181.541992188 456.650390625 182.811523438 451.313476562 185 446 c 0
 185.026367188 445.935546875 196.85546875 401.701171875 227.466796875 320.702148438 c 0
 251.951171875 255.9140625 281.686523438 162.868164062 295.228515625 127.256835938 c 1
 312.004882812 164.919921875 351.661132812 262.038085938 380.29296875 329.853515625 c 0
 412.802734375 406.854492188 432.9609375 448.88671875 433 449 c 0
 433.979492188 451.82421875 434.452148438 454.403320312 434.452148438 456.729492188 c 0
 434.452148438 466.689453125 425.77734375 482 411.029296875 482 c 2
 403.694335938 482 l 1
 403.694335938 506.627929688 l 1
EndSplineSet
Validated: 1
EndChar

StartChar: u
Encoding: 117 117 20
GlifName: u
Width: 590
VWidth: 0
Flags: W
HStem: -10 45.3203<212.652 362.965> 457.444 25.5303<40 67.8759 366.711 393.689> 488.746 20G<153.204 160.326 480.307 487.316>
VStem: 73.7461 93.7949<81.7544 456.44> 399.656 94.0967<65.0613 457.043>
LayerCount: 2
Fore
SplineSet
530.180664062 58.919921875 m 1
 536.659179688 20.6796875 l 1
 506.0078125 7.318359375 463.0234375 -7.88671875 433.12890625 -7.88671875 c 0
 402.568359375 -7.88671875 399.978515625 13.021484375 399.690429688 23.3603515625 c 1
 353.588867188 -5.9443359375 321.377929688 -10 257.453125 -10 c 0
 170.715820312 -10 73.74609375 30.138671875 73.74609375 140.537109375 c 0
 73.8203125 422.057617188 l 2
 73.8203125 442.185546875 63.5810546875 456.958007812 47 456.958007812 c 2
 40 456.958007812 l 1
 40 482.37890625 l 1
 150.076171875 508.219726562 l 0
 151.154296875 508.477539062 152.407226562 508.74609375 154 508.74609375 c 0
 166.651367188 508.74609375 167.642578125 495.735351562 167.642578125 485.25390625 c 0
 167.541015625 156.024414062 l 4
 167.541015625 89.955078125 207.133789062 35.3203125 282.220703125 35.3203125 c 0
 319.069335938 35.3203125 357.081054688 50.283203125 399.65625 78.3720703125 c 1
 400.556640625 421.62109375 l 2
 400.55078125 441.86328125 388.243164062 457.444335938 374.129882812 457.444335938 c 2
 366.7109375 457.444335938 l 1
 366.7109375 482.974609375 l 1
 477.52734375 509.28125 l 0
 478.499023438 509.471679688 479.614257812 509.666015625 481 509.666015625 c 0
 493.6328125 509.666015625 493.813476562 496.971679688 493.813476562 486.193359375 c 0
 493.752929688 50.6181640625 l 1
 505.178710938 52.8701171875 519.380859375 55.814453125 530.180664062 58.919921875 c 1
EndSplineSet
Validated: 1
EndChar

StartChar: n
Encoding: 110 110 21
GlifName: n
Width: 588
VWidth: 0
Flags: W
HStem: 0 28.5977<52 83.6046 195.642 228.077 378.32 409.861 511.943 543.441> 461.516 26.0195<54.4092 84.8098> 477.017 35.3193<221.764 358.996>
VStem: 88.2285 103.682<29.8882 455.024> 414.704 92.7275<29.912 424.809>
LayerCount: 2
Fore
SplineSet
191.91015625 51.3642578125 m 1xb8
 194.303710938 39.7275390625 205.771484375 28.8984375 221.170898438 28.69921875 c 2
 228.077148438 28.609375 l 1
 228.077148438 0 l 1
 52 0 l 1
 52 28.59765625 l 1
 58.90625 28.6875 l 2
 74.5439453125 28.890625 86.033203125 42.341796875 88.228515625 53.662109375 c 1
 88.228515625 431.091796875 l 2
 88.228515625 451.943359375 78.2158203125 461.515625 61.4091796875 461.515625 c 2
 54.4091796875 461.515625 l 1
 54.4091796875 487.53515625 l 1xd8
 173.331054688 513.081054688 l 0
 173.829101562 513.208007812 175.845703125 514 179 514 c 0
 189.983398438 514 192.001953125 503.516601562 192.001953125 489.446289062 c 0
 192.001953125 483.801757812 192 483.819335938 191.998046875 478.392578125 c 1
 231.577148438 504.037109375 259.52734375 512.3359375 317.740234375 512.3359375 c 0
 405.374023438 512.3359375 507.499023438 459.078125 507.499023438 349.12890625 c 0
 507.431640625 52.75 l 1
 509.993164062 41.75390625 521.537109375 28.962890625 536.53515625 28.7685546875 c 2
 543.44140625 28.6787109375 l 1
 543.44140625 0 l 1
 378.3203125 0 l 1
 378.3203125 28.609375 l 1
 385.2265625 28.69921875 l 2
 401.3984375 28.9091796875 412.646484375 42.322265625 414.704101562 54.583984375 c 1
 414.704101562 358.345703125 l 0
 414.704101562 424.395507812 363.565429688 477.016601562 296.399414062 477.016601562 c 0
 262.225585938 477.016601562 231.084960938 468.833007812 191.990234375 441.680664062 c 1
 191.91015625 51.3642578125 l 1xb8
EndSplineSet
Validated: 1
EndChar

StartChar: b
Encoding: 98 98 22
GlifName: b
Width: 579
VWidth: 0
Flags: W
HStem: -3.78906 28.8643<51 81.0079 254.603 344.041> 468.08 43.9219<209.643 360.883> 695.34 25.9609<53.4092 83.541> 727.506 20G<177.311 184.384>
VStem: 87.2266 103.787<76.0359 449.832 478.947 694.979> 437.152 100.021<113.681 371.506>
LayerCount: 2
Fore
SplineSet
191.048828125 721.268554688 m 0
 191.013671875 478.947265625 l 1
 224.85546875 499.849609375 241.894487225 512.001953125 291.046748305 512.001953125 c 0
 429.333984375 512.001953125 537.172851562 430.873046875 537.172851562 244.9453125 c 0
 537.172851562 57.814453125 445.450195312 -10.15625 289.685152482 -10.15625 c 0
 249.07475339 -10.15625 222.140625 -2.5205078125 180.078125 21.0859375 c 1
 158.944335938 1.98046875 114.23828125 -3.7890625 58 -3.7890625 c 0
 51 -3.7890625 l 1
 51 25.0751953125 l 1
 57.9072265625 25.1650390625 l 2
 73.5947265625 25.3681640625 85.0244140625 38.8720703125 87.2265625 50.265625 c 1
 87.2265625 663.993164062 l 2
 87.2265625 685.34765625 77.392578125 695.33984375 60.4091796875 695.33984375 c 2
 53.4091796875 695.33984375 l 1
 53.4091796875 721.30078125 l 1
 173.307617188 746.885742188 l 0
 175.01171875 747.33984375 176.62109375 747.505859375 178 747.505859375 c 0
 190.767578125 747.505859375 191.01171875 731.0859375 191.048828125 721.268554688 c 0
191.0078125 436.318359375 m 1
 190.961914062 125.934570312 l 1
 206.588867188 67.59375 236.68359375 30.927734375 301.139648438 30.927734375 c 4
 389.453125 30.927734375 437.15234375 117.1015625 437.15234375 228.655273438 c 4
 437.15234375 370.973632812 396.569335938 468.080078125 283.756835938 468.080078125 c 4
 253.067382812 468.080078125 220.500976562 458.389648438 191.0078125 436.318359375 c 1
EndSplineSet
Validated: 1
EndChar

StartChar: h
Encoding: 104 104 23
GlifName: h
Width: 584
VWidth: 0
Flags: W
HStem: 0 28.6963<51 82.4434 195.651 227.342 376.862 408.547 511.622 543.001> 467.364 44.5703<213.384 356.594> 693.56 25.9609<53.498 83.6321> 725.729 20G<177.277 184.375>
VStem: 87.3184 103.722<30.1608 445.504 478.479 693.199> 413.131 93.7275<29.9212 412.342>
LayerCount: 2
Fore
SplineSet
191.040039062 54.0869140625 m 1
 193.244140625 41.787109375 204.631835938 28.9013671875 220.434570312 28.6962890625 c 2
 227.341796875 28.6083984375 l 1
 227.341796875 0 l 1
 51 0 l 1
 51 28.8583984375 l 1
 57.9072265625 28.9482421875 l 2
 73.8857421875 29.15234375 85.24609375 42.71484375 87.318359375 54.55859375 c 1
 87.318359375 662.212890625 l 2
 87.318359375 683.565429688 77.482421875 693.559570312 60.498046875 693.559570312 c 2
 53.498046875 693.559570312 l 1
 53.498046875 719.520507812 l 1
 173.397460938 745.10546875 l 0
 174.999023438 745.532226562 176.553710938 745.728515625 178 745.728515625 c 0
 190.749023438 745.728515625 191.100585938 727.454101562 191.138671875 717.48828125 c 0
 191.103515625 478.478515625 l 1
 229.668945312 502.579101562 245.791015625 511.934570312 306.1640625 511.934570312 c 0
 393.80078125 511.934570312 506.92578125 458.676757812 506.92578125 348.729492188 c 0
 506.858398438 53.34765625 l 1
 509.28125 41.8037109375 520.748046875 28.966796875 536.09375 28.7705078125 c 2
 543.000976562 28.681640625 l 1
 543.000976562 0 l 1
 376.862304688 0 l 1
 376.862304688 28.6083984375 l 1
 383.76953125 28.6962890625 l 2
 399.533203125 28.900390625 410.989257812 42.375 413.130859375 53.892578125 c 1
 413.130859375 347.8984375 l 0
 413.130859375 413.997070312 353.48828125 467.364257812 286.2890625 467.364257812 c 0
 247.399414062 467.364257812 235.073242188 459.375 191.096679688 432.139648438 c 1
 191.040039062 54.0869140625 l 1
EndSplineSet
Validated: 1
EndChar

StartChar: t
Encoding: 116 116 24
GlifName: t
Width: 380
VWidth: 0
Flags: W
HStem: -10.1855 40.3867<241.064 316.237> 467.534 42.2412<222.766 340.154>
VStem: 119.079 103.631<45.8868 467.356>
LayerCount: 2
Fore
SplineSet
314.120117188 35.2939453125 m 1
 321.470703125 1.6904296875 l 1
 301.877929688 -4.685546875 289.78515625 -10.185546875 269 -10.185546875 c 0
 229.3515625 -10.185546875 176.548828125 -0.42578125 152.071289062 24.0498046875 c 0
 121.166992188 54.9521484375 119.274414062 111.658203125 119.079101562 168.751953125 c 1
 119.0546875 266.174804688 118.96484375 357.619140625 118.940429688 453.131835938 c 0
 118.9375 468.5859375 114.327148438 471.9453125 105.241210938 473.78515625 c 0
 101.444335938 474.553710938 62.64453125 474.884765625 55.5458984375 476.159179688 c 0
 50.453125 477.073242188 46.0322265625 480.041992188 46.0322265625 490 c 0
 46.0322265625 496.313476562 59.7623118731 503.390760473 76 513 c 0
 117.3984375 537.499023438 130.250976562 545.137695312 165.7109375 577.012695312 c 0
 170.116210938 580.97265625 183.157226562 591.791015625 196 591.791015625 c 0
 211.192382812 591.791015625 222.775390625 578.823242188 222.775390625 563.875976562 c 0
 222.775390625 545.518554688 222.767578125 528.067382812 222.765625 509.775390625 c 1
 260.140625 510.083984375 298.079101562 510.66796875 310 510.66796875 c 0
 328.87890625 510.66796875 340.186523438 501.2890625 340.186523438 488 c 0
 340.186523438 482.48046875 336.032226562 470.474609375 333.577148438 466.6015625 c 1
 327 466.6015625 l 0
 318.803710938 466.6015625 277.081054688 467.534179688 237 467.534179688 c 0
 232.168945312 467.534179688 227.1640625 467.517578125 222.758789062 467.4921875 c 1
 222.75 413.466796875 222.71875 349.849609375 222.709960938 295.983398438 c 0
 222.709960938 163.771484375 l 0
 222.709960938 138.76171875 223.4296875 89.107421875 228.711914062 73.4365234375 c 0
 239.350585938 41.875 259.408203125 30.201171875 286 30.201171875 c 0
 294.25 30.201171875 305.436523438 32.814453125 314.120117188 35.2939453125 c 1
EndSplineSet
Validated: 1
EndChar

StartChar: z
Encoding: 122 122 25
GlifName: z
Width: 563
VWidth: 0
Flags: W
HStem: -0.420898 75.2393<176.129 470.523> 440.105 61.4209<115.509 124.317 124.366 400.795>
VStem: 88.29 25.2578<423.396 436.605>
LayerCount: 2
Fore
SplineSet
268.954683187 501.526367188 m 0
 358.822978704 501.526367188 489.904218174 504.078125 491.091796875 504.078125 c 3
 502.364257855 504.078125 506.434570312 495.0703125 506.434570312 488.69921875 c 0
 506.434570312 485.375976562 504.317382812 475.751953125 500.8125 471.73046875 c 0
 495.065429688 465.138671875 401.646484375 348.400390625 319.337890625 249.955078125 c 4
 255.337890625 173.54296875 201.870117188 106.635742188 176.12890625 75.5205078125 c 1
 206.045898438 75.0458984375 236.059570312 74.818359375 278.981445312 74.818359375 c 0
 347.787109375 74.818359375 409.102539062 75.4521484375 456.216796875 76.6826171875 c 0
 461.301757812 76.814453125 461.646484375 76.1513671875 464.860351562 80.453125 c 0
 467.251953125 83.654296875 470.525390625 90.513671875 470.525390625 90.513671875 c 1
 474.021484375 99.818359375 l 1
 498.544921875 88.93359375 l 1
 476.356445312 0.0107421875 l 1
 276.171901347 -0.4208984375 l 1
 68.4462890625 -1.0771484375 l 2
 55.8984375 -1.0771484375 51 11.44140625 51 18.1982421875 c 3
 51 24.2216796875 57.1650390625 35.1357421875 62.0400390625 40.4619140625 c 0
 102.014648438 84.1337890625 190.237304688 188.120117188 267.638671875 277.1015625 c 0
 330.952148438 349.887695312 375.657226562 407.381835938 400.794921875 440.004882812 c 1
 385.573242188 440.08203125 371.799804688 440.10546875 354.704101562 440.10546875 c 0
 257.383789062 440.10546875 154.244140625 439.046875 133.517578125 439.046875 c 0
 119.96484375 438.930664062 116.994140625 420.044921875 113.547851562 413.811523438 c 1
 88.2900390625 427.071289062 l 1
 109.2890625 503.048828125 l 1
 124.317382812 502.96484375 l 1
 124.317382812 502.96484375 191.533141383 501.526367188 268.954683187 501.526367188 c 0
EndSplineSet
Validated: 1
EndChar

StartChar: l
Encoding: 108 108 26
GlifName: l
Width: 285
VWidth: 0
Flags: W
HStem: 0 28.8799<50 81.6128 194.682 226.123> 716.916 25.9609<52.4092 82.541>
VStem: 86.2266 103.728<30.1742 716.556>
LayerCount: 2
Fore
SplineSet
189.954101562 53.8564453125 m 1
 192.341796875 42.0966796875 203.740234375 29.2158203125 219.215820312 29.015625 c 2
 226.123046875 28.92578125 l 1
 226.123046875 0 l 1
 50 0 l 1
 50 28.8798828125 l 1
 56.9072265625 28.9697265625 l 2
 72.6025390625 29.169921875 84.0263671875 42.6796875 86.2265625 54.076171875 c 1
 86.2265625 685.5703125 l 2
 86.2265625 706.927734375 76.392578125 716.916015625 59.4091796875 716.916015625 c 2
 52.4091796875 716.916015625 l 1
 52.4091796875 742.876953125 l 1
 172.307617188 768.4609375 l 0
 174.010742188 768.915039062 175.620117188 769.081054688 177 769.081054688 c 0
 189.767578125 769.081054688 190.01171875 751.661132812 190.048828125 741.84375 c 0
 189.954101562 53.8564453125 l 1
EndSplineSet
Validated: 1
EndChar

StartChar: r
Encoding: 114 114 27
GlifName: r
Width: 425
VWidth: 0
Flags: W
HStem: 0 28.6387<54 85.2525 198.93 229.856> 434.11 67.2725<241.392 360.222> 460.604 25.1934<56.4092 87.3473>
VStem: 90.2285 103.79<30.0191 410.716 446.984 460.319>
LayerCount: 2
Fore
SplineSet
324.620117188 501.3828125 m 3xd0
 342.583984375 501.3828125 398.862304688 491.35546875 398.862304688 462.881835938 c 0
 398.862304688 430.756835938 364.213867188 411.288085938 339.485351562 411.288085938 c 0
 313.131835938 411.288085938 287.345703125 434.110351562 267.16015625 434.110351562 c 0xd0
 233.141601562 434.110351562 203.48046875 402.541992188 194.00390625 382.146484375 c 1
 193.932617188 53.2783203125 l 1
 196.409179688 42.2470703125 209.073242188 28.7783203125 221.783203125 28.638671875 c 2
 229.856445312 28.5498046875 l 1
 229.856445312 0 l 1
 54 0 l 1
 54 28.6865234375 l 1
 60.9072265625 28.775390625 l 2
 76.5634765625 28.9755859375 88.03515625 42.443359375 90.228515625 53.7919921875 c 1
 90.228515625 432.708984375 l 2
 90.228515625 452.83203125 79.9873046875 460.603515625 63.4091796875 460.603515625 c 2
 56.4091796875 460.603515625 l 1
 56.4091796875 485.796875 l 1xb0
 176.1875 512.67578125 l 0
 177.909179688 513.162109375 179.555664062 513.353515625 181 513.353515625 c 0
 193.767578125 513.353515625 194.02734375 498.857421875 194.02734375 489.084960938 c 0
 194.018554688 446.984375 l 1
 228.836914062 477.384765625 274.90234375 501.3828125 324.620117188 501.3828125 c 3xd0
EndSplineSet
Validated: 1
EndChar

StartChar: k
Encoding: 107 107 28
GlifName: k
Width: 561
VWidth: 0
Flags: W
HStem: 0 29<51 82.9008 195.578 227 380 404.952 501.633 534> 286 53<191.11 235.589> 477 29.5146<351.534 375.595 454.25 502> 704 15.3994<53 79.9645> 725.612 20G<175.748 184.03>
VStem: 87 104<30.103 285.996 339.476 703.652>
LayerCount: 2
Fore
SplineSet
191 722 m 0
 191 359.862304688 l 2
 191.767578125 344.038085938 208.244140625 339 218 339 c 0
 226.452148438 339 235.849609375 336.592773438 314.700195312 392.020507812 c 1
 371.340820312 432.2578125 375.620117188 451.010742188 375.620117188 461.697265625 c 3
 375.620117188 472.391601562 367.021484375 477 357.151367188 477 c 2
 351.534179688 477 l 1
 351.534179688 506.514648438 l 1
 502 506.514648438 l 1
 502 477 l 1
 495 477 l 0
 476.708984375 477 458.840820312 465.701171875 449.130859375 458.991210938 c 0
 410.360351562 432.19921875 383.771484375 393.188476562 280.807617188 322.50390625 c 1
 286.002929688 309.544921875 307.493772111 286.864257812 374.089039161 208.611328125 c 1
 446.600585938 117.443359375 472.53125 85.7177734375 486.599609375 66.3681640625 c 0
 502.1875 44.9287109375 504.114257812 29 527 29 c 2
 534 29 l 1
 534 0 l 1
 380 0 l 1
 380 29 l 1
 387 29 l 2
 395.229492188 29 406 38.134765625 406 49 c 4
 406 78.0859375 237.422851562 286 205 286 c 0
 200.990234375 286 193.262695312 280.358398438 191 279.315429688 c 1
 191 53.41796875 l 1
 194.05078125 42.33984375 204.318359375 29 220 29 c 2
 227 29 l 1
 227 0 l 1
 51 0 l 1
 51 29 l 1
 58 29 l 2
 74.74609375 29 85.31640625 43.171875 87 54.0673828125 c 1
 87 670 l 2
 87 694.494140625 78.3701171875 704 60 704 c 2
 53 704 l 1
 53 719.399414062 l 1
 162.081054688 742.733398438 l 1
 165.626953125 743.82421875 173.495117188 745.612304688 178 745.612304688 c 0
 190.059570312 745.612304688 191 734.622070312 191 722 c 0
EndSplineSet
Validated: 33
EndChar

StartChar: e
Encoding: 101 101 29
GlifName: e
Width: 546
VWidth: 0
Flags: W
HStem: -10.7041 50.1553<234.811 413.149> 302.634 54.9072<168.44 398.795> 479.908 31.7734<236.53 342.51>
VStem: 50.9697 108.698<127.682 340.351>
LayerCount: 2
Fore
SplineSet
501.5625 301.552734375 m 1
 164.734375 302.633789062 l 1
 160.7421875 285.72265625 159.66796875 243.354492188 159.66796875 220.795898438 c 4
 159.66796875 141.791992188 196.747070312 39.451171875 317.584960938 39.451171875 c 0
 364.436523438 39.451171875 426.595703125 56.7529296875 476.427734375 101.305664062 c 1
 495.692382812 75.9365234375 l 1
 442.30859375 15.830078125 390.025390625 -10.7041015625 305.416992188 -10.7041015625 c 0
 163.186523438 -10.7041015625 50.9697265625 63.8994140625 50.9697265625 249.025390625 c 0
 50.9697265625 430.750976562 146.015625 511.681640625 298.467773438 511.681640625 c 0
 419.500976562 511.681640625 502.477539062 415.131835938 502.477539062 318.471679688 c 0
 502.477539062 311.51171875 502.016601562 308.26171875 501.5625 301.552734375 c 1
292.680664062 479.908203125 m 0
 214.543945312 479.908203125 172.934570312 407.553710938 166.829101562 364.622070312 c 1
 201.407226562 360.982421875 222.389648438 357.541015625 283.875 357.541015625 c 0
 316.442382812 357.541015625 370.196289062 358.75 398.794921875 360.7109375 c 1
 394.1484375 419.439453125 352.889648438 479.908203125 292.680664062 479.908203125 c 0
EndSplineSet
Validated: 1
EndChar

StartChar: c
Encoding: 99 99 30
GlifName: c
Width: 539
VWidth: 0
Flags: W
HStem: -10 50<255.502 415.175> 483.075 29.7822<245.562 337.857>
VStem: 53.002 112.055<157.655 385.409>
LayerCount: 2
Fore
SplineSet
478.546875 101.926757812 m 1
 499.797851562 76.580078125 l 1
 440.96484375 19.06640625 399.288085938 -10 298.654296875 -10 c 0
 171.303710938 -10 53.001953125 61.6201171875 53.001953125 265.7109375 c 0
 53.001953125 359.693359375 80.8701171875 512.857421875 304.243164062 512.857421875 c 0
 364.069335938 512.857421875 427.497070312 494.875 485.001953125 429.65625 c 0
 488.63671875 425.532226562 491.5234375 420.7109375 491.5234375 415 c 0
 491.5234375 392.041992188 457.751953125 372.485351562 439 372.485351562 c 0
 361.715820312 372.485351562 381.008789062 483.075195312 293.03125 483.075195312 c 0
 218.911132812 483.075195312 165.056640625 393.786132812 165.056640625 278.515625 c 0
 165.056640625 187.3203125 205.889648438 40 325 40 c 0
 378.58984375 40 424.043945312 56.6240234375 478.546875 101.926757812 c 1
EndSplineSet
Validated: 1
EndChar

StartChar: a
Encoding: 97 97 31
GlifName: a
Width: 553
VWidth: 0
Flags: W
HStem: -10 51.042<178.203 316.7> 262.732 54.0234<297.838 359.028> 470.978 40.8223<220.95 327.298>
VStem: 50.8691 105.47<62.1811 170.701> 359.028 103.942<65.422 262.732> 369.148 93.8223<311.268 428.057>
LayerCount: 2
Fore
SplineSet
499.56640625 58.171875 m 1xf4
 502.754882812 20.90625 l 1
 472.377929688 7.666015625 422.05859375 -6.6083984375 392.348632812 -6.6083984375 c 0
 363.297851562 -6.6083984375 359.349609375 22.75390625 358.924804688 32.5 c 1
 304.120117188 2.7119140625 269.845921767 -10 208.068404626 -10 c 0
 127.280273438 -10 50.869140625 10.521484375 50.869140625 110.493164062 c 0
 50.869140625 220.020507812 238.114257812 278.721679688 369.1484375 316.755859375 c 1
 368.716796875 340.688476562 368.116210938 376.520507812 364.375976562 389.978515625 c 0
 348.088867188 444.875976562 320.2109375 470.977539062 265.133789062 470.977539062 c 0
 201.400390625 470.977539062 198.830078125 379.975585938 127 379.975585938 c 0
 107.567382812 379.975585938 82.7119140625 392.293945312 82.7119140625 415 c 0
 82.7119140625 420.852539062 85.8828125 430.390625 89.1865234375 434.13671875 c 0
 145.873046875 498.416992188 209.75390625 511.799804688 268.344726562 511.799804688 c 0
 417.546875 511.799804688 462.970703125 417.487304688 462.970703125 363.698242188 c 0
 462.970703125 49.8203125 l 1
 474.458007812 52.083984375 488.712890625 55.0498046875 499.56640625 58.171875 c 1xf4
253.4296875 41.0419921875 m 0
 305.909179688 41.0419921875 327.189453125 56.3662109375 359.028320312 81.2919921875 c 1
 359.028320312 262.732421875 l 1xf8
 242.475585938 226.025390625 156.338867188 191.32421875 156.338867188 121 c 0
 156.338867188 63.9248046875 190.458007812 41.0419921875 253.4296875 41.0419921875 c 0
EndSplineSet
Validated: 1
EndChar

StartChar: i
Encoding: 105 105 32
GlifName: i
Width: 285
VWidth: 0
Flags: W
HStem: 0 28.7695<57 88.6086 201.325 233.101> 456.613 26.1875<59.4092 90.0581> 489.353 20G<183.28 190.384> 601.294 123.452<85.2447 178.591>
VStem: 70.1924 123.451<616.346 709.693> 93.2285 103.704<29.9694 456.295>
LayerCount: 2
Fore
SplineSet
131.91796875 601.293945312 m 4xf8
 97.8291015625 601.293945312 70.1923828125 628.930664062 70.1923828125 663.01953125 c 4
 70.1923828125 697.108398438 97.828125 724.74609375 131.91796875 724.74609375 c 4
 166.006835938 724.74609375 193.643554688 697.108398438 193.643554688 663.01953125 c 4
 193.643554688 628.930664062 166.006835938 601.293945312 131.91796875 601.293945312 c 4xf8
196.932617188 53.4765625 m 1xf4
 199.32421875 41.806640625 210.776367188 28.966796875 226.193359375 28.76953125 c 2
 233.100585938 28.6806640625 l 1
 233.100585938 0 l 1
 57 0 l 1
 57 28.6796875 l 1
 63.9072265625 28.7685546875 l 2
 79.5615234375 28.96875 91.0341796875 42.4365234375 93.228515625 53.78125 c 1
 93.228515625 427.723632812 l 2
 93.228515625 447.84375 82.9853515625 456.61328125 66.4091796875 456.61328125 c 2
 59.4091796875 456.61328125 l 1
 59.4091796875 482.80078125 l 1
 179.1875 508.674804688 l 0
 180.912109375 509.162109375 182.559570312 509.352539062 184 509.352539062 c 0
 196.767578125 509.352539062 196.989257812 495.244140625 197.02734375 485.733398438 c 0
 196.932617188 53.4765625 l 1xf4
EndSplineSet
Validated: 1
EndChar

StartChar: period
Encoding: 46 46 33
GlifName: period
Width: 228
VWidth: 0
Flags: W
HStem: -17.7061 123.452<65.2447 158.591>
VStem: 50.1924 123.451<-2.6537 90.6933>
LayerCount: 2
Fore
SplineSet
111.91796875 -17.7060546875 m 4
 77.8291015625 -17.7060546875 50.1923828125 9.9306640625 50.1923828125 44.01953125 c 4
 50.1923828125 78.1083984375 77.828125 105.74609375 111.91796875 105.74609375 c 4
 146.006835938 105.74609375 173.643554688 78.1083984375 173.643554688 44.01953125 c 4
 173.643554688 9.9306640625 146.006835938 -17.7060546875 111.91796875 -17.7060546875 c 4
EndSplineSet
EndChar

StartChar: comma
Encoding: 44 44 34
GlifName: comma
Width: 240
VWidth: 0
Flags: W
HStem: -86 26<60.5554 91.3321>
VStem: 104 81<-42.9752 63.0206>
LayerCount: 2
Fore
SplineSet
63 38 m 0
 63 70.3834678888 93.3652791508 98 126 98 c 0
 159.975893594 98 185 69.8839748223 185 41 c 0
 185 -36.4510292327 143.376720946 -86 86 -86 c 4
 70.1475285938 -86 63.1095050172 -81.8577478755 60.4264409851 -80.5685879801 c 1
 45 -60 l 1
 66.9080227723 -60 104 -53.0129764714 104 -27 c 0
 104 -23.5962313256 102.39844251 -20.2979374466 98.1209487849 -16.0204437216 c 1
 82.0252775643 -0.818976457578 63 6.41483525015 63 38 c 0
EndSplineSet
Validated: 1
EndChar

StartChar: D
Encoding: 68 68 35
GlifName: D_
Width: 804
VWidth: 0
Flags: W
HStem: 0 43.4834<222.779 438.904> 0 29<54 99.5813> 681.57 48.6074<223.567 440.946> 701 29<54 99.5572>
VStem: 108.938 114.629<66.708 681.408> 615.35 121.65<222.831 496.853>
LayerCount: 2
Fore
SplineSet
54 701 m 1x5c
 54 701 50 706.248046875 50 715 c 0
 50 723 54 730 54 730 c 1x5c
 102.389985661 730.334960938 166.263671875 730.177734375 217.8671875 730.177734375 c 0x2c
 274.219726562 730.546875 303.883060892 731.009765625 357.812268618 731.009765625 c 0
 559.203507702 731.009765625 737 606.153320312 737 362.813476562 c 0
 737 123.630859375 578.927163229 -2.5302734375 344.912580418 -2.5302734375 c 0
 301.483207 -2.5302734375 260 0 202.915039062 0 c 2
 54 0 l 1
 54 0 50 6.248046875 50 15 c 0
 50 23 54 29 54 29 c 1
 60.7275390625 29.3837890625 l 0
 68.673828125 29.48828125 76.3544921875 30.1689453125 83.8017578125 31.6494140625 c 0
 99.9970703125 34.869140625 106.061523438 55.3447265625 106.061523438 63.76953125 c 1
 107.736328125 181.307617188 108.938476562 285.30859375 108.938476562 401.306640625 c 0
 108.938476562 493.317382812 108.129882812 573.538085938 106.064453125 666.516601562 c 1
 106.064453125 674.806640625 99.9345703125 695.5546875 83.8056640625 698.756835938 c 0
 74.1552734375 700.673828125 64.6826171875 700.970703125 54 701 c 1x5c
223.567382812 675.107421875 m 4
 223.567382812 662.106445312 l 6
 223.567382812 456.961914062 222.53515625 66.7109375 222.53515625 66.7080078125 c 5
 222.53515625 66.7080078125 225.12890625 44.173828125 233.08203125 43.4833984375 c 4
 270.28125 43.5703125 283.741210938 44.158203125 320.889648438 44.158203125 c 4
 536.525390625 44.158203125 615.349609375 192.4609375 615.349609375 352.927734375 c 4
 615.349609375 612.8359375 467.200195312 681.540039062 317.236328125 681.540039062 c 4
 306.963867188 681.540039062 284.831054688 682.017578125 265.256835938 682.017578125 c 4
 255.040039062 682.017578125 229.053710938 681.571289062 228.814453125 681.5703125 c 5xac
 224.53125 681.509765625 223.567382812 677.698242188 223.567382812 675.107421875 c 4
EndSplineSet
Validated: 33
EndChar

StartChar: N
Encoding: 78 78 36
GlifName: N_
Width: 841
VWidth: 0
Flags: W
HStem: -8.99023 21G<709.254 720.325> 0 28.9463<44 50.9062 184.652 226.397> 702.016 27.9844<45 85.1079 609 616.299 749.984 791>
VStem: 96.2402 75.5918<36.5294 607.279> 662.066 76.9336<170.81 693.706>
LayerCount: 2
Fore
SplineSet
44 0 m 1x78
 44 0 39.3916015625 6.552734375 39.3916015625 15.3046875 c 0
 39.3916015625 23.3046875 44 29 44 29 c 1
 50.90625 29.3837890625 l 2
 76 31 96.240234375 46.2265625 96.240234375 66.455078125 c 2
 97.873046875 398.75 l 1
 96.2578125 663.939453125 l 2
 95.9951171875 683.90625 76 702 50.9091796875 702.022460938 c 2
 45 702 l 1
 45 702 40.3916015625 707.552734375 40.3916015625 716.3046875 c 0
 40.3916015625 724.3046875 45 730 45 730 c 1
 188.1328125 730 l 1
 662.06640625 170.809570312 l 1
 662.06640625 340.893554688 661.750976562 492.719726562 661.750976562 665.008789062 c 0
 661.750976562 683.828125 636.948267582 699.935851792 616.298828125 701.4609375 c 2
 609 702 l 1
 609 702 604.391601562 707.552734375 604.391601562 716.3046875 c 0
 604.391601562 724.3046875 609 730 609 730 c 1
 791 730 l 1
 791 730 794.391601562 725.056640625 794.391601562 716.3046875 c 0
 794.391601562 708.3046875 791 702 791 702 c 1
 783.979492188 702.015625 l 2
 761 702 739.54296875 684.438476562 738.361328125 666.905273438 c 0
 736.4765625 574.365234375 735.751953125 492.911132812 735.751953125 400.250976562 c 0
 735.751953125 269.145507812 737.233398438 144.0625 739 12.748046875 c 1
 739 -0.271484375 726.650390625 -8.990234375 714 -8.990234375 c 0xb8
 704.508789062 -8.990234375 692.626953125 -4.626953125 690 -2 c 2
 684 4 l 0
 500.467773438 210.897460938 358.653320312 404.021484375 172.829101562 607.279296875 c 1
 172.790039062 557.42578125 171.778320312 510.641601562 171.778320312 462 c 0
 171.778320312 361.999023438 171.83203125 272.05859375 171.83203125 172 c 0
 171.83203125 136.436523438 172.825195312 100.422851562 173.806640625 65.123046875 c 0
 174.317382812 46.7568359375 195 30 219.038085938 28.9462890625 c 2
 226.397460938 28.609375 l 1
 226.397460938 28.609375 230.391601562 24.056640625 230.391601562 15.3046875 c 0
 230.391601562 7.3046875 227 0 227 0 c 1
 44 0 l 1x78
EndSplineSet
EndChar

StartChar: L
Encoding: 76 76 37
GlifName: L_
Width: 617
VWidth: 0
Flags: W
HStem: 0 29<56 98.2067 236.701 419.238> 701 29<57 98.8913 236.505 278>
VStem: 111.116 111.845<39.4365 693.019> 528.23 29.7324<157.434 162.671>
LayerCount: 2
Fore
SplineSet
278.046875 730 m 1
 278.046875 730 281.391601562 725.056640625 281.391601562 716.3046875 c 0
 281.391601562 708.3046875 278 701 278 701 c 1
 271.13671875 701.047851562 l 2
 254 701 226.100585938 686.981445312 225.82421875 665.887695312 c 0
 223.807617188 574.193359375 222.9609375 492.500976562 222.9609375 400.638671875 c 0
 224.662109375 286.883789062 223.890625 183.12109375 225.663085938 69.0849609375 c 1
 225.663085938 59.2802734375 231.515625 40.171875 248.51953125 38.279296875 c 0
 269.508789062 35.9423828125 279.854492188 35 300.623046875 35 c 1
 365.279296875 35.3427734375 387.366210938 35.9267578125 430.993164062 45.9990234375 c 0
 490.141601562 60.296875 515.015625 98.896484375 527.145507812 157.43359375 c 0
 528.23046875 162.670898438 l 1
 557.962890625 164.50390625 l 1
 539.201171875 0 l 1
 56 0 l 1
 56 0 51.3916015625 6.552734375 51.3916015625 15.3046875 c 0
 51.3916015625 23.3046875 56 29 56 29 c 1
 63.9248046875 29.3837890625 l 2
 89 31 109.241210938 46.7421875 109.241210938 67.5234375 c 0
 110.899414062 183.627929688 111.116210938 286.466796875 111.116210938 402.288085938 c 0
 111.116210938 493.94921875 110.30078125 573.908203125 109.244140625 666.470703125 c 0
 109.048828125 683.619140625 87 701 63.91015625 701.020507812 c 2
 57 701 l 1
 57 701 52.3916015625 707.552734375 52.3916015625 716.3046875 c 0
 52.3916015625 724.3046875 57 730 57 730 c 1
 278.046875 730 l 1
EndSplineSet
EndChar

StartChar: M
Encoding: 77 77 38
GlifName: M_
Width: 873
VWidth: 0
Flags: W
HStem: 0 29.9463<38 45.1846 174.078 216.397 587 630.26 764.932 808> 701 29<57 98.7837 765.481 808>
VStem: 89.5234 74.5693<36.245 268.098> 109.536 72.6152<428.046 588.842> 641.725 110.884<37.3376 589.321>
LayerCount: 2
Fore
SplineSet
808.12890625 729.998046875 m 1xd8
 808.12890625 729.998046875 811.391601562 725.056640625 811.391601562 716.3046875 c 0
 811.391601562 708.3046875 808 701 808 701 c 1
 801.213867188 701.020507812 l 2
 778 701 756.00390625 685.323242188 755.907226562 666.873046875 c 0
 755.096679688 605.801757812 752.676757812 555.086914062 752.676757812 494.520507812 c 0
 752.676757812 451.722911325 752.608119624 409.123412953 752.608119624 366.663730775 c 0
 752.608119624 262.075913329 753.024414062 168.336914062 755.909179688 64.57421875 c 0
 756.294921875 46.1376953125 777.971358412 29.6694965167 801.21875 29.3837890625 c 2
 808.131835938 29.298828125 l 1
 808.131835938 29.298828125 811.391601562 24.056640625 811.391601562 15.3046875 c 0
 811.391601562 7.3046875 808 0 808 0 c 1
 587 0 l 1
 587 0 582.391601562 6.552734375 582.391601562 15.3046875 c 0
 582.391601562 23.3046875 587 30 587 30 c 1
 594.98828125 29.9462890625 l 2
 619 30 639.047851562 46.873046875 639.333984375 65.6259765625 c 0
 640.313864735 129.84659948 641.724609375 184.041992188 641.724609375 248 c 0
 641.724609375 328.92578125 641.732421875 412.956054688 641.732421875 495 c 0
 641.732421875 526.795898438 641.666015625 558.654296875 641.495117188 589.321289062 c 1
 425.305664062 168.829101562 l 1
 422.087890625 162.670898438 412.383789062 148.276367188 401.993164062 148.276367188 c 0
 394.793945312 148.276367188 389.693359375 153.755859375 386.129882812 160.999023438 c 0
 386.129882812 160.999023438 231.4765625 485.631835938 182.151367188 588.841796875 c 1xd8
 164.092773438 65.0693359375 l 1
 165.827148438 46.4072265625 185.19711688 31.1068873401 209.377929688 29.9462890625 c 2
 216.397460938 29.609375 l 1
 216.397460938 29.609375 220.391601562 24.056640625 220.391601562 15.3046875 c 0
 220.391601562 7.3046875 217 0 217 0 c 1
 37 0 l 1
 37 0 32.3916015625 6.552734375 32.3916015625 15.3046875 c 0
 32.3916015625 23.3046875 38 30 38 30 c 1
 45.1845703125 30.3837890625 l 2
 70 32 88.7060546875 46.154296875 89.5234375 66.6875 c 0xe8
 97.6412908492 270.613407431 104.75 456.241210938 109.536132812 663.08203125 c 1
 109.538085938 663.361328125 109.538085938 663.7890625 109.538085938 664.078125 c 0
 109.538085938 683.17578125 88 701 64.1875 701.022460938 c 2
 57 701 l 1
 57 701 52.3916015625 707.552734375 52.3916015625 716.3046875 c 0
 52.3916015625 724.3046875 57 730 57 730 c 1
 227.640625 730 l 1
 433.70703125 302.252929688 l 1
 654.948242188 729.998046875 l 1
 808.12890625 729.998046875 l 1xd8
EndSplineSet
EndChar

StartChar: slash
Encoding: 47 47 39
GlifName: slash
Width: 398
VWidth: 0
Flags: W
VStem: 40.1748 331.825
LayerCount: 2
Fore
SplineSet
45.42578125 -93.5966796875 m 2
 147.358398438 185.219726562 220.290039062 420.998046875 292.259765625 677.888671875 c 0
 292.881835938 680.109375 l 1
 294.702148438 681.525390625 l 0
 313.461914062 696.116210938 319.727791 703 334 703 c 0
 350.057121775 703 372 692.849609375 372 676 c 0
 372 674.795898438 l 1
 371.59765625 673.66015625 l 0
 284.23046875 427.265625 137.627929688 -44.1708984375 132.87109375 -59.478515625 c 1
 125.458007812 -113.025390625 83.9169921875 -91.408203125 54.4775390625 -102.546875 c 0
 40.1748046875 -107.958984375 l 1
 45.42578125 -93.5966796875 l 2
EndSplineSet
Validated: 1
EndChar

StartChar: S
Encoding: 83 83 40
GlifName: S_
Width: 593
VWidth: 0
Flags: W
HStem: -9.56348 60.0068<212.434 384.904> 695.885 46.4453<234.122 392.81>
VStem: 50.002 75.042<140.991 178.376> 85.5469 109.135<520.214 635.315> 438.308 102.501<125.48 246.115>
LayerCount: 2
Fore
SplineSet
125.043945312 205.3203125 m 1xe8
 130.727539062 155.765625 174.362304688 50.443359375 295.37109375 50.443359375 c 0
 389.67578125 50.443359375 438.307617188 101.716796875 438.307617188 174.490234375 c 0
 438.307617188 248.498046875 382.27734375 295.260742188 294.2109375 345.998046875 c 0
 201.44921875 399.440429688 85.546875 475.96484375 85.546875 558.513671875 c 0
 85.546875 650.10546875 169.591796875 742.330078125 329.2588676 742.330078125 c 0
 418.71875 742.330078125 515.370117188 714.271484375 515.370117188 686 c 0
 515.370117188 672.71484375 493.745117188 587.8984375 474 587.8984375 c 4
 446.294921875 587.8984375 438.184570312 695.884765625 312.271484375 695.884765625 c 4
 211.01171875 695.884765625 194.681640625 633.635742188 194.681640625 584.477539062 c 0xd8
 194.681640625 516.303710938 254.860243281 476.044921875 341.652244458 427.26953125 c 0
 447.294921875 366.634765625 540.80859375 304.59375 540.80859375 214.552734375 c 0
 540.80859375 130.538085938 493.146484375 78.2412109375 442.795898438 38.103515625 c 0
 404.485928973 7.857421875 344.520150456 -9.5634765625 292.998416207 -9.5634765625 c 0
 140.95703125 -9.5634765625 50.001953125 75.9794921875 50.001953125 123 c 0
 50.001953125 146.665039062 87.67578125 216.002929688 112 216.002929688 c 0
 115.349609375 216.002929688 124.1015625 214.380859375 125.043945312 205.3203125 c 1xe8
EndSplineSet
Validated: 1
EndChar

StartChar: T
Encoding: 84 84 41
GlifName: T_
Width: 709
VWidth: 0
Flags: W
HStem: 0 29<264 296.833 442.903 484.397> 685.114 44.8857<128.381 299.363 432.92 621.18>
VStem: 58 33.9531<590.339 640.117> 318.023 112.003<36.2631 683.734> 638.169 30.7305<589.981 661.06>
LayerCount: 2
Fore
SplineSet
485 0 m 1
 264 0 l 1
 264 0 259.391601562 6.552734375 259.391601562 15.3046875 c 0
 259.391601562 23.3046875 264 29 264 29 c 1
 271.004882812 29.2841796875 l 0
 283.364257812 29.439453125 288.037109375 30.3623046875 297.26171875 35.314453125 c 0
 311.427734375 42.9189453125 315.024414062 55.048828125 315.142578125 64.0576171875 c 0
 316.5390625 128.842773438 318.0234375 264.541992188 318.0234375 329.220703125 c 3
 318.0234375 467.991210938 316.791015625 515.668945312 316.534179688 654.8984375 c 0
 316.534179688 670.685546875 310.635742188 682.237304688 299.63671875 683.815429688 c 0
 293.87890625 684.641601562 282.482421875 685.114257812 268.635742188 685.114257812 c 0
 233.80859375 685.114257812 190.4296875 682.118164062 161.298828125 677.104492188 c 0
 119.048828125 669.721679688 101.326171875 640.477539062 91.953125 590.315429688 c 1
 58 590.338867188 l 1
 77.2841796875 727.470703125 l 1
 77.3984375 727.880859375 l 0
 79.1357421875 734.109375 85.2607421875 735.953125 89.140625 735.953125 c 0
 97.06640625 735.953125 106.72265625 732.861328125 113.200195312 732.763671875 c 0
 150.03515625 732.20703125 242.834018204 730 369.189762072 730 c 1
 480.100833711 730.999023438 550.114206089 732.755424773 639.889648438 734.752929688 c 0
 643.140997582 734.825272254 657.814453125 737.774414062 664.51171875 737.774414062 c 0
 669.46875 737.774414062 673.140625 737.12109375 673.140625 725.883789062 c 1
 668.899414062 589.981445312 l 1
 638.168945312 589.764648438 l 1
 638.016601562 625.19921875 630.038085938 671.8984375 599.67578125 679.145507812 c 0
 577.245117188 684.5 568.197265625 684.758789062 506.921875 684.758789062 c 0
 489.0859375 684.758789062 473.495117188 684.333984375 454.612304688 683.956054688 c 0
 439.529296875 683.654296875 432.94140625 672.017578125 432.821289062 661.188476562 c 0
 431.094726562 546.836914062 430.026367188 442.541992188 430.026367188 328.3828125 c 3
 430.026367188 236.970703125 430.85546875 155.717773438 432.881835938 64.46875 c 1
 433.006835938 54.91796875 441.037109375 39.744140625 457.155273438 33.546875 c 0
 464.245117188 30.8212890625 470.286132812 29.38671875 478.23046875 29.2841796875 c 0
 484.397460938 28.609375 l 1
 484.397460938 28.609375 488.391601562 24.056640625 488.391601562 15.3046875 c 0
 488.391601562 7.3046875 485 0 485 0 c 1
EndSplineSet
Validated: 1
EndChar

StartChar: Q
Encoding: 81 81 42
GlifName: Q_
Width: 838
VWidth: 0
Flags: W
HStem: -151.864 60.2461<500.079 650.195> 683.77 49.0391<312.84 516.783>
VStem: 55 123.326<218.438 489.722> 662.246 121.326<234.13 496.657>
LayerCount: 2
Fore
SplineSet
408.982421875 683.76953125 m 0
 196.6640625 683.76953125 178.326171875 448.814453125 178.326171875 380.296875 c 0
 178.326171875 61.1904296875 361.54296875 33.6669921875 426.181640625 33.6669921875 c 0
 547.459960938 33.6669921875 662.24609375 108.610351562 662.24609375 372.69921875 c 0
 662.24609375 527.133789062 602.104492188 683.76953125 408.982421875 683.76953125 c 0
416.303196056 732.80859375 m 0
 617.238168288 732.80859375 783.572265625 605.609159826 783.572265625 356.807617188 c 0
 783.572265625 136.9921875 615.597956171 5.9990234375 459.734232439 -14.2607421875 c 1
 468.951476856 -64.3271484375 510.96484375 -91.6181640625 619.802734375 -91.6181640625 c 0
 627.591796875 -91.6181640625 635.706054688 -91.416015625 644.154296875 -91.0087890625 c 0
 650.1953125 -90.7177734375 l 1
 661.96875 -147.419921875 l 1
 653.759765625 -148.138671875 l 0
 625.8984375 -150.578125 599.796875 -151.864257812 575.475585938 -151.864257812 c 0
 440.456054688 -151.864257812 354.689330085 -113.264648438 341.656385033 -9.4599609375 c 1
 215.99200552 14.2890625 55 102.645507812 55 348.01953125 c 0
 55 597.638671875 219.485670915 732.80859375 416.303196056 732.80859375 c 0
EndSplineSet
Validated: 1
EndChar

StartChar: P
Encoding: 80 80 43
GlifName: P_
Width: 568
VWidth: 0
Flags: W
HStem: 0 29<17 24.0381 230.249 237.397> 274.9 53.0996<210.081 342.87> 689.888 42.1123<186.637 339.994> 701 29<17 58.9043>
VStem: 71.2793 112.246<37.9696 689.396> 429.653 102.734<413.995 606.371>
LayerCount: 2
Fore
SplineSet
237.397460938 28.609375 m 5xec
 237.397460938 28.609375 241.391601562 24.056640625 241.391601562 15.3046875 c 4
 241.391601562 7.3046875 238 0 238 0 c 5
 17 0 l 5
 17 0 12.3916015625 6.552734375 12.3916015625 15.3046875 c 4
 12.3916015625 23.3046875 17 29 17 29 c 5
 24.0380859375 29.3837890625 l 2
 47 31 69.373046875 46.6103515625 69.373046875 63.806640625 c 0
 70.97265625 180.919921875 71.279296875 284.684570312 71.279296875 400.326171875 c 0
 71.279296875 487.400390625 69.494140625 572.247070312 69.494140625 659.176757812 c 0
 69.494140625 687.556640625 46 701 25.0419921875 701.021484375 c 2
 17 701 l 1
 17 701 12.3916015625 707.552734375 12.3916015625 716.3046875 c 0
 12.3916015625 724.3046875 17 730 17 730 c 1xdc
 247.758504 732 l 0
 407.401675656 732 532.387695312 671.052734375 532.387695312 503.467773438 c 0
 532.387695312 347.451171875 400.828125 274.900390625 270.137695312 274.900390625 c 0
 257.390625 274.900390625 245.76953125 275.51171875 233.39453125 276.7109375 c 0
 219.357421875 278.071289062 209.200195312 290.041015625 209.200195312 303 c 0
 209.200195312 314.53125 229.0390625 328 243.346679688 328 c 0
 346.850585938 328 429.653320312 377.768554688 429.653320312 515.353515625 c 0
 429.653320312 651.674804688 342.022460938 689.887695312 230.8828125 689.887695312 c 0
 186.63671875 689.887695312 l 1
 184.458984375 590.973632812 183.525390625 494.219726562 183.525390625 395.96484375 c 0
 183.525390625 281.893554688 184.66015625 177.737304688 186.504882812 63.4375 c 0
 186.702148438 45.740234375 209 32 230.249023438 29.3505859375 c 2
 237.397460938 28.609375 l 5xec
EndSplineSet
EndChar

StartChar: R
Encoding: 82 82 44
GlifName: R_
Width: 703
VWidth: 0
Flags: W
HStem: 0 28.9463<54 60.9062 233.073 274.05 643.656 650> 333.006 37.9941<219.992 271.358> 689.888 44.1123<223.031 376.503> 701.022 29.082<54 97.0517>
VStem: 108.146 111.423<36.8888 335.342 371.257 689.806> 451.53 102.726<460.836 619.73>
LayerCount: 2
Fore
SplineSet
650 0 m 1xec
 527 0 l 0
 476.712890625 0 450.397460938 59.7802734375 438.153320312 73.4677734375 c 0
 438.153320312 73.4677734375 273.173828125 315.288085938 260.87109375 333.005859375 c 1
 237.340820312 333.038085938 243.541015625 333.081054688 219.9921875 335.341796875 c 1
 222.829101562 63.505859375 l 2
 223.01171875 45.7666015625 244.742666504 29.3138625376 268.143554688 28.9462890625 c 2
 274.049804688 28.853515625 l 1
 274.049804688 28.853515625 278.391601562 24.056640625 278.391601562 15.3046875 c 0
 278.391601562 7.3046875 275 0 275 0 c 1
 54 0 l 1
 54 0 49.3916015625 6.552734375 49.3916015625 15.3046875 c 0
 49.3916015625 23.3046875 54 29 54 29 c 1
 60.90625 29.3837890625 l 2
 85 31 106.046875 46.095703125 106.2421875 64.5673828125 c 0
 107.838867188 181.212890625 108.145507812 287.8125 108.145507812 404.251953125 c 0
 108.145507812 490.012695312 106.362304688 572.548828125 106.362304688 658.177734375 c 0
 106.362304688 683.557617188 91 701 61.91015625 701.022460938 c 2
 54 701 l 1
 54 701 49.3916015625 707.552734375 49.3916015625 716.3046875 c 0
 49.3916015625 724.3046875 54 730 54 730 c 1
 62.1318359375 730.33203125 l 0
 70.7490234375 730.172851562 78.3720703125 730.104492188 87 730.104492188 c 0xdc
 150.796875 730.104492188 214.837890625 734 280.265158131 734 c 0
 436.656897674 734 554.255859375 676.373046875 554.255859375 534.771484375 c 0
 554.255859375 431.076171875 481.38671875 365.008789062 391.90234375 342.102539062 c 1
 479.209960938 220.06640625 553.452148438 113.7109375 593.497070312 60.310546875 c 0
 607.575195312 41.5380859375 616 32 643.65625 30.0830078125 c 2
 650.397460938 29.609375 l 1
 650.397460938 29.609375 654.391601562 25.056640625 654.391601562 16.3046875 c 0
 654.391601562 8.3046875 650 0 650 0 c 1xec
219.568359375 406.34375 m 0
 219.568359375 396.552734375 219.57421875 379.799804688 219.6015625 371.256835938 c 1
 229.293945312 371.109375 239.666992188 371 249 371 c 0
 343.598632812 371 451.530273438 433.59765625 451.530273438 531.491210938 c 0
 451.530273438 645.219726562 377.756835938 689.887695312 264 689.887695312 c 0
 223.03125 689.887695312 l 1xec
 222.1015625 591.006835938 219.568359375 504.33203125 219.568359375 406.34375 c 0
EndSplineSet
Validated: 1
EndChar

StartChar: U
Encoding: 85 85 45
GlifName: U_
Width: 765
VWidth: 0
Flags: W
HStem: -10.665 46.667<296.622 478.561> 701 29<32 38.7666 210.53 252.92 546.244 588.22 689.153 731>
VStem: 85.7393 112.326<163.789 693.014> 598.919 80.0127<171.905 645.655 645.757 694.126>
LayerCount: 2
Fore
SplineSet
546.244140625 701.018554688 m 1
 546.244140625 701.018554688 542 707.248046875 542 716 c 0
 542 724 546 730 546 730 c 1
 731 730 l 1
 731 730 734 724.751953125 734 716 c 0
 734 708 731 701 731 701 c 1
 723.83203125 700.88671875 l 2
 704.922070885 700.58786924 678.278320312 684.53515625 678.21875 666.16796875 c 0
 678.1953125 658.831054688 678.185546875 645.747070312 678.185546875 645.747070312 c 1
 678.185546875 645.747070312 678.931640625 518.928710938 678.931640625 456.4609375 c 0
 678.931640625 374.99609375 678.5625 312.677734375 677.850585938 278.514648438 c 0
 672.90234375 40.923828125 498.0859375 -10.6650390625 385.6875 -10.6650390625 c 0
 271.334960938 -10.6650390625 86.482421875 41.8203125 85.7392578125 291.442382812 c 2
 84.6005859375 663.946289062 l 2
 84.6005859375 684.73046875 61 699 38.7666015625 700.534179688 c 2
 32 701 l 1
 32 701 27.3916015625 707.552734375 27.3916015625 716.3046875 c 0
 27.3916015625 724.3046875 32 730 32 730 c 1
 252.919921875 730.004882812 l 1
 252.919921875 730.004882812 256.391601562 725.056640625 256.391601562 716.3046875 c 0
 256.391601562 708.3046875 253 701 253 701 c 1
 246.012695312 700.716796875 l 2
 221 700 201.075195312 685.649414062 200.716796875 664.11328125 c 0
 199.469726562 589.142578125 198.065429688 324.372070312 198.065429688 318.538085938 c 0
 198.065429688 117.192382812 261.248046875 36.001953125 388.458007812 36.001953125 c 0
 503.2265625 36.001953125 598.918945312 119.043945312 598.918945312 304.530273438 c 0
 598.918945312 334.883789062 598.603515625 636.013671875 598.603515625 666.04296875 c 0
 598.603515625 683.490234375 576.021217856 700.631237978 553.151367188 700.928710938 c 2
 546.244140625 701.018554688 l 1
EndSplineSet
EndChar

StartChar: J
Encoding: 74 74 46
GlifName: J_
Width: 325
VWidth: 0
Flags: W
HStem: -180.214 38.5156<-82 -24.9629> 701.305 28.6953<51.3916 93.5427 229.821 271.397>
VStem: 104.29 113.1<-37.8248 694.012>
LayerCount: 2
Fore
SplineSet
272.046875 730 m 1
 272.046875 730 275.391601562 724.056640625 275.391601562 715.3046875 c 0
 275.391601562 707.3046875 271.397460938 701.3046875 271.397460938 701.3046875 c 1
 264.131835938 700.911132812 l 2
 241 700 220.139648438 684.928710938 219.82421875 666.620117188 c 0
 218.787109375 606.201171875 217.389648438 522.18359375 217.389648438 424.700195312 c 0
 217.389648438 248.86328125 219.53125 61.7353515625 220.196289062 39.5791015625 c 0
 219.662109375 -103.026367188 98.578125 -174.78515625 -82 -180.213867188 c 1
 -82 -141.698242188 l 1
 56.2392578125 -102.787109375 101.51171875 -71.3896484375 102.859375 83.3212890625 c 0
 103.098632812 110.798828125 104.290039062 296.1015625 104.290039062 466.247070312 c 0
 104.290039062 545.038085938 104.1328125 610.58984375 103.290039062 665.6875 c 0
 102.9921875 685.1484375 83 700 58.564453125 700.931640625 c 2
 51.3916015625 701.3046875 l 1
 51.3916015625 701.3046875 47.3916015625 707.552734375 47.3916015625 716.3046875 c 0
 47.3916015625 724.3046875 51 730 51 730 c 5
 272.046875 730 l 1
EndSplineSet
EndChar

StartChar: plus
Encoding: 43 43 47
GlifName: plus
Width: 406
VWidth: 0
Flags: W
HStem: 259 78<56.8643 163.676 243.006 363.453>
VStem: 164 78<128.167 258.986 337.265 446.326>
LayerCount: 2
Fore
SplineSet
242 142 m 4
 242 127.977539062 213.142578125 127 204 127 c 4
 195.368164062 127 164 127.409179688 164 142 c 4
 164 257 l 4
 164 257.72265625 163.720703125 258.715820312 163.609375 259 c 5
 56.8642578125 259 l 5
 55.7861328125 259.359375 l 4
 43.7568359375 263.369140625 42 289.216796875 42 300 c 4
 42 309.826171875 43.8525390625 337 58 337 c 4
 162 337 l 4
 163.33984375 337 163.67578125 337.255859375 163.67578125 337.255859375 c 5
 163.790039062 337.450195312 164 338.248046875 164 339 c 4
 164 447.044921875 l 5
 168.786132812 448.640625 l 4
 178.055664062 451.73046875 196.813476562 454 206 454 c 4
 215.219726562 454 232.56640625 451.54296875 239.130859375 448.260742188 c 4
 243 446.326171875 l 5
 243 338 l 4
 243 337.5703125 243.005859375 337 243.005859375 337 c 5
 351 337 l 4
 365.67578125 337 364 303.130859375 364 295 c 4
 364 288.265625 365.497070312 259 351 259 c 4
 242 259 l 4
 242 142 l 4
EndSplineSet
Validated: 33
EndChar

StartChar: B
Encoding: 66 66 48
GlifName: B_
Width: 629
VWidth: 0
Flags: W
HStem: -1.66699 39.9814<223.08 391.17> 0 30<54 95.6321> 360.477 40.6455<222.383 359.292> 689.924 44.0762<219.207 373.254> 701 29.1518<54 96.3716>
VStem: 106.242 115.775<39.5793 358.292 402.178 688.03> 438.991 100.265<480.066 628.3> 472.078 107.734<109.01 273.046>
LayerCount: 2
Fore
SplineSet
116.559570312 0 m 1048,0,-1
54 0 m 1,1,-1
 54 0 50 6.248046875 50 15 c 0,4,-1
 50 23 54 30 54 30 c 1,7,-1
 76.8251953125 30.6328125 106.017578125 43.3896484375 106.2421875 64.5673828125 c 0,10,-1
 107.829101562 180.55859375 109.146484375 286.502929688 109.146484375 402.290039062 c 0,13,-1
 109.146484375 488.706054688 106.362304688 574.8984375 106.362304688 661.177734375 c 0,16,-1
 106.362304688 685.376953125 86.7333984375 700.686523438 54 701 c 1,19,-1
 54 701 50 706.248046875 50 715 c 0,22,-1
 50 723 54 730 54 730 c 1,25,-1
 57.58203125 730.119140625 63.0554502523 730.15179686 68.7147318761 730.15179686 c 0,28,-1
 75.534365275 730.15179686 82.6240565163 730.104492188 87 730.104492188 c 0,31,-1
 150.796875 730.104492188 226.94140625 734 294.408203125 734 c 0,34,-1
 445.888671875 734 539.255859375 658.194335938 539.255859375 549.553710938 c 0,37,-1
 539.255859375 472.431640625 467.366210938 416.331054688 386.270507812 391 c 1,40,-1
 473.724609375 374.106445312 579.8125 308.243164062 579.8125 188.741210938 c 0,43,-1
 579.8125 49.2685546875 481.572265625 -1.6669921875 360.186523438 -1.6669921875 c 0,46,-1
 286.259765625 -1.6669921875 212.758884271 0 140.559570312 0 c 0,49,-1
 54 0 l 1,1,-1
472.078125 198.264648438 m 4,50,-1
 472.078125 307.607421875 399.413085938 359.693359375 266.153320312 360.4765625 c 5,53,-1
 222.3828125 358.291992188 l 5,54,-1
 222.017578125 66.9873046875 l 6,55,-1
 222.844726562 49.154296875 229.609375 39.6103515625 237.875 39.443359375 c 5,58,-1
 254.9453125 39.0048828125 261.627929688 38.314453125 278.635742188 38.314453125 c 4,61,-1
 441.043945312 38.314453125 472.078125 116.40625 472.078125 198.264648438 c 4,50,-1
260.245117188 401.122070312 m 0,64,-1
 380.770507812 401.122070312 438.991210938 462.391601562 438.991210938 548.590820312 c 0,67,-1
 438.991210938 628.049804688 391.888671875 689.923828125 281.790039062 689.923828125 c 0,70,-1
 265.622070312 689.923828125 230.983398438 687.6640625 230.067382812 687.627929688 c 0,73,-1
 220.388671875 687.241210938 220.102539062 676.118164062 219.20703125 668.064453125 c 1,76,-1
 220.494140625 519.555664062 l 0,77,-1
 220.92578125 402.177734375 l 1,78,-1
 235.130859375 401.750976562 247.272460938 401.122070312 260.245117188 401.122070312 c 0,64,-1
EndSplineSet
Validated: 1
EndChar

StartChar: C
Encoding: 67 67 49
GlifName: C_
Width: 799
VWidth: 0
Flags: W
HStem: -10 56<322.497 533.933> 690.77 51.2314<319.076 530.727>
VStem: 55 123<218.194 497.898> 689.579 27.1055<452.365 505.492>
LayerCount: 2
Fore
SplineSet
433.351567434 742.000976562 m 0
 575.344010941 742.000976562 640.116210938 657.255859375 665 657.255859375 c 0
 684.168945312 657.255859375 683.916992188 683.427734375 699.506835938 683.427734375 c 4
 706.176757812 683.427734375 713.845703125 676.545898438 713.999023438 665.139648438 c 0
 716.684570312 463.795898438 l 1
 716.333984375 458.896484375 710.397460938 452.322265625 704.036132812 452.322265625 c 4
 699.416015625 452.322265625 691.576171875 454.2265625 689.579101562 462.323242188 c 0
 665.114257812 561.456054688 591.583007812 690.76953125 418.883789062 690.76953125 c 0
 229.526367188 690.76953125 178 509.981445312 178 384.646484375 c 0
 178 72.6123046875 348.673828125 46 421.984375 46 c 0
 597.329101562 46 679.795898438 181.2265625 686.366210938 196.103515625 c 1
 722.598632812 184.6640625 l 0
 722.032226562 183.059570312 653.920898438 -10 414.001438707 -10 c 0
 294.808521026 -10 55 53.6748046875 55 352.255859375 c 0
 55 552.173828125 163.037109375 742.000976562 433.351567434 742.000976562 c 0
EndSplineSet
Validated: 1
EndChar

StartChar: E
Encoding: 69 69 50
GlifName: E_
Width: 595
VWidth: 0
Flags: W
HStem: 0 34.9922<57 106.333 212.609 449.906> 375 40<204.216 421.379> 695 35<57 106.828 230.979 410.996>
VStem: 109.241 98.4219<38.7272 371.891 417.827 691.618> 434.066 27.0547<315.025 356.336 430.196 473.521> 493.739 29.7324<567.329 613.446> 528.23 29.7324<113.602 162.671>
LayerCount: 2
Fore
SplineSet
57 701 m 5
 57 701 53 706.248046875 53 715 c 4
 53 723 57 730 57 730 c 5
 126.606558737 730.333007812 188.903107362 730 266.900331989 730 c 2
 504.709960938 730 l 1
 523.471679688 565.49609375 l 1
 493.739257812 567.329101562 l 1
 480.973632812 628.950195312 457.5703125 664.998046875 394.204101562 684.123046875 c 0
 360.81640625 694.052734375 332.323242188 695 282.125976562 695 c 0
 261.310546875 695 251.004882812 694.063476562 230.001953125 691.736328125 c 0
 215.041992188 690.079101562 207.762695312 671.360351562 207.666015625 664.455078125 c 0
 204.130859375 419.444335938 l 1
 235.579101562 417.255859375 274.81640625 415 305.814453125 415 c 0
 344.228515625 415 374.908203125 417.880859375 405.754882812 420.587890625 c 1
 425.514648438 425.293945312 431.673828125 449.916992188 434.06640625 473.520507812 c 1
 461.12109375 473.520507812 l 1
 461.12109375 315.025390625 l 1
 434.06640625 315.025390625 l 1
 429.944335938 338.92578125 425.21875 363.143554688 402.474609375 368.610351562 c 1
 370.276367188 371.612304688 340.794921875 375 305.814453125 375 c 0
 274.180664062 375 233.108398438 372.33203125 204.215820312 370.043945312 c 1
 207.663085938 71.015625 l 1
 207.663085938 60.83203125 214.133789062 40.099609375 230.51953125 38.2763671875 c 0
 250.484375 36.0556640625 260.760742188 34.9921875 279.483398438 34.9921875 c 0
 344.774414062 34.9921875 386.923828125 35.82421875 430.993164062 45.9990234375 c 0
 492.793945312 60.9384765625 515.478515625 101.116210938 528.23046875 162.670898438 c 1
 557.962890625 164.50390625 l 1
 539.201171875 0 l 1
 57 0 l 5
 57 0 53 6.248046875 53 15 c 4
 53 23 57 30 57 30 c 5
 69.7587890625 29.4453125 73.880859375 29.4404296875 84.98046875 31.6484375 c 0
 101.173828125 34.8681640625 109.137695312 54.7255859375 109.241210938 64.546875 c 0
 109.244140625 64.826171875 l 1
 109.270507812 65.10546875 l 0
 110.833984375 81.748046875 111.291992188 249.173828125 111.291992188 410.137695312 c 0
 111.291992188 534.967773438 110.405273438 641.07421875 109.283203125 665.34375 c 0
 109.26171875 665.592773438 l 1
 109.258789062 665.842773438 l 0
 109.133789062 675.345703125 102.1015625 695.555664062 85.9853515625 698.755859375 c 0
 76.3349609375 700.672851562 67.8623046875 700.96875 57 701 c 5
EndSplineSet
EndChar

StartChar: F
Encoding: 70 70 51
GlifName: F_
Width: 595
VWidth: 0
Flags: W
HStem: 0 30<58 85.6383 224.35 257> 355 37<205.341 418.533> 695.333 34.667<58 107.389 208.502 443.889>
VStem: 109.258 97.5664<34.5529 352.112 398.17 665.756 665.857 691.596> 433.073 17.0479<295.025 326.683 419.106 454.521> 522.23 29.7324<567.662 616.731>
LayerCount: 2
Fore
SplineSet
257 0 m 1
 58 0 l 1
 58 0 54 6.248046875 54 15 c 0
 54 23 58 30 58 30 c 1
 65.91015625 30.3125 l 2
 74.0146484375 30.6787109375 78.5361328125 31.09765625 85.9853515625 32.5771484375 c 0
 102.149414062 35.7861328125 109.248046875 54.03125 109.2578125 63.41015625 c 0
 109.2578125 63.732421875 l 1
 109.2890625 64.0537109375 l 0
 110.969726562 81.3701171875 111.266601562 239.23046875 111.266601562 395.419921875 c 0
 111.266601562 526.376279613 110.241210938 665.857421875 110.241210938 665.857421875 c 2
 110.241210938 675.568359375 102.215820312 695.456054688 85.98046875 698.684570312 c 0
 74.87890625 700.892578125 70.7607421875 700.887695312 58 701 c 1
 58 701 54 706.248046875 54 715 c 0
 54 723 58 730 58 730 c 1
 533.201171875 730.333007812 l 1
 551.962890625 565.829101562 l 1
 522.23046875 567.662109375 l 1
 509.478515625 629.21875 486.823242188 669.387695312 424.958984375 684.340820312 c 0
 382.733398438 694.411132812 344.342773438 694.990234375 281.731445312 695.333007812 c 1
 260.9453125 695.333007812 250.586914062 694.393554688 229.578125 692.064453125 c 0
 213.176757812 690.247070312 206.69921875 679.540039062 206.69921875 669.387695312 c 1
 203.86328125 400.40234375 l 1
 235.2734375 398.223632812 274.15234375 392 304.946289062 392 c 0
 343.397460938 392 374.107421875 398.880859375 404.985351562 401.587890625 c 1
 424.119140625 406.140625 431.9375 430.885742188 433.32421875 454.520507812 c 1
 450.12109375 454.520507812 l 1
 450.12109375 295.025390625 l 1
 433.073242188 295.025390625 l 1
 428.897460938 318.278320312 423.229492188 343.314453125 400.532226562 348.610351562 c 1
 367.366210938 351.612304688 336.999023438 355 300.966796875 355 c 0
 268.350585938 355 229.30078125 352.35546875 201.564453125 350.041992188 c 1
 201.197265625 314.635742188 l 1
 206.82421875 67.4345703125 l 0
 206.942382812 58.4736328125 209.715820312 38.931640625 223.87890625 34.326171875 c 4
 234.002929688 31.0341796875 239.118164062 30.849609375 250.13671875 30.294921875 c 2
 257 30 l 1
 257 30 260 23.751953125 260 15 c 0
 260 7 257 0 257 0 c 1
260 15 m 1048
EndSplineSet
Validated: 1
EndChar

StartChar: G
Encoding: 71 71 52
GlifName: G_
Width: 795
VWidth: 0
Flags: W
HStem: -10.0078 56.0078<330.655 523.332> 280 29<575 621.718 732.255 778> 690.77 51.2314<327.65 528.922>
VStem: 55 123<228.108 497.898> 631.058 90.9424<126.641 275.861> 684.579 32.6025<451.997 511.328>
LayerCount: 2
Fore
SplineSet
575 280 m 1xf8
 575 280 572 286 572 294 c 0
 572 302.751953125 575 309 575 309 c 1
 778 309 l 1
 778 309 781 302.751953125 781 294 c 0
 781 286 778 280 778 280 c 1
 766.995117188 279.385742188 757.516601562 279.090820312 747.869140625 277.178710938 c 0
 731.830078125 273.999023438 725.922851562 253.900390625 725.60546875 244.165039062 c 2
 722 168.668945312 l 1xf8
 722 142.39453125 712.411132812 133.822265625 697.73046875 113.349609375 c 0
 658.251953125 58.298828125 567.241991867 -10.0078125 425.256042974 -10.0078125 c 0
 299.397866655 -10.0078125 55 52.60546875 55 352.255859375 c 0
 55 552.173828125 163.037109375 742.000976562 432.46484375 742.000976562 c 0
 573.970703125 742.000976562 634.736328125 658.255859375 660 658.255859375 c 0
 678.58984375 658.255859375 681.877929688 684.903320312 699 684.903320312 c 0
 705.9453125 684.903320312 714.134765625 675.331054688 714.374023438 665.631835938 c 1
 717.181640625 466.458984375 l 1
 716.724609375 459.561523438 707.700195312 451.991210938 701.048828125 451.991210938 c 0
 696.216796875 451.991210938 686.576171875 455.2265625 684.579101562 463.323242188 c 0xf4
 660.114257812 562.456054688 590.153320312 690.76953125 418.046875 690.76953125 c 0
 249.338867188 690.76953125 178 509.981445312 178 384.646484375 c 0
 178 72.7783203125 365.137695312 46 428.345703125 46 c 0
 520.092773438 46 631.057617188 117.681640625 631.057617188 171.828125 c 1
 628.48828125 244.504882812 l 2
 628.317382812 254.064453125 622.143554688 274.1484375 605.5625 277.322265625 c 0
 595.62890625 279.223632812 585.836914062 280.51953125 575 280 c 1xf8
572 294 m 1048
781 294 m 1048
EndSplineSet
EndChar

StartChar: K
Encoding: 75 75 53
GlifName: K_
Width: 630
VWidth: 0
Flags: W
HStem: 0 29<19 59.8451 232.264 239.397 390.264 414.835 556.308 591.264> 701 29<20.3916 60.5275 188.502 240 361 400.914 485.969 530>
VStem: 71.2637 117<35.657 351.688 412.321 694.48>
LayerCount: 2
Fore
SplineSet
591.263671875 29 m 1
 591.263671875 29 595.391601562 24.056640625 595.391601562 15.3046875 c 0
 595.391601562 7.3046875 592 0 592 0 c 1
 390 0 l 1
 390 0 385.391601562 6.552734375 385.391601562 15.3046875 c 0
 385.391601562 23.3046875 390.263671875 29 390.263671875 29 c 1
 411.923828125 29 417.139648438 43.5068359375 417.139648438 56.451171875 c 0
 417.139648438 65.5927734375 408.423828125 81.11328125 398.461914062 95 c 0
 320.263671875 204 217.637695312 329.649414062 202 352 c 1
 194.970703125 345.260742188 192.255859375 343.21875 185.317382812 339.856445312 c 1
 188.263671875 66.072265625 l 2
 188.465820312 46.6611328125 209.458984375 30.2490234375 232.263671875 29 c 2
 239.397460938 28.609375 l 1
 239.397460938 28.609375 243.391601562 24.056640625 243.391601562 15.3046875 c 0
 243.391601562 7.3046875 240 0 240 0 c 1
 19 0 l 1
 19 0 14.3916015625 6.552734375 14.3916015625 15.3046875 c 0
 14.3916015625 23.3046875 19 29 19 29 c 1
 26.263671875 29 l 2
 47.5783582009 29 71.263671875 46.86328125 71.263671875 65.521484375 c 0
 73.0986328125 181.290039062 73.4267578125 286.764648438 73.4267578125 402.221679688 c 3
 73.4267578125 493.435546875 72.5 574.336914062 71.263671875 665.4296875 c 0
 71.0234375 683.1640625 50 700 26.263671875 701 c 2
 20.3916015625 701.3046875 l 1
 20.3916015625 701.3046875 16.3916015625 707.552734375 16.3916015625 716.3046875 c 0
 16.3916015625 724.3046875 19 730 19 730 c 1
 240 730 l 1
 240 730 244.391601562 725.056640625 244.391601562 716.3046875 c 0
 244.391601562 708.3046875 240.397460938 701.3046875 240.397460938 701.3046875 c 1
 233.263671875 701 l 2
 209 700 188.263671875 701.301757812 188.263671875 683.952148438 c 2
 184.404296875 412.321289062 l 1
 199.883789062 419.572265625 205.693359375 426.256835938 228 456 c 1
 386.692382812 643.23828125 l 0
 401.04296875 662.098632812 405.243164062 673.512695312 405.243164062 678.751953125 c 0
 405.243164062 689.799804688 378.608398438 700.6953125 367.872070312 700.6953125 c 2
 361 701 l 1
 361 701 356.391601562 706.552734375 356.391601562 715.3046875 c 0
 356.391601562 723.3046875 361 730 361 730 c 1
 530 730 l 1
 530 730 534.391601562 724.056640625 534.391601562 715.3046875 c 0
 534.391601562 707.3046875 530 701 530 701 c 1
 519.866210938 700.6953125 l 2
 488.602539062 699.6953125 481.71635686 680.76614366 462.880859375 657.501953125 c 2
 275.235351562 425.736328125 l 1
 301.575195312 390.590820312 l 1
 308.696289062 382.427734375 l 0
 406.120117188 246.2734375 497.198242188 119.084960938 540.940429688 59.68359375 c 1
 554.263671875 42 574 29 584.263671875 29 c 2
 591.263671875 29 l 1
EndSplineSet
Validated: 1
EndChar

StartChar: Y
Encoding: 89 89 55
GlifName: Y_
Width: 712
VWidth: 0
Flags: W
HStem: 0 29.3828<247 253.964 421.749 467.98> 701 29<49 55.9102 237.724 277.98 514 553.129 631.255 672.98>
VStem: 298.71 116.917<35.7249 393.006>
LayerCount: 2
Fore
SplineSet
467.98046875 29 m 1
 467.98046875 29 471.391601562 24.056640625 471.391601562 15.3046875 c 0
 471.391601562 7.3046875 468 0 468 0 c 1
 247 0 l 1
 247 0 242.391601562 6.552734375 242.391601562 15.3046875 c 0
 242.391601562 23.3046875 247 29 247 29 c 1
 253.963867188 29.3828125 l 2
 278 31 298.709960938 46.19921875 298.709960938 64.9951171875 c 0
 299.967773438 135.228515625 300.811523438 191.126953125 300.811523438 259.03125 c 3
 300.811523438 300.251953125 300.9609375 343.719726562 301.083984375 382.946289062 c 1
 215.188476562 507.120117188 143.473632812 617.557617188 103.212890625 671.241210938 c 0
 89.859375 689.044921875 71.7269403949 699.259185741 55.91015625 700.470703125 c 2
 49 701 l 1
 49 701 44.3916015625 707.552734375 44.3916015625 716.3046875 c 0
 44.3916015625 724.3046875 49 730 49 730 c 1
 277.98046875 730 l 1
 277.98046875 730 281.391601562 725.056640625 281.391601562 716.3046875 c 0
 281.391601562 708.3046875 278 701 278 701 c 1
 271.592773438 700.907226562 l 2
 255.990134998 700.681308156 230.822265625 687.219726562 230.822265625 674.557617188 c 0
 230.822265625 669.491210938 232.635742188 662.502929688 241.651367188 649.008789062 c 0
 384.440429688 442.90234375 l 1
 539.674804688 643.278320312 l 0
 553.684570312 662.418945312 557.836914062 671.828125 557.836914062 678.008789062 c 0
 557.836914062 687.953125 535.011895432 700.507377978 521.206054688 700.831054688 c 2
 514 701 l 1
 514 701 509.391601562 707.552734375 509.391601562 716.3046875 c 0
 509.391601562 724.3046875 514 730 514 730 c 1
 672.98046875 730 l 1
 672.98046875 730 676.391601562 725.056640625 676.391601562 716.3046875 c 0
 676.391601562 708.3046875 673 701 673 701 c 1
 665.590820312 701.393554688 l 0
 642.13671875 701.088867188 625.051757812 682.291992188 617.70703125 671.8828125 c 1
 412.614257812 393.005859375 l 1
 413.3984375 346.58203125 413.645507812 303.551757812 413.645507812 258.049804688 c 0
 413.645507812 190.790039062 414.32421875 133.291015625 415.626953125 65.5205078125 c 0
 415.626953125 45.1796875 428 30 452.692382812 29.3828125 c 2
 467.98046875 29 l 1
EndSplineSet
EndChar

StartChar: Z
Encoding: 90 90 56
GlifName: Z_
Width: 680
VWidth: 0
Flags: W
HStem: 0 46<171.903 481.793> 687.333 43<198.64 503.236>
LayerCount: 2
Fore
SplineSet
613.938476562 696.515625 m 0
 613.938476562 687.561523438 611.083007812 671.21484375 604.42578125 661.97265625 c 2
 170.228515625 52.283203125 l 1
 205.875976562 47.9912109375 246.750976562 46 288.227539062 46 c 0
 333.75 46 384.462890625 46.384765625 436.22265625 53.13671875 c 0
 522.283203125 64.3623046875 550 146 561.05859375 176.720703125 c 1
 594.243164062 178.443359375 l 1
 543.8046875 0 l 1
 76.8876953125 0 l 0
 69.1328125 0 44.0146484375 8.1259765625 44.0146484375 29.505859375 c 0
 44.0146484375 37.2177734375 47.1044921875 50.326171875 51.0888671875 55.9931640625 c 1
 503.236328125 683.662109375 l 1
 474.481445312 684.897460938 412.208007812 687.333007812 366.3828125 687.333007812 c 1
 304.875 687.020507812 277.333007812 685.87109375 235.442382812 677.291015625 c 0
 167.545898438 663.216796875 138.104492188 631.043945312 124.709960938 572.751953125 c 0
 123.5390625 567.654296875 l 1
 93.044921875 565.774414062 l 1
 126.091796875 725.021484375 l 1
 126.139648438 725.194335938 l 0
 128.49609375 733.734375 137.28125 734.543945312 142 734.543945312 c 0
 153.170898438 734.543945312 167.936523438 730 172.875 730 c 0
 356.560646611 730.333007812 l 0
 606.7421875 730.333007812 l 1
 608.443359375 725.786132812 l 0
 608.555664062 725.4921875 613.938476562 710.43359375 613.938476562 696.515625 c 0
EndSplineSet
Validated: 1
EndChar

StartChar: zero
Encoding: 48 48 57
GlifName: zero
Width: 480
VWidth: 0
Flags: W
HStem: -7 54<193.998 286.002> 587 53<193.998 283.33>
VStem: 20 106<175.782 458.122> 354 106<175.782 458.122>
LayerCount: 2
Fore
SplineSet
240 587 m 0
 180.513671875 587 126 485.548828125 126 317 c 0
 126 148.452148438 180.512695312 47 240 47 c 0
 299.486328125 47 354 148.451171875 354 317 c 0
 354 485.547851562 299.487304688 587 240 587 c 0
240 -7 m 0
 110.682617188 -7 20 140.491210938 20 317 c 0
 20 493.508789062 110.682617188 640 240 640 c 4
 370.317382812 640 460 493.508789062 460 317 c 0
 460 140.491210938 369.317382812 -7 240 -7 c 0
EndSplineSet
EndChar

StartChar: one
Encoding: 49 49 58
GlifName: one
Width: 480
VWidth: 0
Flags: W
HStem: 0 30<159 193.044 302.061 336> 624.135 20G<278.736 287.038>
VStem: 195 105<30.7282 557.982>
LayerCount: 2
Fore
SplineSet
329 30 m 4
 336 30 l 5
 336 0 l 5
 159 0 l 5
 159 30 l 5
 166 30 l 4
 185.911132812 30 195 42.9912109375 195 53.685546875 c 4
 195 517.581054688 l 4
 195 535.983398438 194.072265625 557.998046875 183 557.998046875 c 4
 171.611328125 557.998046875 160.416015625 552.307617188 154 550.013671875 c 5
 154 581.999023438 l 5
 191.16796875 596.131835938 232.458007812 612.979492188 264.14453125 637.041992188 c 4
 267.713867188 639.752929688 275.47265625 644.134765625 282 644.134765625 c 4
 292.076171875 644.134765625 300 638.288085938 300 627.381835938 c 4
 300 53.6875 l 4
 300 42.1611328125 309.760742188 30 329 30 c 4
EndSplineSet
EndChar

StartChar: two
Encoding: 50 50 59
GlifName: two
Width: 480
VWidth: 0
Flags: W
HStem: 0 68<151.124 394.879> 512.993 21G<90.3536 121.242> 587 55<171.963 303.232>
VStem: 335.031 100.969<428.58 556.421> 410.318 27.2471<96.7302 117.097>
LayerCount: 2
Fore
SplineSet
104.987304688 512.993164062 m 5xf0
 87.0888671875 537.455078125 l 5
 90.015625 542.725585938 141.040039062 642 263.538085938 642 c 4
 370.443359375 642 436 592.770507812 436 510.294921875 c 4xf0
 436 449.81640625 396.245117188 384.563476562 311.978515625 279.56640625 c 4
 243.06640625 193.701171875 184.384765625 106.73828125 151.124023438 68 c 5
 328 68 l 4
 376.076171875 68 401.375976562 86.47265625 410.318359375 115.087890625 c 4
 412.094726562 120.771484375 l 5
 437.565429688 115.704101562 l 5xe8
 394.87890625 0 l 5
 30 0 l 5
 30 42.529296875 l 5
 132.8125 162.497070312 205.079101562 268.4921875 264.038085938 343.899414062 c 4
 303.754882812 394.696289062 335.03125 450.81640625 335.03125 491.283203125 c 4
 335.03125 546.405273438 303.056640625 587 239.904296875 587 c 4
 176.16796875 587 137.497070312 553.891601562 104.987304688 512.993164062 c 5xf0
EndSplineSet
EndChar

StartChar: hyphen
Encoding: 45 45 60
GlifName: hyphen
Width: 403
VWidth: 0
Flags: W
HStem: 259 78<75.8643 344.361>
VStem: 60 285<259.006 337>
LayerCount: 2
Fore
SplineSet
74.7861328125 259.359375 m 2
 62.7568359375 263.369140625 60 278.216796875 60 299 c 0
 60 318.826171875 62.8525390625 337 77 337 c 0
 330 337 l 3
 344.67578125 337 345 315.130859375 345 297 c 3
 345 280.265625 344.497070312 259 330 259 c 0
 75.8642578125 259 l 1
 74.7861328125 259.359375 l 2
EndSplineSet
EndChar

StartChar: backslash
Encoding: 92 92 61
GlifName: backslash
Width: 418
VWidth: 0
Flags: W
HStem: 677.889 2.2207<125.908 136.286> 680.109 1.41602<125.908 136.286>
LayerCount: 2
Fore
SplineSet
368.390625 -102.213867188 m 2x80
 358.543945312 -107.319335938 327.219726562 -110.052734375 316 -110.052734375 c 0
 291.509765625 -110.052734375 280.129882812 -94.162109375 275.297851562 -59.482421875 c 1
 270.124023438 -42.8505859375 123.668945312 427.55078125 36.40234375 673.66015625 c 0
 36 674.795898438 l 1
 36 676 l 0
 36 693.1640625 58.115234375 703.255859375 74 703.255859375 c 0
 88.6064453125 703.255859375 105.180664062 695.747070312 123.465820312 681.525390625 c 0x40
 136.286132812 680.109375 l 1
 125.908203125 677.888671875 l 0
 197.877929688 420.998046875 270.8125 185.209960938 371.75 -93.6171875 c 0
 373.838867188 -99.388671875 l 1
 368.390625 -102.213867188 l 2x80
EndSplineSet
Validated: 1
EndChar

StartChar: parenleft
Encoding: 40 40 62
GlifName: parenleft
Width: 292
VWidth: 0
Flags: W
VStem: 50 92<175.948 501.573>
LayerCount: 2
Fore
SplineSet
253.77734375 747.046875 m 2
 226.96484375 707.860351562 142 645.889648438 142 330 c 0
 142 35.3779296875 226.922851562 -27.7646484375 255 -69.880859375 c 1
 255 -126.71875 l 1
 243.166992188 -115.064453125 50 50.2900390625 50 331 c 0
 50 642.025390625 242.9453125 783.58984375 255 793.779296875 c 1
 255 748.833984375 l 1
 253.77734375 747.046875 l 2
EndSplineSet
Validated: 1
EndChar

StartChar: parenright
Encoding: 41 41 63
GlifName: parenright
Width: 290
VWidth: 0
Flags: W
VStem: 159 92<175.895 502.079>
LayerCount: 2
Fore
SplineSet
46 749.833984375 m 1
 46 793.779296875 l 1
 58.3017578125 783.381835938 251 642.290039062 251 331 c 0
 251 50.63671875 57.5810546875 -115.313476562 46 -126.71875 c 1
 46 -71.880859375 l 1
 74.0810546875 -29.759765625 159 35.3720703125 159 330 c 0
 159 647.889648438 74.111328125 708.749023438 46 749.833984375 c 1
EndSplineSet
Validated: 1
EndChar

StartChar: three
Encoding: 51 51 64
GlifName: three
Width: 480
VWidth: 0
Flags: W
HStem: -7 36<124.34 261.047> 506.22 21G<43.1378 81.9263> 584 56<140.32 268.03>
VStem: 284.667 104.333<482.904 567.369> 347 94<107.565 263.219>
LayerCount: 2
Fore
SplineSet
64.880859375 506.219726562 m 5xf0
 39.9208984375 529.178710938 l 5
 42.4169921875 532.786132812 111.060546875 640 227.611328125 640 c 4
 328.853515625 640 389 599.883789062 389 537.223632812 c 4xf0
 389 477.987304688 309.09765625 424.744140625 247.717773438 379.701171875 c 5
 343.733398438 370.653320312 441 297.072265625 441 197.573242188 c 4
 441 72.1875 339.069335938 -7 183.72265625 -7 c 4
 122.443359375 -7 33 15.646484375 33 46 c 4
 33 47.861328125 33.2568359375 57.166015625 34.7392578125 60.130859375 c 4
 34.984375 60.6220703125 l 5
 35.3037109375 61.068359375 l 4
 38.8564453125 67.44140625 45.208984375 78 60 78 c 4
 71.9345703125 78 84.3623046875 73.228515625 97.2216796875 63.583984375 c 5
 116.33203125 49.0234375 153.913085938 29 186.72265625 29 c 4
 275.53515625 29 347 92.2939453125 347 173.434570312 c 4xe8
 347 232.072265625 331.041992188 272.849609375 293.8671875 293.99609375 c 5
 268.473632812 307.1953125 235.788085938 311 206.888671875 311 c 4
 168.025390625 311 120.8203125 281.890625 107 281.890625 c 4
 97.93359375 281.890625 90.185546875 286.99609375 90.185546875 296.615234375 c 4
 90.185546875 303.897460938 97.916015625 310.5625 97.9755859375 310.608398438 c 5
 102.296875 314.743164062 284.666992188 443.221679688 284.666992188 515.6875 c 4
 284.666992188 562.21875 254.25390625 584 205.666992188 584 c 4
 152.31640625 584 98.9716796875 550.346679688 64.880859375 506.219726562 c 5xf0
EndSplineSet
EndChar

StartChar: four
Encoding: 52 52 65
GlifName: four
Width: 480
VWidth: 0
Flags: W
HStem: 0 21G<288.789 366.63> 271 57.9365<132.593 275.777 376.5 450.843> 622 20G<341.72 354.527>
VStem: 275.777 100.723<0 271 329.006 506.425>
LayerCount: 2
Fore
SplineSet
275.77734375 328.0546875 m 5
 275.77734375 506.424804688 l 5
 225.936523438 440.546875 178.516601562 381.08984375 132.592773438 328.936523438 c 5
 185.489257812 328.541992188 246.67578125 328.401367188 275.77734375 328.0546875 c 5
36.1474609375 301.0390625 m 5
 127.969726562 413.8046875 301 636.333007812 308.841796875 638 c 4
 321.654296875 640.72265625 335.26171875 642 348.177734375 642 c 4
 360.875976562 642 376.5 634.694335938 376.5 617.388671875 c 4
 376.5 329.005859375 l 5
 415.560546875 329.728515625 428.041992188 331.553710938 455.895507812 338.227539062 c 5
 453.224609375 327.224609375 451.5 308.387695312 451.5 299.42578125 c 4
 451.5 288.159179688 453.16796875 279.428710938 454.399414062 271 c 5
 374.5 271 l 5
 374.5 14.6220703125 l 4
 374.5 9.1298828125 371.760742188 0 361.5 0 c 4
 293.5 0 l 4
 284.078125 0 279.1953125 6.701171875 279.1953125 12.6728515625 c 4
 275.77734375 271 l 5
 44.5 271 l 4
 38.0888671875 271 30.0146484375 276.118164062 30.0146484375 285.25 c 4
 30.0146484375 290.935546875 32.4189453125 296.611328125 36.1474609375 301.0390625 c 5
EndSplineSet
EndChar

StartChar: semicolon
Encoding: 59 59 66
GlifName: semicolon
Width: 238
VWidth: 0
Flags: W
HStem: -84 24<59.0367 87.1763> 340.294 123.452<72.2447 165.591>
VStem: 57.1924 123.451<0.67848 78.2951 355.346 448.693> 102 81<-44.9188 -2.48827>
LayerCount: 2
Fore
SplineSet
118.91796875 340.293945312 m 4xe0
 84.8291015625 340.293945312 57.1923828125 367.930664062 57.1923828125 402.01953125 c 4
 57.1923828125 436.108398438 84.828125 463.74609375 118.91796875 463.74609375 c 4
 153.006835938 463.74609375 180.643554688 436.108398438 180.643554688 402.01953125 c 4
 180.643554688 367.930664062 153.006835938 340.293945312 118.91796875 340.293945312 c 4xe0
61 38 m 4
 61 70.3834678888 91.3652791508 98 124 98 c 4
 157.975893594 98 183 69.8839748223 183 41 c 4
 183 40 l 6
 183 -53.451079371 138.494627486 -84 59.0366673472 -84 c 5
 44.6366673472 -60 l 5
 65.7375308507 -60 102 -52.3073374409 102 -27 c 4xd0
 102 -23.5962313256 100.39844251 -20.2979374466 96.1209487849 -16.0204437216 c 5
 80.0252775643 -0.818976457578 61 6.41483525015 61 38 c 4
EndSplineSet
EndChar

StartChar: colon
Encoding: 58 58 67
GlifName: colon
Width: 228
VWidth: 0
Flags: W
HStem: -17.7061 123.452<65.2447 158.591> 340.294 123.452<65.2447 158.591>
VStem: 50.1924 123.451<-2.6537 90.6933 355.346 448.693>
LayerCount: 2
Fore
SplineSet
111.91796875 -17.7060546875 m 0
 77.8291015625 -17.7060546875 50.1923828125 9.9306640625 50.1923828125 44.01953125 c 0
 50.1923828125 78.1083984375 77.828125 105.74609375 111.91796875 105.74609375 c 0
 146.006835938 105.74609375 173.643554688 78.1083984375 173.643554688 44.01953125 c 0
 173.643554688 9.9306640625 146.006835938 -17.7060546875 111.91796875 -17.7060546875 c 0
111.91796875 340.293945312 m 0
 77.8291015625 340.293945312 50.1923828125 367.930664062 50.1923828125 402.01953125 c 0
 50.1923828125 436.108398438 77.828125 463.74609375 111.91796875 463.74609375 c 0
 146.006835938 463.74609375 173.643554688 436.108398438 173.643554688 402.01953125 c 0
 173.643554688 367.930664062 146.006835938 340.293945312 111.91796875 340.293945312 c 0
EndSplineSet
EndChar

StartChar: five
Encoding: 53 53 68
GlifName: five
Width: 480
VWidth: 0
Flags: W
HStem: -5 48<99.0238 282.422> 327 93<122.829 295.627> 544.466 66.5342<146.766 422.165>
VStem: 356.286 92<119.97 269.195>
LayerCount: 2
Fore
SplineSet
415.286132812 617.5859375 m 4
 421.502929688 617.5859375 434.107421875 615.684570312 434.107421875 604.443359375 c 4
 434.107421875 595.456054688 419.918945312 559.444335938 414.147460938 544.465820312 c 5
 146.765625 544.465820312 l 5
 107.7109375 391.991210938 l 5
 152.3515625 413.0390625 185.884765625 420 230.833984375 420 c 4
 360.741210938 420 448.286132812 346.05078125 448.286132812 210.3671875 c 4
 448.286132812 89.5341796875 344.40625 -5 210.063476562 -5 c 4
 161.528320312 -5 95.3447265625 3 44.310546875 55.0751953125 c 5
 40.5146484375 58.87109375 37.1025390625 66.8046875 37.1025390625 71 c 4
 37.1025390625 81.5224609375 45.529296875 87.6015625 54.419921875 87.6015625 c 4
 59.2314453125 87.6015625 64.1787109375 85.8212890625 68 82 c 4
 97.4638671875 51.615234375 161.412109375 43 202.412109375 43 c 4
 311.1171875 43 356.286132812 134.108398438 356.286132812 190.368164062 c 4
 356.286132812 258.545898438 315.93359375 327 211.412109375 327 c 4
 160.84375 327 88.134765625 304.598632812 31 269.03125 c 5
 114.7578125 611 l 5
 353.286132812 611 l 6
 376.366210938 611 397.57421875 617.5859375 415.286132812 617.5859375 c 4
EndSplineSet
EndChar

StartChar: equal
Encoding: 61 61 69
GlifName: equal
Width: 401
VWidth: 0
Flags: W
HStem: 200 78<74.8643 343.361> 320 78<74.8643 343.361>
VStem: 60 284<200.006 278 320.006 398>
LayerCount: 2
Fore
SplineSet
73.7861328125 320.359375 m 2
 61.7568359375 324.369140625 60 340.216796875 60 361 c 0
 60 380.826171875 61.8525390625 398 76 398 c 0
 329 398 l 0
 343.67578125 398 344 376.130859375 344 358 c 0
 344 341.265625 343.497070312 320 329 320 c 0
 74.8642578125 320 l 1
 73.7861328125 320.359375 l 2
73.7861328125 200.359375 m 2
 61.7568359375 204.369140625 60 220.216796875 60 241 c 0
 60 260.826171875 61.8525390625 278 76 278 c 0
 329 278 l 0
 343.67578125 278 344 256.130859375 344 238 c 0
 344 221.265625 343.497070312 200 329 200 c 0
 74.8642578125 200 l 1
 73.7861328125 200.359375 l 2
EndSplineSet
Validated: 1
EndChar

StartChar: asterisk
Encoding: 42 42 70
GlifName: asterisk
Width: 356
VWidth: 0
Flags: W
HStem: 320.125 328.75<153.275 201.673>
VStem: 153.275 50.4492<320.125 436.666 531.13 648.875>
LayerCount: 2
Fore
SplineSet
170.775390625 648.875 m 2
 184.224609375 648.875 l 0
 193.822265625 648.875 201.575195312 641.005859375 201.575195312 631.669921875 c 1
 205.720703125 531.129882812 l 1
 296.065429688 576.821289062 l 0
 298.860351562 578.235351562 301.4296875 578.724609375 303.825195312 578.724609375 c 0
 310.051757812 578.724609375 315.868164062 576.247070312 319.719726562 571.247070312 c 0
 322.875976562 567.150390625 325.474609375 558.544921875 325.474609375 555.075195312 c 0
 325.474609375 548.471679688 321.404296875 543.248046875 316.590820312 540.0390625 c 0
 233.399414062 484.924804688 l 1
 316.590820312 429.810546875 l 0
 320.571289062 427.172851562 325.474609375 422.435546875 325.474609375 414.775390625 c 0
 325.474609375 409.86328125 322.279296875 403.431640625 321.435546875 401.743164062 c 1
 320 399 l 1
 316.682617188 394.0234375 311.993164062 389.125 304.825195312 389.125 c 0
 301.904296875 389.125 299.604492188 389.729492188 297.036132812 391.043945312 c 0
 207.864257812 436.666015625 l 1
 203.724609375 337.329101562 l 1
 203.724609375 327.0234375 194.111328125 320.125 185.224609375 320.125 c 0
 171.775390625 320.125 l 0
 162.888671875 320.125 153.275390625 327.0234375 153.275390625 337.329101562 c 1
 149.133789062 437.704101562 l 1
 58.939453125 390.918945312 l 0
 55.65234375 389.236328125 52.181640625 389 50 389 c 0
 42.0703125 389 37.9609375 395.30859375 36.1806640625 397.734375 c 0
 33.951171875 400.774414062 30.525390625 408.524414062 30.525390625 412.775390625 c 0
 30.525390625 418.801757812 34.6142578125 425.131835938 37.3291015625 427.202148438 c 1
 122.490234375 482.924804688 l 1
 37.3857421875 538.956054688 l 1
 31.3388671875 542.643554688 29.27734375 549.524414062 29.27734375 555 c 0
 29.27734375 566.375 40.8880956568 578.724609375 50.025390625 578.724609375 c 0
 52.1945272143 578.724609375 55.6239085568 578.47578169 58.9192021283 576.829533585 c 1
 149.279296875 531.129882812 l 1
 153.424804688 631.669645966 l 1
 153.424804688 639.728533021 160.516500941 648.875 170.775390625 648.875 c 2
EndSplineSet
Validated: 1
EndChar

StartChar: numbersign
Encoding: 35 35 71
GlifName: numbersign
Width: 695
VWidth: 0
Flags: W
HStem: 217 79<52.4689 176.12 268.881 356.119 448.881 597.665> 476 79<103.469 238.12 330.894 418.119 510.894 648.026>
VStem: 129 72.9932<3 48.2839> 309 72.9927<3 48.2836>
LayerCount: 2
Fore
SplineSet
316 737.333007812 m 2
 353 737.333007812 l 0
 358.337890625 737.333007812 370 735.122070312 370 723 c 0
 370 719.166015625 l 1
 330.893554688 555 l 1
 437.490234375 555 l 1
 477.196289062 721.64453125 l 1
 477.196289062 721.64453125 487.549804688 737.333007812 496 737.333007812 c 0
 533 737.333007812 l 0
 538.337679424 737.333007812 550 735.122397448 550 723 c 0
 550 719.16586132 l 1
 510.893554688 555 l 1
 645 555 l 0
 650.724609375 555 662 552.31640625 662 541 c 0
 662 536.48046875 660.981445312 536.806640625 660.981445312 536.806640625 c 1
 646.640783086 492.86941345 l 0
 644.238505214 485.662579833 637.875302862 476 627 476 c 0
 491.517725565 476 l 1
 448.880859375 296 l 1
 594 296 l 0
 599.724609375 296 611 293.31640625 611 282 c 0
 611 277.639648438 609.916015625 277.659179688 609.916015625 277.659179688 c 1
 595.659864378 231.843649514 l 1
 592.815843953 223.311588239 585.347426592 217 576 217 c 0
 429.517725565 217 l 1
 381.992716709 19.140779457 l 1
 381.21922395 8.95464242252 374.014670532 3 365 3 c 0
 326 3 l 0
 316.373046875 3 309 10.373046875 309 20 c 0
 309 20.8291015625 l 1
 356.119140625 217 l 1
 249.517578125 217 l 1
 201.993164062 19.140625 l 1
 201.21875 8.955078125 194.014648438 3 185 3 c 0
 146 3 l 0
 136.372856248 3 129 10.3728562482 129 20 c 0
 129 20.8288982687 l 1
 176.119529337 217 l 1
 57 217 l 0
 49.9919605644 217 40 221.44488055 40 232 c 0
 40 233.135291125 40.4633550909 236.571601393 41.9889299937 240.300784489 c 1
 54.3291015625 281.122070312 l 1
 57.193359375 289.717773438 64.6494140625 296 74 296 c 0
 195.482421875 296 l 1
 238.119529337 476 l 1
 108 476 l 0
 100.991960564 476 91 480.44488055 91 491 c 0
 91 492.229969091 91.3604838233 495.358508707 93.05356349 499.590840451 c 1
 105.329101562 540.125 l 1
 108.193359375 548.715820312 115.649414062 555 125 555 c 0
 257.490234375 555 l 1
 297.196013048 721.644919923 l 1
 297.196013048 721.644919923 307.549815441 737.333007812 316 737.333007812 c 2
311.517578125 476 m 1
 268.880859375 296 l 1
 375.482421875 296 l 1
 418.119140625 476 l 1
 311.517578125 476 l 1
EndSplineSet
Validated: 1
EndChar

StartChar: six
Encoding: 54 54 72
GlifName: six
Width: 480
VWidth: 0
Flags: W
HStem: -8 39<190.847 306.655> 339.37 59.9648<201.992 320.231> 617.875 20G<373.601 389.089>
VStem: 14 100<141.903 376.719> 370 97<111.866 285.231>
LayerCount: 2
Fore
SplineSet
396.1875 604.46484375 m 0
 396.1875 597.263671875 386.125976562 589.928710938 375.80859375 587.127929688 c 0
 341.296875 578.466796875 289.8828125 557.52734375 237.897460938 523.624023438 c 0
 142.956054688 461.705078125 114 354.544921875 114 256.75390625 c 0
 114 167.934570312 153.028320312 31 244.24609375 31 c 0
 324.712890625 31 370 100.237304688 370 195.278320312 c 0
 370 291.334960938 316.28515625 339.370117188 258.619140625 339.370117188 c 0
 209.227539062 339.370117188 186.645507812 318.545898438 167.014648438 298.584960938 c 1
 162.13671875 293.677734375 156.927734375 291.859375 152.705078125 291.859375 c 0
 143.015625 291.859375 140.895507812 302.147460938 140.895507812 307.254882812 c 0
 140.895507812 311.516601562 142.215820312 315.79296875 144.83203125 319.717773438 c 1
 165.224609375 346.525390625 197.717773438 399.334960938 282.31640625 399.334960938 c 0
 356.052734375 399.334960938 467 353.8671875 467 207.3671875 c 0
 467 94.8271484375 382.161132812 -8 243.17578125 -8 c 0
 111.903320312 -8 14 114.655273438 14 252.34765625 c 0
 14 409.750976562 101.805664062 504.708984375 173.31640625 556.297851562 c 0
 230.6796875 596.647460938 322.629882812 625.892578125 373.600585938 635.858398438 c 0
 386.581054688 637.875 l 1
 389.088867188 633.453125 l 0
 389.182617188 633.291992188 396.1875 614.9375 396.1875 604.46484375 c 0
EndSplineSet
EndChar

StartChar: nine
Encoding: 57 57 73
GlifName: nine
Width: 480
VWidth: 0
Flags: W
HStem: -10.1953 21G<102.973 109.767> 246 55.2666<167.549 275.888> 602 39<172.713 290.753>
VStem: 27 95<358.465 533.126> 360 95<244.56 510.402>
LayerCount: 2
Fore
SplineSet
98.908203125 12 m 4
 98.908203125 19.3095703125 103.651367188 30.8642578125 112.905273438 33.8798828125 c 4
 144.407226562 44.146484375 189.185546875 68.2099609375 239.622070312 104.138671875 c 5
 335.0390625 169.375976562 360 256.771484375 360 387.178710938 c 4
 360 520.061523438 314.505859375 602 226.954101562 602 c 4
 165.375 602 122 546.327148438 122 457.396484375 c 4
 122 374.254882812 163.274414062 301.266601562 211.114257812 301.266601562 c 4
 257.26171875 301.266601562 298 334 306.004882812 342.510742188 c 4
 307.259765625 343.778320312 l 5
 311.426757812 348.006835938 315.831054688 350.931640625 320.963867188 350.931640625 c 4
 326.727539062 350.931640625 333.647460938 346.146484375 333.647460938 339.381835938 c 4
 333.647460938 333.79296875 330.864257812 324.604492188 327 319 c 4
 300.653320312 280.79296875 265.43359375 246 196.701171875 246 c 4
 132.994140625 246 27 299.489257812 27 445.46484375 c 4
 27 559.444335938 121.249023438 641 228.034179688 641 c 4
 371.302734375 641 455 553.359375 455 379.581054688 c 4
 455 200.604492188 363.67578125 125.780273438 295.453125 73.666015625 c 5
 240.365234375 33.7294921875 158.151367188 3.3349609375 109.766601562 -8.7734375 c 4
 104.31640625 -10.1953125 l 5
 101.62890625 -4.9140625 98.908203125 5.2587890625 98.908203125 12 c 4
EndSplineSet
EndChar

StartChar: exclam
Encoding: 33 33 74
GlifName: exclam
Width: 246
VWidth: 0
Flags: W
HStem: -18.0996 116.1<83.1898 173.213> 731.434 20G<110.276 145.774>
VStem: 70 116.507<-4.75248 84.6975 613.616 741.372> 89.5156 77.9844<205.186 374.571>
LayerCount: 2
Fore
SplineSet
70 40 m 0xe0
 70 71.8525390625 95.6669921875 98 128.506835938 98 c 0
 160.387695312 98 186.506835938 71.880859375 186.506835938 40 c 0
 186.506835938 8.1318359375 160.40625 -18.099609375 128.506835938 -18.099609375 c 0
 95.6494140625 -18.099609375 70 8.16015625 70 40 c 0xe0
188.506835938 696.865234375 m 1
 167.5 233.684570312 l 1
 166.639648438 217.037109375 147.951171875 201.1171875 129.168945312 200.712890625 c 0
 129.006835938 200.708984375 l 1
 128.84375 200.711914062 l 0
 109.37109375 201.1015625 90.4921875 216.541015625 89.515625 233.650390625 c 1xd0
 66.5068359375 696.850585938 l 1
 66.5068359375 730.15234375 92.623046875 751.43359375 127.928710938 751.43359375 c 0
 163.620117188 751.43359375 188.506835938 729.65234375 188.506835938 696.865234375 c 1
EndSplineSet
EndChar

StartChar: percent
Encoding: 37 37 75
GlifName: percent
Width: 894
VWidth: 0
Flags: W
HStem: -16 42<637.922 717.323> 249 42<178.42 260.059> 342 42<637.919 717.32> 607 42<178.417 260.057>
VStem: 52 87<344.821 553.182> 302.443 87.9103<344.841 553.156> 506.621 88.9355<81.2548 286.748> 759 87<79.8282 288.169>
LayerCount: 2
Fore
SplineSet
220.181640625 607 m 0
 173.393554688 607 139 542.018554688 139 449 c 0
 139 355.999023438 173.405273438 291 220.181640625 291 c 0
 265.944335938 291 302.443359375 356.032226562 302.443359375 449 c 0
 302.443359375 541.952148438 265.93359375 607 220.181640625 607 c 0
220.181328546 249 m 0
 126.63671875 249 52 322.0859375 52 449 c 0
 52 575.9140625 126.63671875 649 220.181328546 649 c 0
 314.906172857 649 390.353680431 575.858398438 390.353680431 449 c 0
 390.353680431 322.141601562 314.906172857 249 220.181328546 249 c 0
677.818359375 342 m 0
 632.055664062 342 595.556640625 276.967773438 595.556640625 184 c 0
 595.556640625 91.0478515625 632.06640625 26 677.818359375 26 c 0
 723.581054688 26 759 91.0322265625 759 184 c 0
 759 276.952148438 723.571289062 342 677.818359375 342 c 0
677.818359375 -16 m 0
 583.133789062 -16 506.62109375 57.0859375 506.62109375 184 c 0
 506.62109375 310.9140625 583.133789062 384 677.818359375 384 c 0
 771.36328125 384 846 310.9140625 846 184 c 0
 846 57.0859375 771.36328125 -16 677.818359375 -16 c 0
666.081054688 709.216796875 m 1
 686 694 l 2
 690.489257812 691.419921875 694.866210938 686.88671875 694.866210938 680.33203125 c 0
 692.58203125 671.174804688 l 1
 247.536132812 -64.708984375 l 1
 244.428710938 -69.7607421875 238.99609375 -70.8271484375 235.203125 -70.8271484375 c 0
 225.79907008 -70.8271484375 211.689453125 -59.435546875 205.354492188 -56.126953125 c 0
 200.181640625 -53.15234375 197.103515625 -47.90234375 197.103515625 -42.392578125 c 0
 197.103515625 -39.056640625 198.1875 -36.10546875 199.586914062 -33.423828125 c 0
 643.706054688 702.705078125 l 1
 646.600585938 707.329101562 651.626953125 711.123046875 658.08984375 711.123046875 c 0
 661.93359375 711.123046875 666.081054688 709.216796875 666.081054688 709.216796875 c 1
EndSplineSet
Validated: 1
EndChar

StartChar: seven
Encoding: 55 55 76
GlifName: seven
Width: 480
VWidth: 0
Flags: W
HStem: 0 21G<73.6201 183.762> 548 74<58.4876 330.423>
VStem: 73.6201 96.165<0 90.2805>
LayerCount: 2
Fore
SplineSet
330.422851562 548 m 5
 81.7607421875 548 l 6
 65.9677734375 548 60.2587890625 536.4296875 58.3974609375 532 c 5
 52.7607421875 532 l 4
 45.236328125 532 43.88671875 538.9765625 43.88671875 538.9765625 c 4
 44.0849609375 545.694335938 l 6
 47.2431640625 562.608398438 50.9384765625 591.762695312 54.26171875 607.599609375 c 4
 55.837890625 615.110351562 57.1318359375 622 66.7607421875 622 c 4
 419.760742188 622 l 6
 432.178710938 622 436.750976562 619.139648438 436.750976562 614.4609375 c 4
 436.750976562 610.694335938 433.73046875 604.899414062 430.932617188 601.092773438 c 5
 426.599609375 594.58984375 l 6
 303.370117188 409.294921875 197.739257812 169.026367188 169.78515625 0 c 5
 73.6201171875 0 l 5
 99.255859375 164.938476562 218.294921875 397.515625 330.422851562 548 c 5
EndSplineSet
EndChar

StartChar: eight
Encoding: 56 56 77
GlifName: eight
Width: 480
VWidth: 0
Flags: W
HStem: -8 38<186.081 297.106> 609 34<197.682 297.951>
VStem: 37 98<79.8268 223.58> 69 95<454.242 579.976> 331 82<455.531 576.875> 352 93<82.6799 216.208>
LayerCount: 2
Fore
SplineSet
135 156 m 4xe4
 135 73.486328125 187.715820312 30 244.272460938 30 c 4
 299.125976562 30 352 88.732421875 352 149 c 4
 352 214.286132812 294.775390625 266.721679688 224.956054688 313.278320312 c 5
 154.9921875 246.598632812 135 218.119140625 135 156 c 4xe4
164 514 m 4xd8
 164 465.163085938 191.345703125 438.35546875 249.209960938 402.049804688 c 5
 287.973632812 436.91796875 331 456.78125 331 511 c 4
 331 574.677734375 298.907226562 609 244.272460938 609 c 4
 189.306640625 609 164 557.396484375 164 514 c 4xd8
413 513.779296875 m 4
 413 449.196289062 334.373046875 402.047851562 288.515625 366.467773438 c 5
 372.28515625 306.94921875 445 247.122070312 445 146.673828125 c 4
 445 76.2744140625 362.197265625 -8 243.181640625 -8 c 4
 143.981445312 -8 37 51.0087890625 37 149.610351562 c 4xe4
 37 228.719726562 101.25 280.470703125 179.244140625 340.186523438 c 5
 121.349609375 385.061523438 69 427.857421875 69 517.737304688 c 4
 69 564.458984375 107.381835938 643 244.272460938 643 c 4
 333.46875 643 413 587.563476562 413 513.779296875 c 4
EndSplineSet
EndChar

StartChar: question
Encoding: 63 63 78
GlifName: question
Width: 462
VWidth: 0
Flags: W
HStem: -10.7061 123.452<169.245 262.591> 685 57.333<156.996 299.072>
VStem: 41.8008 89.4697<590.125 661.547> 154.192 123.451<4.3463 97.6933> 330 86.4443<527.391 649.627>
LayerCount: 2
Fore
SplineSet
215.91796875 -10.7060546875 m 0
 181.829101562 -10.7060546875 154.192382812 16.9306640625 154.192382812 51.01953125 c 0
 154.192382812 85.1083984375 181.828125 112.74609375 215.91796875 112.74609375 c 0
 250.006835938 112.74609375 277.643554688 85.1083984375 277.643554688 51.01953125 c 0
 277.643554688 16.9306640625 250.006835938 -10.7060546875 215.91796875 -10.7060546875 c 0
172.041992188 199.23828125 m 2
 166.967773438 245.600585938 157.118164062 340.268554688 157.1171875 340.275390625 c 0
 157.080078125 340.63671875 l 1
 157.080078125 341 l 0
 157.080078125 395.13671875 208.827148438 433.203125 244.3125 465.19921875 c 0
 306.651367188 521.40625 330 535.983398438 330 593 c 0
 330 654.891601562 289.794921875 685 219.444335938 685 c 0
 159.109375 685 135.424804688 645.072265625 131.270507812 626.448242188 c 0
 125.259765625 599.504882812 105.418945312 581 85.4443359375 581 c 0
 63.3251953125 581 41.80078125 601.640625 41.80078125 625 c 0
 41.80078125 694.3984375 145.646217303 742.333007812 223.444335938 742.333007812 c 0
 311.029005406 742.333007812 416.444335938 682.974609375 416.444335938 569 c 4
 416.444335938 509.756835938 382.760742188 468.549804688 328.279296875 426.4609375 c 0
 292.44140625 398.774414062 258.677734375 360.309570312 257.98828125 348.588867188 c 1
 257.98828125 348.588867188 253 212.576171875 253 200 c 0
 253 193 l 1
 172.724609375 193 l 1
 172.041992188 199.23828125 l 2
EndSplineSet
EndChar

StartChar: quotesingle
Encoding: 39 39 79
GlifName: quotesingle
Width: 187
VWidth: 0
Flags: W
HStem: 494 180<69.8242 117.959>
VStem: 58 72<559.812 671.317>
LayerCount: 2
Fore
SplineSet
92 674 m 2
 96 674 l 0
 117.575665284 674 130 656.615152816 130 636 c 0
 130 628.644983318 l 1
 117.964081861 510.291788285 l 1
 117.964081861 510.291788285 110.666056561 494 101 494 c 0
 87 494 l 0
 76.8708782569 494 70.7236642676 500.706748291 69.8775991694 511.848591486 c 1
 58 628.644983318 l 1
 58 634 l 0
 58 654.631474702 71.9012019561 674 92 674 c 2
EndSplineSet
Validated: 1
EndChar

StartChar: quotedbl
Encoding: 34 34 80
GlifName: quotedbl
Width: 304
VWidth: 0
Flags: W
HStem: 494 180<69.8242 117.959 185.824 233.959>
VStem: 58 73<559.812 671.198> 174 73<559.812 671.198>
LayerCount: 2
Fore
SplineSet
208 674 m 2
 212 674 l 0
 233.032518313 674 247 658.184604933 247 637 c 0
 247 635.269145265 246.619151267 630.366243306 245.883382856 627.498248073 c 1
 233.964081861 510.291788285 l 1
 233.964081861 510.291788285 226.666056561 494 217 494 c 0
 203 494 l 0
 192.870878257 494 186.723664268 500.706748291 185.877599169 511.848591486 c 1
 174 628.644983318 l 1
 174 634 l 0
 174 654.631474702 187.901201956 674 208 674 c 2
92 674 m 2
 96 674 l 0
 117.032518313 674 131 658.184604933 131 637 c 0
 131 635.269145265 130.619151267 630.366243306 129.883382856 627.498248073 c 1
 117.964081861 510.291788285 l 1
 117.964081861 510.291788285 110.666056561 494 101 494 c 0
 87 494 l 0
 76.8708782569 494 70.7236642676 500.706748291 69.8775991694 511.848591486 c 1
 58 628.644983318 l 1
 58 634 l 0
 58 654.631474702 71.9012019561 674 92 674 c 2
EndSplineSet
Validated: 1
EndChar

StartChar: underscore
Encoding: 95 95 81
GlifName: underscore
Width: 429
VWidth: 0
Flags: W
HStem: -8 64<54.0629 372.83>
VStem: 53 320.74<-8 56>
LayerCount: 2
Fore
SplineSet
69.75 -8 m 2
 55.1708984375 -8 53 12.9111328125 53 22 c 4
 53 31.0888671875 55.1708984375 56 69.75 56 c 0
 357.75 56 l 0
 371.729492188 56 373.740234375 31.708984375 373.740234375 23 c 4
 373.740234375 14.3212890625 372.619140625 -8 357.75 -8 c 0
 69.75 -8 l 2
EndSplineSet
Validated: 1
EndChar

StartChar: bracketleft
Encoding: 91 91 82
GlifName: bracketleft
Width: 311
VWidth: 0
Flags: W
HStem: -128 54<155 273.36> 735 54<155 273.36>
VStem: 67 88<-74 735>
LayerCount: 2
Fore
SplineSet
155 735 m 1
 155 -74 l 1
 258 -74 l 0
 271.694335938 -74 273.62890625 -91.34765625 273.62890625 -100.284179688 c 4
 273.62890625 -109.485351562 271.779296875 -128 258 -128 c 0
 93 -128 l 0
 76.6279296875 -128 67 -117.958007812 67 -101 c 0
 67 761 l 0
 67 778.852539062 78.6328125 789 97 789 c 0
 258 789 l 0
 271.694335938 789 273.62890625 771.65234375 273.62890625 762.715820312 c 0
 273.62890625 753.514648438 271.779296875 735 258 735 c 0
 155 735 l 1
EndSplineSet
Validated: 1
EndChar

StartChar: bracketright
Encoding: 93 93 83
GlifName: bracketright
Width: 311
VWidth: 0
Flags: W
HStem: -128 54<36.6326 155> 735 54<36.6326 155>
VStem: 155 88<-74 735>
LayerCount: 2
Fore
SplineSet
155 735 m 1
 52 735 l 0
 38.220703125 735 36.37109375 752.514648438 36.37109375 761.715820312 c 4
 36.37109375 770.65234375 38.3056640625 789 52 789 c 0
 213 789 l 0
 231.3671875 789 243 778.852539062 243 761 c 0
 243 -101 l 0
 243 -117.958007812 233.372070312 -128 217 -128 c 0
 52 -128 l 0
 38.220703125 -128 36.37109375 -110.485351562 36.37109375 -101.284179688 c 0
 36.37109375 -92.34765625 38.3056640625 -74 52 -74 c 0
 155 -74 l 1
 155 735 l 1
EndSplineSet
EndChar

StartChar: bar
Encoding: 124 124 84
GlifName: bar
Width: 220
VWidth: 0
Flags: W
HStem: 732.376 20G<106.445 117.312>
VStem: 67 87<-62.5893 750.677>
LayerCount: 2
Fore
SplineSet
154 -47 m 6
 154 -63.125 121.40625 -64.498046875 110 -64.498046875 c 4
 98.6826171875 -64.498046875 67 -62.7822265625 67 -47 c 4
 67 736 l 4
 67 751.85546875 100.889648438 752.375976562 112 752.375976562 c 4
 122.624023438 752.375976562 154 751.375 154 736 c 4
 154 -47 l 6
EndSplineSet
Validated: 1
EndChar

StartChar: asciitilde
Encoding: 126 126 85
GlifName: asciitilde
Width: 510
VWidth: 0
Flags: W
HStem: 219.362 85.625<263.191 379.779> 294.54 84.9473<94.4849 206.353>
LayerCount: 2
Fore
SplineSet
152 379.487304688 m 0x40
 235.0859375 379.487304688 251.467773438 304.987304688 328 304.987304688 c 0
 383.951171875 304.987304688 419.365234375 354.37890625 436 354.37890625 c 0
 443.178710938 354.37890625 461.186523438 352.212443375 461.186523438 342 c 0
 461.186523438 312.269375405 387.826171875 219.362304688 318 219.362304688 c 0x80
 234.40625 219.362304688 218.961914062 294.540039062 147 294.540039062 c 0
 103.56640625 294.540039062 70.4267578125 253.85546875 44 253.85546875 c 0
 33.91796875 253.85546875 18.84765625 261.241410812 18.84765625 271 c 0
 18.84765625 284.519445156 86.689453125 379.487304688 152 379.487304688 c 0x40
EndSplineSet
Validated: 1
EndChar

StartChar: dieresis
Encoding: 168 168 86
GlifName: dieresis
Width: 427
VWidth: 0
Flags: W
HStem: 616.573 106.894<54.3684 140.025 277.725 363.382>
VStem: 43.75 106.894<627.192 712.848> 267.106 106.894<627.192 712.848>
LayerCount: 2
Fore
SplineSet
267.106445312 670.01953125 m 0
 267.106445312 699.536577006 291.036605448 723.466796875 320.553710938 723.466796875 c 0
 350.069894382 723.466796875 374 699.536569465 374 670.01953125 c 0
 374 640.503414958 350.069886764 616.573242188 320.553710938 616.573242188 c 0
 291.036732336 616.573242188 267.106445312 640.503288147 267.106445312 670.01953125 c 0
43.75 670.01953125 m 0
 43.75 699.536577006 67.6801601352 723.466796875 97.197265625 723.466796875 c 0
 126.71344907 723.466796875 150.643554688 699.536569465 150.643554688 670.01953125 c 0
 150.643554688 640.503414958 126.713441452 616.573242188 97.197265625 616.573242188 c 0
 67.6802870229 616.573242188 43.75 640.503288147 43.75 670.01953125 c 0
EndSplineSet
Validated: 1
EndChar

StartChar: grave
Encoding: 96 96 93
GlifName: grave
Width: 251
VWidth: 0
Flags: W
HStem: 528.192 222.708
VStem: 14.0681 222.646
LayerCount: 2
Fore
SplineSet
213.810933442 528.191678276 m 2
 160.904562281 563.777986462 45.3832417513 646.828591437 29.1889244067 663.022908782 c 0
 18.9118306446 673.300002544 14.0681073054 686.761749381 14.0681073054 699.999999324 c 0
 14.0681073054 727.183107717 37.8744775399 750.899839494 64.9999993237 750.899839494 c 0
 78.2331671136 750.899839494 91.6789973848 746.044542704 101.944701923 735.77998832 c 0
 118.18875982 719.53699848 200.496993578 603.320250145 236.7144947 551.24689814 c 0
 240.05754483 546.440276456 l 1
 218.592638081 524.975369707 l 1
 213.810933442 528.191678276 l 2
EndSplineSet
Validated: 1
EndChar

StartChar: acute
Encoding: 180 180 94
GlifName: acute
Width: 251
VWidth: 0
Flags: W
HStem: 524.975 225.928
VStem: 20.378 225.993
LayerCount: 2
Fore
SplineSet
41.8429087942 524.975369707 m 1
 20.3780020451 546.440276456 l 1
 23.7210521755 551.246898139 l 0
 59.9345634004 603.314513491 142.253079835 719.543290846 158.490844952 735.77998832 c 0
 168.550290008 745.838771963 181.725310308 750.903593683 194.869635556 750.903593683 c 0
 208.013694135 750.903593683 221.188667119 745.838757501 231.247460376 735.779964244 c 0
 241.306581427 725.721406728 246.371459964 712.546750691 246.371459964 699.402576757 c 0
 246.371459964 686.258030048 241.306314739 673.082601052 231.246622468 663.022908782 c 0
 215.04647282 646.822759133 99.5362742307 563.78154442 46.6246134336 528.191678276 c 0
 41.8429087942 524.975369707 l 1
EndSplineSet
Validated: 1
EndChar

StartChar: less
Encoding: 60 60 114
GlifName: less
Width: 468
VWidth: 0
Flags: W
LayerCount: 2
Fore
SplineSet
154.207889884 324 m 1
 428 166.042946618 l 1
 428 81.9839697855 l 1
 26 309.922114115 l 1
 26 334.077885885 l 1
 428 562.016030214 l 1
 428 481.957053382 l 1
 154.207889884 324 l 1
EndSplineSet
Validated: 1
EndChar

StartChar: greater
Encoding: 62 62 115
GlifName: greater
Width: 484
VWidth: 0
Flags: W
LayerCount: 2
Fore
SplineSet
317.792110116 324 m 1
 44 481.957053382 l 1
 44 562.016030214 l 1
 446 334.077885885 l 1
 446 309.922114115 l 1
 44 81.9839697855 l 1
 44 166.042946618 l 1
 317.792110116 324 l 1
EndSplineSet
Validated: 1
EndChar

StartChar: asciicircum
Encoding: 94 94 116
GlifName: asciicircum
Width: 507
VWidth: 0
Flags: W
HStem: 552.117 223.337
LayerCount: 2
Fore
SplineSet
441.387695312 584.474609375 m 6
 436.897460938 571.577148438 424.900298767 555.666765774 413.932018678 552.116549874 c 4
 410.590543345 551.034980224 l 5
 255 661.417340604 l 5
 99.4224849251 551.044223017 l 5
 96.0923001809 552.108727335 l 4
 83.5450678182 556.119490717 71.80078125 572.990234375 68.48046875 584.895507812 c 4
 67.3828125 588.834960938 l 5
 255 775.453125 l 5
 442.831054688 588.62109375 l 5
 441.387695312 584.474609375 l 6
EndSplineSet
Validated: 1
EndChar

StartChar: divide
Encoding: 247 247 137
GlifName: divide
Width: 417
VWidth: 0
Flags: W
HStem: 139.3 85.4004<170.177 244.871> 259 78<82.8643 349.355> 370 85.4004<170.177 244.871>
VStem: 164.45 86.0996<144.979 219.021 375.679 449.721>
LayerCount: 2
Fore
SplineSet
207.849609375 370 m 0
 183.7734375 370 164.450195312 389.15625 164.450195312 412.700195312 c 0
 164.450195312 436.243164062 183.7734375 455.400390625 207.849609375 455.400390625 c 0
 231.331054688 455.400390625 250.549804688 436.180664062 250.549804688 412.700195312 c 0
 250.549804688 389.219726562 231.33203125 370 207.849609375 370 c 0
207.849609375 139.299804688 m 4
 183.7734375 139.299804688 164.450195312 158.456054688 164.450195312 182 c 4
 164.450195312 205.54296875 183.7734375 224.700195312 207.849609375 224.700195312 c 4
 231.331054688 224.700195312 250.549804688 205.48046875 250.549804688 182 c 4
 250.549804688 158.51953125 231.33203125 139.299804688 207.849609375 139.299804688 c 4
82.8642578125 259 m 1
 81.7861328125 259.359375 l 2
 69.7568359375 263.369140625 68 278.216796875 68 299 c 0
 68 318.826171875 69.8525390625 337 84 337 c 0
 337 337 l 0
 349.67578125 337 350 314.130859375 350 296 c 3
 350 279.265625 349.497070312 259 337 259 c 0
 82.8642578125 259 l 1
EndSplineSet
Validated: 1
EndChar

StartChar: dollar
Encoding: 36 36 142
GlifName: dollar
Width: 583
VWidth: 0
Flags: W
HStem: 26.2539 44.7461<308 368.795> 574.276 44.9648<242.834 300.742>
VStem: 120.485 94.334<443.351 532.965> 409.642 89.6416<131.441 231.235>
LayerCount: 2
Fore
SplineSet
331.958984375 269.723632812 m 1
 323.091796875 191.916015625 313.905273438 125.515625 308 71 c 1
 368.71875 76.2958984375 409.641601562 119.544921875 409.641601562 173 c 0
 409.641601562 221.630859375 382.61328125 243.025390625 331.958984375 269.723632812 c 1
378.240234375 649.137695312 m 0
 376.396484375 635.106445312 374.279296875 618.463867188 372.48828125 604.059570312 c 1
 424.533203125 597.3515625 476.940429688 581.022460938 476.940429688 560.21875 c 0
 476.940429688 550.43359375 464.5625 501.086914062 447 501.086914062 c 0
 429.470703125 501.086914062 410.211914062 543.302734375 366 561 c 1
 357.971679688 500.204101562 352.422851562 439.161132812 344.6015625 373.796875 c 1
 426.022460938 326.9609375 499.283203125 284.061523438 499.283203125 211.975585938 c 0
 499.283203125 143.288085938 458.5625 97.890625 417.309570312 64.9912109375 c 0
 388.594726562 42.0908203125 344.662206046 28.5 303.93101367 26.25390625 c 1
 300.051852492 -9.3564453125 298.664738837 -22.4482421875 298.205250682 -26.7705078125 c 1
 287.926770937 -42.5595703125 272.947457077 -46.9423828125 258.260053339 -46.9423828125 c 0
 247.335046731 -46.9423828125 236.371118773 -44.2734375 228.848486811 -38.046875 c 0
 225.85154289 -35.56640625 l 1
 226.405090974 -31.9287109375 l 0
 229.72205488 -10.12109375 233.13632216 12.7265625 236.066234868 32.646484375 c 1
 157.1640625 48.869140625 104.559570312 98.0703125 104.559570312 129.079101562 c 0
 104.559570312 148.576171875 128.393554688 183.200195312 147 183.200195312 c 0
 164.430664062 183.200195312 183.7890625 112.536132812 244.783203125 85.1259765625 c 1
 255.88671875 163.348632812 265.059570312 237.180664062 273.361328125 307.921875 c 1
 201.703125 348.012695312 120.485351562 398.454101562 120.485351562 461.9296875 c 0
 120.485351562 534.974609375 185.328125 611.010742188 303.695323275 619.241210938 c 1
 305.203525573 637.60546875 306.400357074 652.622070312 307.749630527 670 c 0
 307.773415796 670 l 1
 307.829635524 670 l 0
 310.356279803 673.526367188 331.481923457 674.556640625 342.399362025 674.556640625 c 0
 358.088990515 674.556640625 377.25 664.998046875 378.28125 650.493164062 c 0
 378.329101562 649.813476562 l 1
 378.240234375 649.137695312 l 0
285.822265625 407.481445312 m 1
 291.938476562 465.294921875 295.7734375 516.62890625 300.7421875 574.276367188 c 1
 233.213867188 570.961914062 214.819335938 522.663085938 214.819335938 490.696289062 c 0
 214.819335938 454.3671875 243.368164062 432.202148438 285.822265625 407.481445312 c 1
EndSplineSet
Validated: 1
EndChar

StartChar: cent
Encoding: 162 162 143
GlifName: cent
Width: 530
VWidth: 0
Flags: W
HStem: 120.46 35.9138<299.736 377.302> 429.293 94.4472<349.644 389.19> 509 21.7169<237.934 269>
VStem: 99.3438 73.3223<242.216 440.236>
LayerCount: 2
Fore
SplineSet
428.763671875 201.010742188 m 1xd0
 440.502679024 184.613674728 l 1
 436.300158794 180.432923796 l 0
 393.484258276 137.838812123 351.789899489 121.813772676 295.241771379 120.460187164 c 1
 286.875316879 9.400390625 l 1
 231.796691894 9.400390625 l 1
 240.564705071 125.812535784 l 1
 160.244297752 145.696826557 99.34375 216.889704602 99.34375 333 c 0
 99.34375 462.466125463 165.727079264 526.212910635 271.063877324 530.716941413 c 1xb0
 276.930287712 608.599609375 l 1
 332.010969921 608.599609375 l 1
 325.618961904 523.740158303 l 1
 366.704814615 513.844979519 429.9140625 494.176430032 429.9140625 455.400390625 c 0
 429.9140625 436.361696288 403.257286534 429.29296875 388.970703125 429.29296875 c 0
 351.291434605 429.29296875 338.87890625 472.588867188 322.653320312 490.065429688 c 1
 299.736328125 156.856445312 l 1
 303.64453125 156.533203125 307.510742188 156.374023438 311.5703125 156.374023438 c 0
 342.311523438 156.374023438 385.209960938 167.971679688 423.0078125 196.64453125 c 0
 428.763671875 201.010742188 l 1xd0
269 509 m 1
 211.532226562 503.780273438 172.666015625 438.31062196 172.666015625 350.986328125 c 0
 172.666015625 282.975426878 197.7265625 205.095703125 245.982421875 174.452148438 c 1
 269 509 l 1
EndSplineSet
Validated: 1
EndChar

StartChar: cedilla
Encoding: 184 184 145
GlifName: cedilla
Width: 530
VWidth: 0
Flags: W
HStem: -158.981 38.7422<222.805 296.676>
VStem: 297.775 63.0029<-118.719 -61.2757>
LayerCount: 2
Fore
SplineSet
284.055984022 30.9920178574 m 1
 342.351724141 31.1102130313 l 1
 309.692205183 -27.1156010789 l 1
 343.709586051 -32.25717655 360.778320312 -57.2554721063 360.778320312 -92 c 0
 360.778320312 -141.833189313 309.164291303 -158.981445312 277 -158.981445312 c 0
 239.975031473 -158.981445312 212.228152387 -143.984768575 196.609071082 -124.442635178 c 0
 193.462202419 -120.505366014 l 1
 212.771249923 -90.6325446941 l 1
 218.893889669 -97.2579438238 l 0
 232.827249336 -112.335438639 253.196944545 -120.239257812 267 -120.239257812 c 0
 284.929388503 -120.239257812 297.775390625 -107.647016318 297.775390625 -94 c 0
 297.775390625 -75.7761803351 282.458984375 -59 265 -59 c 0
 257.81640625 -59 245.017578125 -64.654296875 240 -68 c 0
 227 -63 l 1
 284.055984022 30.9920178574 l 1
EndSplineSet
Validated: 1
EndChar

StartChar: braceleft
Encoding: 123 123 147
GlifName: braceleft
Width: 282
VWidth: 0
Flags: W
HStem: -126.934 32.0635<208.456 255.573> 766.33 32.0635<208.456 255.573>
VStem: 97.1592 83.7949<-74.2853 232.633 438.827 745.745> 117.799 80.6191<-6.16313 288.64 382.72 677.623>
LayerCount: 2
Fore
SplineSet
247.634765625 766.330078125 m 2xe0
 218.94921875 766.330078125 180.954101562 744.859375 180.954101562 682.1640625 c 0xe0
 180.954101562 616.86328125 198.41796875 487.837890625 198.41796875 438.684570312 c 0
 198.41796875 384.780273438 180.543945312 350.814453125 149.209960938 335.73046875 c 1
 181.559570312 320.15625 198.41796875 285.987304688 198.41796875 232.775390625 c 0xd0
 198.41796875 183.619140625 180.954101562 54.599609375 180.954101562 -10.7041015625 c 0
 180.954101562 -73.4013671875 218.950195312 -94.8701171875 247.634765625 -94.8701171875 c 0
 255.573242188 -94.8701171875 l 1
 255.573242188 -126.93359375 l 1
 247.634765625 -126.93359375 l 0
 217.459960938 -126.93359375 97.1591796875 -118.086914062 97.1591796875 -9.201171875 c 0xe0
 97.1591796875 86.62890625 117.798828125 154.567382812 117.798828125 238.788085938 c 0
 117.798828125 309.67578125 37.3115234375 302.499023438 37.3115234375 336.266601562 c 0
 37.3115234375 368.166015625 117.798828125 362.645507812 117.798828125 432.671875 c 0xd0
 117.798828125 516.895507812 97.1591796875 584.828125 97.1591796875 680.661132812 c 0
 97.1591796875 789.547851562 217.459960938 798.393554688 247.634765625 798.393554688 c 0
 255.573242188 798.393554688 l 1
 255.573242188 766.330078125 l 1
 247.634765625 766.330078125 l 2xe0
EndSplineSet
Validated: 1
EndChar

StartChar: braceright
Encoding: 125 125 148
GlifName: braceright
Width: 277
VWidth: 0
Flags: W
HStem: -126.934 32.0635<20.9492 68.0657> 766.33 32.0635<20.9492 68.0657>
VStem: 78.1045 80.6191<-6.16313 288.118 383.687 677.623> 95.5684 83.7949<-74.2852 232.633 438.827 745.745>
LayerCount: 2
Fore
SplineSet
20.94921875 766.330078125 m 5xd0
 20.94921875 798.393554688 l 5
 28.88671875 798.393554688 l 4
 59.0615234375 798.393554688 179.36328125 789.546875 179.36328125 680.661132812 c 0xd0
 179.36328125 584.831054688 158.723632812 516.892578125 158.723632812 432.671875 c 0
 158.723632812 362.6328125 239.250976562 368.157226562 239.250976562 336.266601562 c 0
 239.250976562 302.506835938 158.723632812 309.690429688 158.723632812 238.788085938 c 0xe0
 158.723632812 154.564453125 179.36328125 86.6318359375 179.36328125 -9.201171875 c 0
 179.36328125 -118.087890625 59.0615234375 -126.93359375 28.88671875 -126.93359375 c 4
 20.94921875 -126.93359375 l 5
 20.94921875 -94.8701171875 l 5
 28.88671875 -94.8701171875 l 4
 57.572265625 -94.8701171875 95.568359375 -73.3994140625 95.568359375 -10.7041015625 c 4xd0
 95.568359375 54.5966796875 78.1044921875 183.622070312 78.1044921875 232.775390625 c 4
 78.1044921875 286.6796875 95.9775390625 320.645507812 127.3125 335.73046875 c 5
 94.9619140625 351.303710938 78.1044921875 385.47265625 78.1044921875 438.684570312 c 4xe0
 78.1044921875 487.840820312 95.568359375 616.860351562 95.568359375 682.1640625 c 4
 95.568359375 744.861328125 57.5712890625 766.330078125 28.88671875 766.330078125 c 4
 20.94921875 766.330078125 l 5xd0
EndSplineSet
Validated: 1
EndChar

StartChar: ampersand
Encoding: 38 38 149
GlifName: ampersand
Width: 792
VWidth: 0
Flags: W
HStem: -17 49.9297<179.786 323.352 621.15 741.475> 334.605 29.3946<534.396 569.318 636.256 677> 702 40<208.998 315.713>
VStem: 17 102<96.6199 252.299> 86 91<535.519 650.045> 342 71<534.45 677.456>
LayerCount: 2
Fore
SplineSet
257.958887228 460.430368153 m 1xec
 341.411446719 533.429895398 342 577.927734375 342 619 c 0
 342 665.80859375 312.100585938 702 259 702 c 0
 201.755859375 702 177 643.719726562 177 604 c 0
 177 562.693359375 207.664389418 511.093425133 257.958887228 460.430368153 c 1xec
480 235 m 1
 502 254 514.245673018 262.782755276 537.436523438 284.30859375 c 0
 549.963867188 295.936523438 569.328125 314.129882812 569.328125 322.915039062 c 0
 569.328125 329.080078125 555.094726562 334.419921875 541.280273438 334.604492188 c 2
 534.396484375 334.696289062 l 1
 534.301757812 363.998046875 l 1
 677 364.000115205 l 1
 677 334.68359375 l 1
 670.079101562 334.60546875 l 2
 658.08203125 334.470703125 649.680664062 328.149414062 641.791015625 323.760742188 c 0
 628.196289062 316.198242188 582.27734375 278.377929688 569.950195312 266.049804688 c 0
 547.368164062 243.46875 525.046875 225.038085938 508.627929688 201.28515625 c 1
 550.235351562 139.87109375 616.840820312 29 669 29 c 0
 736.373046875 29 756.477539062 63.5927734375 763.958984375 76.3818359375 c 1
 779.624169483 60.3539167224 l 1
 766.724658357 21.4794142268 732.470905526 -23 654 -23 c 0
 550.610722292 -23 518.920033685 31.5005200086 477.175617989 94.1171435524 c 0
 471.693146369 102.340988422 462.021484375 117.6328125 456.19140625 125.956054688 c 1
 407.887695312 52.328125 360.371946774 -17 253 -17 c 0
 112.317270915 -17 17 68.2096208585 17 175 c 0xf4
 17 273.524045349 117.491210938 345.509765625 182 394 c 1
 131.032226562 445.2265625 86 512.844726562 86 567 c 0
 86 645.40625 148.834672646 742 255 742 c 0
 404.204080992 742 413 640.910997438 413 595 c 0
 413 534.221164794 345.883894065 478.984055464 285.003508329 433.94083259 c 1
 315.522207996 404.717955987 343.85259922 379.046895715 369.949747468 352.949747468 c 0
 423.884365206 299.01512973 455.0625 265.073242188 480 235 c 1
219.602539062 358.712890625 m 1
 148.03125 299.958007812 119 249.78515625 119 184 c 0
 119 109.795898438 158.633789062 32.9296875 254.498046875 32.9296875 c 0
 329.334960938 32.9296875 369.13671875 96.103515625 413.602539062 158.712890625 c 1
 383.120117188 198.822265625 358.338867188 224.76953125 310.5859375 273.830078125 c 0
 285.104492188 300.008789062 257.08984375 323.427734375 219.602539062 358.712890625 c 1
EndSplineSet
Validated: 1
EndChar

StartChar: ae
Encoding: 230 230 150
GlifName: ae
Width: 1220
VWidth: 0
Flags: W
HStem: -10 35.3002<321.815 478.546 681.093 832.899> 471.803 39.8473<354.997 474.271 652.015 803.112>
VStem: 192.92 90.556<56.1556 162.197> 520.233 85.698<92.2016 266.213> 531.057 68.7334<329.232 420.407>
LayerCount: 2
Fore
SplineSet
913.064453125 372.178710938 m 2xe8
 802.429068077 343.233398438 720.596679688 320.588867188 607.453125 287.942382812 c 1
 606.326171875 282.217773438 605.930664062 275.088867188 605.930664062 262.919921875 c 0xf0
 605.930664062 187.633789062 606.07421875 123.725585938 621.831054688 99.587890625 c 0
 657.59375 44.7958984375 699.264648438 26.3154296875 759.720703125 26.3154296875 c 3
 803.606445312 26.3154296875 846.00390625 42.6181640625 900.798828125 83.0810546875 c 2
 906.5546875 87.33203125 l 1
 925.8203125 68.79296875 l 1
 921.618164062 64.7236328125 l 2
 863.595703125 8.53125 831.716796875 -10 739.571438054 -10 c 0
 674.918679832 -10 602.141609617 -7.1708984375 552.868054392 45.7421875 c 1
 496.126524638 0.578125 435.24795812 -10 363.173460475 -10 c 0
 282.577816023 -10 192.919915834 9.43767320971 192.919915834 94.9754861925 c 0
 192.919915834 139.336368221 223.565057804 188.669285392 269.852539062 216.874023438 c 0
 346.789335865 263.50893343 438.568928794 286.110002524 530.328125 313.998046875 c 1
 530.611328125 329.125 530.587890625 342.791015625 531.056640625 356.891601562 c 0
 530.255859375 372.748046875 529.310546875 388.203125 529.149414062 396.38671875 c 0
 528.50390625 429.223632812 460.187255904 471.802662854 397.518560796 471.802662854 c 0
 329.999641633 471.802662854 345.718832868 385.203241712 266.672960818 385.203241712 c 0
 247.458134223 385.203241712 214.951779469 394.622252675 214.951779469 416.355306022 c 0
 214.951779469 421.173987737 216.825195068 426.260444302 221.2578125 431.154296875 c 0
 278.123201117 493.931605252 353.034402114 511.649937655 409.415059261 511.649937655 c 0
 487.243691343 511.649937655 550.314332908 472.388413706 574.532216302 441.364257812 c 1
 619.155123055 489.526367188 670.606753759 504.681640625 748.04954911 504.681640625 c 0
 840.919921875 504.681640625 919.13671875 442.25 919.13671875 378.896484375 c 2
 919.13671875 373.768554688 l 1
 913.064453125 372.178710938 l 2xe8
599.790039062 329.232421875 m 1xe8
 664.411132812 346.86328125 776.504240753 382.99609375 840.33984375 404.416015625 c 1
 823.615278171 451.244470151 777.511559775 475.620765742 730.793961191 475.620765742 c 0
 639.43114767 475.620765742 602.310546875 418.548828125 599.790039062 329.232421875 c 1xe8
533.145766882 72.474609375 m 1
 524.523205699 103.362453616 520.232649232 157.940754344 520.232649232 214.064367844 c 0xf0
 520.232649232 231.540426057 520.648664565 249.16631887 521.479443819 266.2734375 c 1
 457.268934426 246.809570312 416.730798666 235.8671875 367.295420575 210.6875 c 0
 321.854809335 187.543268224 283.475964546 158.476901151 283.475964546 112.115099166 c 0
 283.475964546 54.0389582773 330.630301437 25.3001768498 391.671448876 25.3001768498 c 0
 451.399119315 25.3001768498 504.998033532 49.7886238757 533.145766882 72.474609375 c 1
EndSplineSet
Validated: 1
EndChar

StartChar: germandbls
Encoding: 223 223 151
GlifName: germandbls
Width: 636
VWidth: 0
Flags: W
HStem: -8.98828 45.6094<366.512 493.013> 0 15.9473<58.9502 96.9749 223.24 258> 695.543 39.2393<246.494 354.54>
VStem: 114.823 93.9561<21.5181 641.197> 260.101 80.8994<402.13 472.233> 386.129 70.8711<577.132 667.675> 522.657 65.3164<72.8725 185.605>
LayerCount: 2
Fore
SplineSet
111.194335938 509.887695312 m 1x7e
 111.194335938 626.532226562 151.86328125 734.782226562 297.918945312 734.782226562 c 0
 379.759765625 734.782226562 457 711.068359375 457 636.793945312 c 0
 457 554.002929688 341 507.690429688 341 452 c 0
 341 399 387.869140625 383.349609375 468.201171875 324.272460938 c 0
 542 270 587.973632812 235 587.973632812 153.328125 c 0
 587.973632812 72.458984375 527.317382812 -8.98828125 411.135742188 -8.98828125 c 0
 312.981445312 -8.98828125 291.630859375 40.5185546875 272.690429688 63.564453125 c 0
 271.044921875 65.5673828125 270.388671875 68.4921875 270.388671875 72 c 3
 270.388671875 90.734375 292.194335938 136.073242188 305 136.073242188 c 3
 307.197265625 136.073242188 309.13671875 135.323242188 310.666992188 133.188476562 c 0
 328 109 352.979492188 36.62109375 425.939453125 36.62109375 c 0xbe
 478.89453125 36.62109375 522.657226562 64.427734375 522.657226562 127 c 3
 522.657226562 192.181640625 449.388671875 240.415039062 389.81640625 280.85546875 c 0
 326.9609375 323.524414062 260.100585938 362.596679688 260.100585938 417 c 3
 260.100585938 465.184570312 302.680664062 492.639648438 335 523 c 0
 365.856445312 551.986328125 386.12890625 584.588867188 386.12890625 619.169921875 c 4
 386.12890625 653.333984375 352.159179688 695.54296875 301 695.54296875 c 3
 213.379882812 695.54296875 208.774584439 606.243164056 208.775390625 510.912109375 c 2
 208.779296875 49 l 0
 209.24609375 36.1005859375 218.046875 22.1533203125 236.629882812 18.39453125 c 0
 244.586914062 16.78515625 249.708007812 16.05859375 258 15.947265625 c 1
 258 0 l 1
 58.9501953125 0 l 1
 58.9501953125 15.947265625 l 1
 67.2421875 16.05859375 75.365234375 16.7822265625 83.3212890625 18.39453125 c 0
 102.423828125 22.265625 110.950195312 35.7158203125 110.950195312 49 c 0
 114.823242188 226.40234375 l 1
 111.194335938 509.887695312 l 1x7e
EndSplineSet
Validated: 33
EndChar

StartChar: uniFB02
Encoding: 64258 64258 152
GlifName: uniF_B_02
Width: 520
VWidth: 0
Flags: W
HStem: 0 20<43.7471 75.5839 167.567 198.747 351.092 385.253 473.814 505.747> 463 42<33.0088 79.7471 163.95 324.186> 732 25.25<239.713 340.731>
VStem: 79.7471 83<20.5548 464.984> 79.7471 75.7158<505 656.153> 389.747 80<19.7984 693.528>
LayerCount: 2
Fore
SplineSet
50.7470703125 20 m 2xf4
 69.7577831321 20 79.7470703125 29.5944486929 79.7470703125 43.5947265625 c 2xf4
 79.7470703125 465.275390625 l 1
 41.7255859375 464.627929688 37.05078125 462.9609375 23 461.403320312 c 1
 33.0087890625 500 l 1
 79.7470703125 500 l 1
 79.7470703125 530 l 0
 79.7470703125 539.435546875 80.7470703125 552.435546875 80.7470703125 561 c 0
 80.7470703125 704.178710938 185.000241163 757.25 314.868617233 757.25 c 0
 339.139613569 757.25 365.667172273 753.295898438 391.280273438 742.459960938 c 1
 451.790039062 760.720703125 l 1
 453.704101562 761.267578125 455.357421875 761.413085938 456.747070312 761.413085938 c 0
 469.731445312 761.413085938 469.747070312 746.423828125 469.747070312 737 c 0
 469.747070312 43.12109375 l 1
 471.892578125 28.134765625 478.071289062 19 498.747070312 19 c 2
 505.747070312 19 l 1
 505.747070312 -1 l 1
 351.091897899 -1 l 1
 351.091796875 19 l 1
 358.655273438 19 l 2
 379.928608182 19 387.613982919 28.211814867 389.747070312 43.087890625 c 1
 389.747070312 659.206054688 l 1
 370.806083817 691.698242188 351.895507812 732 291.958007812 732 c 0
 219.034179688 732 155.462890625 666.857421875 155.462890625 566 c 0
 155.462896565 505 l 1xec
 288.079968668 505 l 0
 311.419537287 505 324.195327257 497.987304688 324.195327257 483.713867188 c 0
 324.195327257 474.115901747 320.332825312 468.374218653 315.712890625 463 c 1
 310.359375 463 l 0
 304.40234375 463 209.928710938 464.794921875 163.950195312 464.984375 c 1
 162.747070312 43.939453125 l 1
 164.913518353 29.0060345525 171.615989325 20 191.747070312 20 c 2
 198.747070312 20 l 1
 198.747070312 0 l 1
 43.7470703125 0 l 1
 43.7470703125 20 l 1
 50.7470703125 20 l 2xf4
EndSplineSet
Validated: 1
LCarets2: 1 0
Ligature2: "'liga' fl" f l
EndChar

StartChar: uniFB00
Encoding: 64256 64256 153
GlifName: uniF_B_00
Width: 682
VWidth: 0
Flags: W
HStem: 0 20<41.0381 72.4631 163.857 195.038 348.038 378.965 469.857 501.038> 465 40<30.4229 77.0381 159.038 384.038 465.038 615.821> 637.783 21G<664.091 705.323> 707 20.6738<236.375 321.186> 731 22.6328<539.931 615.201>
VStem: 77.0381 82<20.5257 465> 77.0381 74<505 627.399> 384.038 81<20.5554 464.984> 384.038 74<505 655.663>
LayerCount: 2
Fore
SplineSet
48.0380859375 20 m 2xfc80
 69.1516168561 20 74.839304963 28.782637506 77.0380859375 43.984375 c 1xfc80
 77.0380859375 466.25390625 l 1
 40.4219719213 465.397403611 33.8034872166 463.192450818 19 461.083007812 c 1
 30.4228515625 501 l 1
 77.0380859375 501 l 1
 77.0380859375 505 l 0
 77.0380859375 514.435546875 78.0380859375 527.435546875 78.0380859375 536 c 0
 78.0380859375 660.901367188 166.684570312 727.673828125 278.81640625 727.673828125 c 0
 326.280273438 727.673828125 387.15625 715.283203125 421.377929688 678.640625 c 1
 456.170898438 726.586914062 521.010742188 753.6328125 583.744140625 753.6328125 c 0
 630.080078125 753.6328125 689.075195312 745.21875 739.26953125 688.650390625 c 0
 742.794921875 684.684570312 744.956054688 680.05859375 744.956054688 675.189453125 c 0
 744.956054688 655.318359375 713.608398438 637.783203125 697.038085938 637.783203125 c 0
 631.143554688 637.783203125 650.017578125 731 583.038085938 731 c 0
 514.255859375 731 458.038085938 656.788085938 458.038085938 556 c 0
 458.038085938 549.626953125 458.038085938 541.626953125 458.038085938 534 c 0
 458.038085938 505 l 1xfa80
 582.038085938 505 l 0
 603.961914062 505 615.911132812 497.583007812 615.911132812 483.16796875 c 0
 615.911132812 476.506835938 610.790039062 468.165039062 608.083007812 463 c 1
 603.038085938 463 l 0
 597.421875 463 508.375976562 464.794921875 465.038085938 464.984375 c 1
 465.038085938 43.939453125 l 1
 467.202148438 29.0048828125 473.907226562 20 494.038085938 20 c 2
 501.038085938 20 l 1
 501.038085938 0 l 1
 348.038085938 0 l 1
 348.038085938 20 l 1
 355.038085938 20 l 2
 375.297229886 20 381.955643558 29.5883075462 384.038085938 43.94140625 c 1xf9
 384.038085938 465 l 1
 159.038085938 465 l 1
 159.038085938 43.94140625 l 1
 161.202318611 29.005501138 167.906502898 20 188.038085938 20 c 2
 195.038085938 20 l 1
 195.038085938 0 l 1
 41.0380859375 0 l 1
 41.0380859375 20 l 1
 48.0380859375 20 l 2xfc80
151.038085938 505 m 1xfa80
 384.038085938 505 l 1
 384.038085938 530 l 2
 384.038085938 555.893461055 386.717173784 583.661430903 389.942382812 603.928710938 c 1
 384.224609375 633.69140625 349.663085938 707 280.995117188 707 c 0
 205.3359375 707 151.038085938 631.857421875 151.038085938 531 c 0
 151.038085938 505 l 1xfa80
EndSplineSet
LCarets2: 1 -1
Ligature2: "'liga' ff" f f
EndChar

StartChar: uniFB01
Encoding: 64257 64257 154
GlifName: uniF_B_01
Width: 510
VWidth: 0
Flags: W
HStem: 0 20<31.0381 61.9698 151.821 183.038 331.038 361.965 451.851 483.038> 460 36<20.4229 67.0381 147.038 366.987> 489.413 20G<433.361 440.53> 740 24.168<223.24 312.577>
VStem: 67.0381 80<20.5565 460> 67.0381 72<496 662.392> 354.685 95.3535<621.173 700.743> 367.038 80<20.5552 459.992>
LayerCount: 2
Fore
SplineSet
338.038085938 20 m 2xb5
 358.296288371 20 364.955236461 29.584566276 367.038085938 43.935546875 c 1
 367.038085938 439.677734375 l 2
 367.038085938 457.504434326 359.358003989 460 344.038085938 460 c 2
 147.038085938 460 l 1
 147.038085938 43.935546875 l 1
 149.202995545 29.0017213375 155.768061994 20 176.038085938 20 c 2
 183.038085938 20 l 1
 183.038085938 0 l 1
 31.0380859375 0 l 1
 31.0380859375 20 l 1
 38.0380859375 20 l 2
 58.3090536471 20 64.9588233978 29.6075050007 67.0380859375 43.98046875 c 1xd9
 67.0380859375 461.268554688 l 1
 29.4221270976 460.410642126 23.8044910325 458.206780831 9 456.098632812 c 1
 20.4228515625 496 l 1
 67.0380859375 496 l 1
 67.0380859375 536 l 0
 67.0380859375 545.435546875 68.0380859375 558.435546875 68.0380859375 567 c 0
 68.0380859375 709.05078125 162.21875 764.16796875 296.024414062 764.16796875 c 0
 337.639648438 764.16796875 450.038085938 732.55859375 450.038085938 663 c 0
 450.038085938 633.997070312 429.6953125 613 400.038085938 613 c 0
 376.017578125 613 362.431640625 625.9765625 354.684570312 644.053710938 c 1
 334.829101562 683.53515625 335.701171875 740 274.291992188 740 c 0
 198.497070312 740 139.038085938 672.938476562 139.038085938 572 c 0
 139.038085938 496 l 1
 385.086914062 496 l 1xd6
 429.142578125 508.739257812 l 5
 430.91796875 509.24609375 432.68359375 509.413085938 434.038085938 509.413085938 c 4
 447.022460938 509.413085938 447.038085938 494.849609375 447.038085938 485.692382812 c 4
 447.038085938 43.9921875 l 5
 449.198242188 29.0283203125 455.891601562 20 476.038085938 20 c 6
 483.038085938 20 l 5
 483.038085938 0 l 5
 331.038085938 0 l 1
 331.038085938 20 l 1
 338.038085938 20 l 2xb5
EndSplineSet
Validated: 1
LCarets2: 1 0
Ligature2: "'liga' fi" f i
EndChar

StartChar: uniFB03
Encoding: 64259 64259 155
GlifName: uniF_B_03
Width: 798
VWidth: 0
Flags: W
HStem: 0 20<35.0381 65.9692 157.858 189.038 336.038 366.964 457.092 488.038 636.038 667.129 759.638 790.038> 456 40<24.4229 69.2981 153.038 372.038> 464 32<24.4229 71.0381 452.038 671.768> 489.413 20G<740.361 747.53> 707 20.7441<229.961 319.617> 740 24.168<527.559 613.694>
VStem: 71.0381 82<20.5564 456> 71.0381 74<496 625.038> 372.038 80<20.5551 456> 372.038 72<496 617.474> 657.685 98.3535<620.499 698.288> 672.038 82<20.5354 463.992>
LayerCount: 2
Fore
SplineSet
705.038085938 612 m 4xcd20
 682.017578125 612 665.431640625 623.9765625 657.684570312 642.053710938 c 5
 637.829101562 681.53515625 637.701171875 740 577.291992188 740 c 4
 501.497070312 740 444.038085938 662.938476562 444.038085938 562 c 4
 444.038085938 496 l 5
 690.086914062 496 l 5xad60
 736.142578125 508.739257812 l 5
 737.91796875 509.24609375 739.68359375 509.413085938 741.038085938 509.413085938 c 4x9d60
 754.022460938 509.413085938 754.038085938 494.849609375 754.038085938 485.692382812 c 4
 754.038085938 44.3857421875 l 5
 757.890227105 29.1707524484 763.054887536 20 783.038085938 20 c 6
 790.038085938 20 l 5
 790.038085938 0 l 5
 636.038085938 0 l 5
 636.038085938 20 l 5
 643.038085938 20 l 6
 663.827312796 20 669.99336093 29.8353589362 672.038085938 44.400390625 c 5
 672.038085938 443 l 6
 672.038085938 461.338135615 664.532648813 464 649.038085938 464 c 6
 452.038085938 464 l 5xac90
 452.038085938 44.400390625 l 5
 454.168136749 29.2154753651 460.634486324 20 481.038085938 20 c 6
 488.038085938 20 l 5
 488.038085938 0 l 5
 336.038085938 0 l 5
 336.038085938 20 l 5
 343.038085938 20 l 6
 363.294916086 20 369.954830968 29.5827911034 372.038085938 43.931640625 c 5
 372.038085938 456 l 5
 153.038085938 456 l 5
 153.038085938 43.931640625 l 5
 155.20290188 29.0007115291 161.908964879 20 182.038085938 20 c 6
 189.038085938 20 l 5
 189.038085938 0 l 5
 35.0380859375 0 l 5
 35.0380859375 20 l 5
 42.0380859375 20 l 6
 62.3076819083 20 68.9584200914 29.605727351 71.0380859375 43.9765625 c 5xce90
 71.0380859375 457.279296875 l 5
 33.421875 456.422851562 27.8037109375 454.219726562 13 452.111328125 c 5
 24.4228515625 492 l 5
 71.0380859375 492 l 5
 71.0380859375 505 l 4
 71.0380859375 514.435546875 72.0380859375 527.435546875 72.0380859375 536 c 4
 72.0380859375 655.454101562 159.36328125 727.744140625 272.521073191 727.744140625 c 4
 317.208675987 727.744140625 373.733398438 715.989257812 407.790039062 685.067382812 c 5
 445.08203125 739.982421875 511.578343633 764.16796875 601.023772738 764.16796875 c 4
 652.751953125 764.16796875 708.8984375 749.336914062 746.5 693.427734375 c 5
 754.432617188 684.481445312 756.038085938 670.135742188 756.038085938 661 c 4
 756.038085938 631.997070312 733.6953125 612 705.038085938 612 c 4xcd20
145.038085938 541 m 4
 145.038085938 496 l 5xad40
 372.038085938 496 l 5xcd40
 372.038085938 536 l 6
 372.038085938 565.727792281 375.167606069 595.578255613 379.80859375 618.555664062 c 5
 368.540039062 651.409179688 338.475585938 707 278.353515625 707 c 4
 202.381835938 707 145.038085938 641.857421875 145.038085938 541 c 4
EndSplineSet
Validated: 1
LCarets2: 2 0 0
Ligature2: "'liga' ffi" f f i
EndChar

StartChar: uniFB04
Encoding: 64260 64260 156
GlifName: uniF_B_04
Width: 832
VWidth: 0
Flags: W
HStem: 0 20<39.0381 69.9703 161.857 193.038 346.038 376.965 469.177 501.038 642.038 672.785 762.129 794.038> 465 40<28.4229 75.0381 157.038 382.038 465.038 615.82> 707 20.6738<235.376 321.279> 732 25.25<538.158 631.279>
VStem: 75.0381 82<20.5567 465> 75.1113 73.9268<505 625.657> 382.038 83<20.5554 464.984> 382.038 74<505 652.449> 678.038 80<19.5311 696.517>
LayerCount: 2
Fore
SplineSet
46.0380859375 20 m 6xf980
 66.3106071682 20 72.9589781627 29.6100234935 75.0380859375 43.984375 c 5
 75.0380859375 466.25390625 l 5xf980
 38.4219719213 465.397403611 31.8034872166 463.192450818 17 461.083007812 c 5
 28.4228515625 501 l 5
 75.111328125 501 l 5
 75.349609375 513.024414062 76.0380859375 525.100585938 76.0380859375 536 c 4
 76.0380859375 656.905273438 165.546875 727.673828125 276.81640625 727.673828125 c 4
 324.268554688 727.673828125 385.186523438 715.250976562 419.34375 678.676757812 c 5
 457.326171875 732.362304688 525.7734375 757.25 606.788085938 757.25 c 4
 629.653320312 757.25 654.702148438 753.283203125 678.614257812 742.4609375 c 5
 740.09375 760.724609375 l 5
 741.9765625 761.262695312 743.655273438 761.413085938 745.038085938 761.413085938 c 4
 758.022460938 761.413085938 758.038085938 746.423828125 758.038085938 737 c 4
 758.038085938 43.12109375 l 5
 760.186523438 28.1015625 766.458007812 19 787.038085938 19 c 6
 794.038085938 19 l 5
 794.038085938 -1 l 5
 642.038085938 -1 l 5
 642.038085938 19 l 5
 649.038085938 19 l 6
 669.833752412 19 674.487397217 29.3771329292 678.038085938 43.484375 c 5
 678.038085938 659.206054688 l 5
 664.01171875 691.698242188 640.532226562 732 584.038085938 732 c 4
 515.255859375 732 456.038085938 656.788085938 456.038085938 556 c 4
 456.038085938 549.626953125 456.038085938 541.626953125 456.038085938 534 c 4
 456.038085938 505 l 5xf580
 582.038085938 505 l 4
 603.961914062 505 615.911132812 497.583007812 615.911132812 483.16796875 c 4
 615.911132812 473.889565931 612.382704833 468.306592788 608.083007812 463 c 5
 603.038085938 463 l 4
 597.421875 463 508.375976562 464.794921875 465.038085938 464.984375 c 5
 465.038085938 43.939453125 l 5
 467.313128586 28.2411858553 472.233466163 20 494.038085938 20 c 6
 501.038085938 20 l 5
 501.038085938 0 l 5
 346.038085938 0 l 5
 346.038085938 20 l 5
 353.038085938 20 l 6
 373.297229886 20 379.955643558 29.5883075462 382.038085938 43.94140625 c 5xf280
 382.038085938 465 l 5
 157.038085938 465 l 5
 157.038085938 43.94140625 l 5
 159.202318609 29.0055011376 165.906502899 20 186.038085938 20 c 6
 193.038085938 20 l 5
 193.038085938 0 l 5
 39.0380859375 0 l 5
 39.0380859375 20 l 5
 46.0380859375 20 l 6xf980
149.038085938 505 m 5xf580
 382.038085938 505 l 5
 382.038085938 530 l 6
 382.038085938 555.893461055 384.717173784 583.661430903 387.942382812 603.928710938 c 5
 382.224609375 633.69140625 349.663085938 707 280.995117188 707 c 4
 205.3359375 707 149.038085938 631.857421875 149.038085938 531 c 4
 149.038085938 505 l 5xf580
EndSplineSet
Validated: 1
LCarets2: 2 0 0
Ligature2: "'liga' ffl" f f l
EndChar

StartChar: uni02B9
Encoding: 697 697 157
GlifName: uni02B_9
Width: 187
VWidth: 0
Flags: W
HStem: 494 180<69.8242 117.959>
VStem: 58 72<559.812 671.317>
LayerCount: 2
Fore
SplineSet
92 674 m 2
 96 674 l 0
 117.575665284 674 130 656.615152816 130 636 c 0
 130 628.644983318 l 1
 117.964081861 510.291788285 l 1
 117.964081861 510.291788285 110.666056561 494 101 494 c 0
 87 494 l 0
 76.8708782569 494 70.7236642676 500.706748291 69.8775991694 511.848591486 c 1
 58 628.644983318 l 1
 58 634 l 0
 58 654.631474702 71.9012019561 674 92 674 c 2
EndSplineSet
Validated: 1
EndChar

StartChar: uni02BA
Encoding: 698 698 158
GlifName: uni02B_A_
Width: 304
VWidth: 0
Flags: W
HStem: 494 180<69.8242 117.959 185.824 233.959>
VStem: 58 73<559.812 671.198> 174 73<559.812 671.198>
LayerCount: 2
Fore
SplineSet
208 674 m 2
 212 674 l 0
 233.032518313 674 247 658.184604933 247 637 c 0
 247 635.269145265 246.619151267 630.366243306 245.883382856 627.498248073 c 1
 233.964081861 510.291788285 l 1
 233.964081861 510.291788285 226.666056561 494 217 494 c 0
 203 494 l 0
 192.870878257 494 186.723664268 500.706748291 185.877599169 511.848591486 c 1
 174 628.644983318 l 1
 174 634 l 0
 174 654.631474702 187.901201956 674 208 674 c 2
92 674 m 2
 96 674 l 0
 117.032518313 674 131 658.184604933 131 637 c 0
 131 635.269145265 130.619151267 630.366243306 129.883382856 627.498248073 c 1
 117.964081861 510.291788285 l 1
 117.964081861 510.291788285 110.666056561 494 101 494 c 0
 87 494 l 0
 76.8708782569 494 70.7236642676 500.706748291 69.8775991694 511.848591486 c 1
 58 628.644983318 l 1
 58 634 l 0
 58 654.631474702 71.9012019561 674 92 674 c 2
EndSplineSet
Validated: 1
EndChar

StartChar: quotedblleft
Encoding: 8220 8220 159
GlifName: quotedblleft
Width: 422
VWidth: 0
Flags: W
HStem: 765.231 33.9151<124.78 154.294 313.834 343.995>
VStem: 35.8245 127.913<561.9 638.56> 35.8245 59.5697<591.71 728.293> 227.008 128.332<562.485 639.298> 227.008 59.1991<591.663 729.303>
LayerCount: 2
Fore
SplineSet
355.339596411 598.003139536 m 0x90
 355.339596411 566.696926277 331.786178044 542.642128219 297.178670973 542.642128219 c 0
 269.551785947 542.642128219 239.434526846 559.820805425 232.575956389 591.663048722 c 0
 228.772512203 609.322050997 227.007974342 626.134350253 227.007974342 641.996399423 c 0
 227.007974342 728.498346556 279.59934602 786.476304118 337.995064815 799.053923159 c 2
 343.219505177 800.17919436 l 1
 343.994938875 794.891499687 l 1
 347.507634187 770.938374687 l 1
 348.186395734 766.309888946 l 1
 343.61326457 765.324968218 l 2
 303.620063914 756.711584762 286.20704815 710.807079251 286.20704815 680.139758543 c 0x88
 286.20704815 675.44734423 286.625550068 671.21297878 287.378146481 667.718781147 c 0
 291.238928047 649.793459171 355.339596411 650.15091489 355.339596411 598.003139536 c 0x90
163.737242008 597.45049059 m 4xc0
 163.737242008 566.091239662 140.223090461 542.064006972 105.689522368 542.064006972 c 4
 77.8752646915 542.064006972 47.5162115499 559.555679437 40.9156144169 591.710362008 c 4
 37.4412260222 608.635057263 35.8244563299 624.767118397 35.8244563299 640.018390996 c 4
 35.8244563299 727.67096849 89.349225271 785.963432188 148.33442677 798.071698754 c 6
 153.569784763 799.146393907 l 5
 154.293757403 793.85113125 l 5
 157.573054278 769.865779687 l 5
 158.206686267 765.231284362 l 5
 153.624635358 764.290621895 l 6
 113.206396969 755.993044982 95.394128844 709.521497551 95.394128844 678.897775763 c 4xa0
 95.394128844 674.51029622 95.7693029622 670.541368058 96.4486386192 667.232044072 c 4
 100.131899856 649.290304813 163.737242008 649.13185219 163.737242008 597.45049059 c 4xc0
EndSplineSet
EndChar

StartChar: second
Encoding: 8243 8243 160
GlifName: second
Width: 304
VWidth: 0
Flags: W
HStem: 501 166<75.875 111.771 191.875 227.771>
VStem: 65 59<560.167 666.305> 181 59<560.167 666.305>
LayerCount: 2
Fore
SplineSet
208 667 m 6
 212 667 l 6
 229 667 240 655 240 637 c 4
 240 635 240 632 239 629 c 6
 227 511 l 6
 227 505 223 501 217 501 c 6
 203 501 l 6
 197 501 193 505 193 511 c 6
 181 629 l 6
 181 631 181 633 181 634 c 4
 181 652 193 667 208 667 c 6
92 667 m 6
 96 667 l 6
 113 667 124 655 124 637 c 4
 124 635 124 632 123 629 c 6
 111 511 l 6
 111 505 107 501 101 501 c 6
 87 501 l 6
 81 501 77 505 77 511 c 6
 65 629 l 6
 65 631 65 633 65 634 c 4
 65 652 77 667 92 667 c 6
EndSplineSet
Validated: 1
EndChar

StartChar: quotedblright
Encoding: 8221 8221 161
GlifName: quotedblright
Width: 426
VWidth: 0
Flags: W
HStem: 483.858 33.915<79.0471 108.563 270.839 301.21>
VStem: 69.6117 127.911<644.443 721.103> 137.949 59.5737<554.711 691.289> 261.266 127.941<644.388 721.058> 329.663 59.544<554.637 691.293>
LayerCount: 2
Fore
SplineSet
69.6117480751 685.553092317 m 0xc0
 69.6117480751 716.912334607 93.1261377626 740.938533117 127.659973307 740.938533117 c 0
 155.474704678 740.938533117 185.834208594 723.445826456 192.434038738 691.289424704 c 0
 195.90695115 674.36817864 197.523054901 658.23931651 197.523054901 642.990921238 c 0
 197.523054901 555.332970456 143.993585075 497.039143814 85.0062550058 484.93217906 c 2
 79.7712247268 483.857705491 l 1
 79.0470899841 489.152577005 l 1
 75.7668165466 513.137928567 l 1
 75.1329524642 517.772741228 l 1
 79.7153739601 518.713318342 l 2
 120.137614006 527.010292752 137.94932755 573.48211833 137.94932755 604.105564801 c 0xa0
 137.94932755 608.492642742 137.574294265 612.460786529 136.895039937 615.77025713 c 0
 133.213334094 633.710892097 69.6117480751 633.872899974 69.6117480751 685.553092317 c 0xc0
261.265869895 685.511059482 m 0x90
 261.265869895 716.86240027 284.765380225 740.896783237 319.32035058 740.896783237 c 0
 347.122432846 740.896783237 377.465229689 723.426959297 384.083709157 691.292927438 c 0
 387.580438388 674.317293594 389.207260537 658.138040518 389.207260537 642.844327662 c 0
 389.207260537 555.27191617 335.746479595 497.001188807 276.801699774 484.859646772 c 2
 271.566932395 483.781380836 l 1
 270.83949667 489.076310884 l 1
 267.544574795 513.059709321 l 1
 266.907933346 517.693757135 l 1
 271.48933046 518.63742655 l 2
 311.878335601 526.956694204 329.66321263 573.389820676 329.66321263 604.017116115 c 0x88
 329.66321263 608.425383147 329.285144458 612.412336659 328.600860306 615.734420432 c 0
 324.905316867 633.675317554 261.265869895 633.796661648 261.265869895 685.511059482 c 0x90
EndSplineSet
EndChar

StartChar: minute
Encoding: 8242 8242 162
GlifName: minute
Width: 187
VWidth: 0
Flags: W
HStem: 501 166<75.875 112.014>
VStem: 65 58<560.167 666.32>
LayerCount: 2
Fore
SplineSet
92 667 m 2
 96 667 l 2
 113 667 123 654 123 636 c 0
 123 634 123 631 123 629 c 2
 111 511 l 2
 111 505 107 501 101 501 c 2
 87 501 l 2
 81 501 77 505 77 511 c 2
 65 629 l 2
 65 631 65 633 65 634 c 0
 65 652 77 667 92 667 c 2
EndSplineSet
Validated: 1
EndChar

StartChar: quoteleft
Encoding: 8216 8216 163
GlifName: quoteleft
Width: 236
VWidth: 0
Flags: W
HStem: 764.874 33.7524<122.939 153.198>
VStem: 35.564 128.146<562.23 638.973> 35.564 59.3597<591.684 728.863>
LayerCount: 2
Fore
SplineSet
163.710454906 597.761434345 m 4xc0
 163.710454906 566.43446429 140.183335653 542.389082995 105.600737694 542.389082995 c 4
 77.8916490463 542.389082995 47.6680587383 559.704174898 40.9211602978 591.683714908 c 4
 37.2632538975 609.022675536 35.5639933687 625.538495836 35.5639933687 641.134584523 c 4
 35.5639933687 728.137107496 88.5620184709 786.252533546 147.215920869 798.626686918 c 6
 152.445349425 799.729934074 l 5
 153.198192906 794.438686206 l 5
 156.608349156 770.470912769 l 5
 157.267258838 765.839864562 l 5
 152.690313547 764.874286356 l 6
 112.510698618 756.397768066 94.9237305986 710.243227364 94.9237305986 679.593654528 c 4xa0
 94.9237305986 675.036326743 95.3228631801 670.919243272 96.0426995168 667.506749727 c 4
 99.8249883113 649.578834151 163.710454906 649.696787857 163.710454906 597.761434345 c 4xc0
EndSplineSet
EndChar

StartChar: quoteright
Encoding: 8217 8217 164
GlifName: quoteright
Width: 246
VWidth: 0
Flags: W
HStem: 482.501 33.853<81.6206 109.094>
VStem: 69.677 128.466<643.468 720.332> 139.059 59.0839<553.382 691.352>
LayerCount: 2
Fore
SplineSet
69.6769560408 684.822187841 m 0xc0
 69.6769560408 716.113527786 93.2496794507 740.176841236 127.873298614 740.176841236 c 0
 155.44078267 740.176841236 185.482444917 723.095058355 192.420820306 691.351807007 c 0
 196.33064879 673.463270486 198.142828095 656.438379272 198.142828095 640.385883665 c 0
 198.142828095 554.242301671 145.843020004 496.364839815 87.6330916737 483.641687271 c 2
 82.4122028063 482.50053889 l 1
 81.6205882571 487.785730145 l 1
 78.0346507571 511.727136395 l 1
 77.3417112627 516.353526549 l 1
 81.9118102711 517.352448997 l 2
 121.769349103 526.064424424 139.058906872 571.789278535 139.058906872 602.467774939 c 0xa0
 139.058906872 607.257822507 138.626186303 611.576982403 137.849665366 615.129739609 c 0
 133.93249784 633.053636228 69.6769560408 632.521324213 69.6769560408 684.822187841 c 0xc0
EndSplineSet
EndChar

StartChar: emdash
Encoding: 8212 8212 165
GlifName: emdash
Width: 697
VWidth: 0
Flags: W
HStem: 276 44<68.0352 616.947>
LayerCount: 2
Fore
SplineSet
77 276 m 5
 71 278 68 289 68 300 c 4
 68 311 71 320 77 320 c 5
 611 320 l 5
 615 320 617 307 617 295 c 4
 617 285 616 276 611 276 c 5
 77 276 l 5
EndSplineSet
Validated: 1
EndChar

StartChar: endash
Encoding: 8211 8211 166
GlifName: endash
Width: 515
VWidth: 0
Flags: W
HStem: 276 44<68.0352 445.947>
LayerCount: 2
Fore
SplineSet
77 276 m 1
 71 278 68 289 68 300 c 0
 68 311 71 320 77 320 c 1
 440 320 l 1
 444 320 446 307 446 295 c 0
 446 285 445 276 440 276 c 1
 77 276 l 1
EndSplineSet
Validated: 1
EndChar

StartChar: uni2010
Encoding: 8208 8208 167
GlifName: uni2010
Width: 403
VWidth: 0
Flags: W
HStem: 276 44<68 336>
VStem: 68 268<276 320>
LayerCount: 2
Fore
SplineSet
68 276 m 5
 68 320 l 5
 336 320 l 5
 336 276 l 5
 68 276 l 5
EndSplineSet
Validated: 1
EndChar

StartChar: uni2015
Encoding: 8213 8213 172
GlifName: uni2015
Width: 2000
VWidth: 0
Flags: W
HStem: 276 44<68 1933>
LayerCount: 2
Fore
SplineSet
68 276 m 1
 68 320 l 1
 1933 320 l 1
 1933 276 l 1
 68 276 l 1
EndSplineSet
Validated: 1
EndChar

StartChar: figuredash
Encoding: 8210 8210 173
GlifName: figuredash
Width: 539
VWidth: 0
Flags: W
HStem: 276 44<68 472>
LayerCount: 2
Fore
SplineSet
68 276 m 1
 68 320 l 1
 472 320 l 1
 472 276 l 1
 68 276 l 1
EndSplineSet
Validated: 1
EndChar

StartChar: uni2011
Encoding: 8209 8209 174
GlifName: uni2011
Width: 403
VWidth: 0
Flags: W
HStem: 276 44<68 336>
VStem: 68 268<276 320>
LayerCount: 2
Fore
SplineSet
68 276 m 1
 68 320 l 1
 336 320 l 1
 336 276 l 1
 68 276 l 1
EndSplineSet
Validated: 1
EndChar

StartChar: uni2034
Encoding: 8244 8244 175
GlifName: uni2034
Width: 427
VWidth: 0
Flags: W
HStem: 501 166<75.875 111.771 191.875 227.771 307.875 343.771>
VStem: 65 59<560.167 666.305> 181 59<560.167 666.305> 297 59<560.167 666.305>
CounterMasks: 1 70
LayerCount: 2
Fore
SplineSet
324 667 m 2
 328 667 l 2
 345 667 356 655 356 637 c 0
 356 635 356 632 355 629 c 2
 343 511 l 2
 343 505 339 501 333 501 c 2
 319 501 l 2
 313 501 309 505 309 511 c 2
 297 629 l 2
 297 631 297 633 297 634 c 0
 297 652 309 667 324 667 c 2
208 667 m 2
 212 667 l 2
 229 667 240 655 240 637 c 0
 240 635 240 632 239 629 c 2
 227 511 l 2
 227 505 223 501 217 501 c 2
 203 501 l 2
 197 501 193 505 193 511 c 2
 181 629 l 2
 181 631 181 633 181 634 c 0
 181 652 193 667 208 667 c 2
92 667 m 2
 96 667 l 2
 113 667 124 655 124 637 c 0
 124 635 124 632 123 629 c 2
 111 511 l 2
 111 505 107 501 101 501 c 2
 87 501 l 2
 81 501 77 505 77 511 c 2
 65 629 l 2
 65 631 65 633 65 634 c 0
 65 652 77 667 92 667 c 2
EndSplineSet
Validated: 1
EndChar

StartChar: uni2016
Encoding: 8214 8214 176
GlifName: uni2016
Width: 293
VWidth: 0
Flags: W
VStem: 63 44<-110.873 737.95> 180 44<-110.873 737.95>
LayerCount: 2
Fore
SplineSet
180 728 m 5
 182 734 193 738 204 738 c 4
 215 738 224 738 224 732 c 5
 224 -102 l 5
 224 -106 211 -111 199 -111 c 4
 189 -111 180 -111 180 -106 c 5
 180 728 l 5
63 728 m 1
 65 734 76 738 87 738 c 0
 98 738 107 738 107 732 c 1
 107 -102 l 1
 107 -106 94 -111 82 -111 c 0
 72 -111 63 -111 63 -106 c 1
 63 728 l 1
EndSplineSet
Validated: 1
EndChar

StartChar: guillemotleft
Encoding: 171 171 180
GlifName: guillemotleft
Width: 451
VWidth: 0
Flags: W
LayerCount: 2
Fore
SplineSet
180 342 m 4
 180 351.913085938 189.353515625 357.235351562 189.353515625 357.235351562 c 4
 269.870117188 428.694335938 318.604727022 463.637423936 368.666424776 522.533538941 c 0
 368.849915815 522.749410752 l 1
 369.050252532 522.949747468 l 0
 372.009268841 525.908763778 376.087511511 526 377 526 c 0
 385.079086999 526 393 518.921710497 393 509 c 0
 393 507.138738088 392.743101893 503.833727943 391.260990337 500.869504832 c 0
 391.092265936 500.532056029 l 1
 390.888249328 500.214696861 l 0
 355.822253943 445.667592929 311.54088018 393.322794749 253.784488089 343.046181218 c 1
 313.003428912 292.278996552 355.732147883 239.472572053 390.888249328 184.785303139 c 0
 391.092265936 184.467943971 l 1
 391.260990337 184.130495168 l 0
 392.743101893 181.166272057 393 177.861261912 393 176 c 0
 393 166.078289503 385.079086999 159 377 159 c 0
 376.087511511 159 372.009268841 159.091236222 369.050252532 162.050252532 c 0
 368.849915815 162.250589248 l 1
 368.666424776 162.466461059 l 0
 318.611923712 221.35410937 269.853515625 256.321289062 189.366210938 327.752929688 c 5
 189.366210938 327.752929688 180 332.39453125 180 342 c 4
42 342 m 4
 42 351.913085938 51.353515625 357.235351562 51.353515625 357.235351562 c 4
 131.870117188 428.694335938 180.604727022 463.637423936 230.666424776 522.533538941 c 0
 230.849915815 522.749410752 l 1
 231.050252532 522.949747468 l 0
 234.009268841 525.908763778 238.087511511 526 239 526 c 0
 247.079086999 526 255 518.921710497 255 509 c 0
 255 507.138738088 254.743101893 503.833727943 253.260990337 500.869504832 c 0
 253.092265936 500.532056029 l 1
 252.888249328 500.214696861 l 0
 217.822253943 445.667592929 173.54088018 393.322794749 115.784488089 343.046181218 c 1
 175.003428912 292.278996552 217.732147883 239.472572053 252.888249328 184.785303139 c 0
 253.092265936 184.467943971 l 1
 253.260990337 184.130495168 l 0
 254.743101893 181.166272057 255 177.861261912 255 176 c 0
 255 166.078289503 247.079086999 159 239 159 c 0
 238.087511511 159 234.009268841 159.091236222 231.050252532 162.050252532 c 0
 230.849915815 162.250589248 l 1
 230.666424776 162.466461059 l 0
 180.611923712 221.35410937 131.853515625 256.321289062 51.3662109375 327.752929688 c 5
 51.3662109375 327.752929688 42 332.39453125 42 342 c 4
EndSplineSet
Validated: 1
EndChar

StartChar: guillemotright
Encoding: 187 187 181
GlifName: guillemotright
Width: 451
VWidth: 0
Flags: W
LayerCount: 2
Fore
SplineSet
258 342 m 4
 258 332.39453125 248.633789062 327.752929688 248.633789062 327.752929688 c 5
 168.147460938 256.321289062 119.387940404 221.353949506 69.3335752243 162.466461059 c 0
 69.1500841851 162.250589248 l 1
 68.9497474683 162.050252532 l 0
 65.9907311588 159.091236222 61.9124884889 159 61 159 c 0
 52.9209130011 159 45 166.078289503 45 176 c 0
 45 177.861261912 45.2568981072 181.166272057 46.739009663 184.130495168 c 0
 46.9077340643 184.467943971 l 1
 47.1117506724 184.785303139 l 0
 82.1206978887 239.243665476 126.502681924 293.570154514 184.215511911 343.046181218 c 1
 124.947949111 394.638260328 82.3360585002 445.421329129 47.1117506724 500.214696861 c 0
 46.9077340643 500.532056029 l 1
 46.739009663 500.869504832 l 0
 45.2568981072 503.833727943 45 507.138738088 45 509 c 0
 45 518.921710497 52.9209130011 526 61 526 c 0
 61.9124884889 526 65.9907311588 525.908763778 68.9497474683 522.949747468 c 0
 69.1500841851 522.749410752 l 1
 69.3335752243 522.533538941 l 0
 119.388218745 463.645723034 168.146484375 428.678710938 248.633789062 357.247070312 c 4
 248.633789062 357.247070312 258 351.901367188 258 342 c 4
396 342 m 4
 396 332.39453125 386.633789062 327.752929688 386.633789062 327.752929688 c 5
 306.147460938 256.321289062 257.387940404 221.353949506 207.333575224 162.466461059 c 0
 207.150084185 162.250589248 l 1
 206.949747468 162.050252532 l 0
 203.990731159 159.091236222 199.912488489 159 199 159 c 0
 190.920913001 159 183 166.078289503 183 176 c 0
 183 177.861261912 183.256898107 181.166272057 184.739009663 184.130495168 c 0
 184.907734064 184.467943971 l 1
 185.111750672 184.785303139 l 0
 220.120697889 239.243665476 264.502681924 293.570154514 322.215511911 343.046181218 c 1
 262.947949111 394.638260328 220.3360585 445.421329129 185.111750672 500.214696861 c 0
 184.907734064 500.532056029 l 1
 184.739009663 500.869504832 l 0
 183.256898107 503.833727943 183 507.138738088 183 509 c 0
 183 518.921710497 190.920913001 526 199 526 c 0
 199.912488489 526 203.990731159 525.908763778 206.949747468 522.949747468 c 0
 207.150084185 522.749410752 l 1
 207.333575224 522.533538941 l 0
 257.388218745 463.645723034 306.146484375 428.678710938 386.633789062 357.247070312 c 4
 386.633789062 357.247070312 396 351.901367188 396 342 c 4
EndSplineSet
Validated: 1
EndChar

StartChar: registered
Encoding: 174 174 182
GlifName: registered
Width: 675
VWidth: 0
Flags: W
HStem: 94.6387 48.1084<195.603 379.061> 196.36 16.1504<143.492 160.646 235.715 253.375 414.666 425.916> 343.478 20.583<226.699 249.106> 496.21 17.5205<149.373 161.343 227.612 293.634> 566.253 42.1084<200.897 371.35>
VStem: 17.957 52.1074<263.79 438.849> 168.831 57.0258<226.494 343.812 364.061 493.463> 335.765 56.9307<385.389 473.797> 487.936 52.1074<258.454 445.416>
LayerCount: 2
Fore
SplineSet
17.95703125 349.063476562 m 0
 17.95703125 493.83799431 143.608169038 608.361328125 287.73046875 608.361328125 c 0
 432.310251353 608.361328125 540.04296875 493.191178147 540.04296875 349.063476562 c 0
 540.04296875 204.873597441 433.919779777 94.638671875 289.475585938 94.638671875 c 0
 145.585305822 94.638671875 17.95703125 204.099781079 17.95703125 349.063476562 c 0
142.985351562 508.107852585 m 1
 98.6860265408 467.624545413 70.064453125 410.176701389 70.064453125 349.063476562 c 0
 70.064453125 288.380376969 98.8031679014 234.330415914 142.985351562 196.789856352 c 1
 142.985351562 212.510742188 l 1
 149.985351562 212.510742188 l 2
 153.139648438 212.510742188 157.03770574 213.018307366 160.823242188 215.005859375 c 0
 167.180664062 218.34375 168.905273438 226.31142812 168.905273438 227.280273438 c 0
 168.905273438 234.560465008 168.831054688 330.134910022 168.831054688 401.435546875 c 0
 168.831054688 439.493534785 168.905273438 466.882750077 168.905273438 475.76953125 c 0
 168.905273438 480.616556139 166.248046875 490.997070312 161.520507812 493.58984375 c 0
 157.775018039 495.644021678 152.041015625 496.209960938 147.985351562 496.209960938 c 2
 142.985351562 496.209960938 l 1
 142.985351562 508.107852585 l 1
149.372660422 513.73046875 m 1
 162.9453125 513.73046875 l 2
 193.610775868 513.73046875 230.061103281 514.540039062 260.955078125 514.540039062 c 0
 332.97901879 514.540039062 392.6953125 487.798307346 392.6953125 424.919921875 c 0
 392.6953125 381.093803062 356.477530765 352.947086796 321.85235133 342.921936486 c 1
 360.052149385 294.755847973 395.456054688 241.926757812 414.486328125 220.61328125 c 0
 418.341796875 215.986328125 420.940429688 214.568359375 423.239257812 214.032226562 c 0
 441.783203125 213.432617188 l 0
 467.358398438 248.442382812 487.935546875 300.369448643 487.935546875 349.063476562 c 0
 487.935546875 465.317150381 402.718728944 566.252929688 287.73046875 566.252929688 c 0
 236.693535306 566.252929688 187.810694978 546.135637432 149.372660422 513.73046875 c 1
225.8568357 364.060546875 m 2
 236.655273438 364.060546875 l 2
 295.257918991 364.060546875 335.764648438 388.4140625 335.764648438 427.110351562 c 0
 335.764648438 472.825195312 290.439453125 495.780273438 261.764648438 495.780273438 c 0
 248.368164062 495.780273438 234.424804688 496.166015625 229.849609375 496.166015625 c 0
 227.795898438 496.166015625 227.803710938 496.137695312 227.612304688 496.134765625 c 0
 227.115234375 476.526367188 225.9140625 416.729858239 225.9140625 378.879882812 c 0
 225.9140625 373.642405779 225.877774567 368.030742698 225.8568357 364.060546875 c 2
143.492370422 196.360351562 m 1
 183.039407991 162.960248928 234.853351957 142.747070312 289.475585938 142.747070312 c 0
 344.310311526 142.747070312 391.552470575 163.414616379 425.916068748 196.360351562 c 1
 375.974609375 196.360351562 l 2
 350.447493068 196.360351562 335.759149383 227.62607997 332.145352083 231.239332696 c 2
 331.856852562 231.527788741 l 1
 249.106445312 343.653320312 l 2
 244.537109375 343.586914062 240.849609375 343.477539062 237.275390625 343.477539062 c 0
 234.071289062 343.477539062 228.6796875 343.6875 226.69921875 343.811523438 c 2
 227.455078125 226.494390885 l 1
 227.455078125 226.494390885 229 218.375976562 235.537109375 215.005859375 c 0
 239.337141047 213.046805103 243.220703125 212.510742188 246.375 212.510742188 c 2
 253.375 212.510742188 l 1
 253.375 196.360351562 l 1
 143.492370422 196.360351562 l 1
EndSplineSet
Validated: 1
EndChar

